<svg width="56" height="46" viewBox="0 0 56 46" fill="none" xmlns="http://www.w3.org/2000/svg">
<path fill-rule="evenodd" clip-rule="evenodd" d="M52 1.79996V24L50.062 23.027L50 23V2.99997L35.769 15.64L41.014 22.04L41.405 22.517C40.801 22.691 40.2104 22.9089 39.638 23.169L39.592 23.11L34.536 16.721L26.728 23.558C26.6593 23.6581 26.5704 23.7426 26.4671 23.8064C26.3638 23.8701 26.2483 23.9115 26.128 23.928C26.0886 23.9337 26.0488 23.9363 26.009 23.936C25.949 23.9381 25.8891 23.9338 25.83 23.923C25.7582 23.909 25.6886 23.8855 25.623 23.853C25.6002 23.8468 25.5778 23.8391 25.556 23.83L25.527 23.805C25.4603 23.7612 25.4001 23.7084 25.348 23.648L17.457 16.725L3.00002 35H32V37H1.78499C1.54958 36.9991 1.3167 36.9517 1.09957 36.8608C0.882436 36.7698 0.685315 36.637 0.519549 36.4698C0.353783 36.3027 0.222588 36.1045 0.133441 35.8866C0.0442933 35.6687 -0.00103482 35.4354 1.79252e-05 35.2V1.79996C0.00261805 1.61359 0.0340054 1.42877 0.0930355 1.25198C0.0356643 1.12537 0.00868317 0.987074 0.0142391 0.848175C0.0197951 0.709276 0.0577167 0.573597 0.125018 0.451965C0.234764 0.262062 0.411326 0.119878 0.620257 0.0531311C0.829189 -0.0136161 1.0555 -0.000130147 1.25502 0.0909729C1.42601 0.0339013 1.60475 0.00354809 1.78499 0.000976562H50.214C50.4015 0.00488091 50.5871 0.0386437 50.764 0.100983C50.9615 0.00478504 51.1883 -0.0120276 51.3978 0.0540161C51.6073 0.12006 51.7835 0.26391 51.89 0.455963C51.9584 0.581124 51.9961 0.720743 51.9999 0.863312C52.0037 1.00588 51.9736 1.14732 51.912 1.27597C51.9673 1.44528 51.9969 1.62188 52 1.79996ZM2.00002 33L16.229 15.643L2.00002 2.99997V33ZM4.00002 1.99997L26 21.87L48 1.99997H4.00002ZM45 24C47.1756 24 49.3023 24.6451 51.1113 25.8538C52.9202 27.0625 54.3301 28.7805 55.1627 30.7905C55.9952 32.8005 56.2131 35.0122 55.7887 37.146C55.3642 39.2798 54.3166 41.2398 52.7782 42.7781C51.2398 44.3165 49.2798 45.3642 47.146 45.7886C45.0122 46.213 42.8005 45.9952 40.7905 45.1627C38.7805 44.3301 37.0625 42.9202 35.8538 41.1112C34.6451 39.3023 34 37.1756 34 35C34 32.0826 35.1589 29.2847 37.2218 27.2218C39.2847 25.1589 42.0826 24 45 24ZM45 44C46.7801 44 48.5201 43.4721 50.0001 42.4832C51.4802 41.4943 52.6338 40.0887 53.315 38.4441C53.9962 36.7996 54.1744 34.99 53.8271 33.2442C53.4798 31.4983 52.6226 29.8947 51.364 28.636C50.1053 27.3773 48.5016 26.5202 46.7558 26.1729C45.01 25.8256 43.2004 26.0039 41.5559 26.6851C39.9113 27.3662 38.5057 28.5198 37.5168 29.9998C36.5279 31.4799 36 33.2199 36 35C35.9738 36.189 36.1887 37.3711 36.6317 38.4749C37.0747 39.5787 37.7366 40.5813 38.5777 41.4223C39.4187 42.2633 40.4213 42.9253 41.5251 43.3683C42.6289 43.8113 43.8109 44.0262 45 44ZM41.731 34.427L43.9 36.558L48.237 32.296C48.4305 32.1075 48.6899 32.002 48.96 32.002C49.2302 32.002 49.4895 32.1075 49.683 32.296C49.7777 32.3885 49.853 32.499 49.9044 32.621C49.9558 32.743 49.9823 32.8741 49.9823 33.0065C49.9823 33.1389 49.9558 33.2699 49.9044 33.3919C49.853 33.514 49.7777 33.6245 49.683 33.717L45.345 37.978C45.2129 38.1015 45.0498 38.1868 44.873 38.225C44.8334 38.3995 44.747 38.5599 44.623 38.689C44.4295 38.8775 44.1702 38.983 43.9 38.983C43.6299 38.983 43.3705 38.8775 43.177 38.689L40.285 35.847C40.1903 35.7545 40.1151 35.6441 40.0637 35.5222C40.0123 35.4003 39.9858 35.2693 39.9858 35.137C39.9858 35.0046 40.0123 34.8737 40.0637 34.7517C40.1151 34.6298 40.1903 34.5194 40.285 34.427C40.4785 34.2385 40.7379 34.133 41.008 34.133C41.2781 34.133 41.5376 34.2385 41.731 34.427Z" fill="#333333"/>
</svg>
