<svg
        xmlns="http://www.w3.org/2000/svg"
        xmlns:xlink="http://www.w3.org/1999/xlink"
        width="16px" height="12px">
    <defs>
        <filter filterUnits="userSpaceOnUse" id="Filter_0" x="0px" y="0px" width="16px" height="12px"  >
            <feOffset in="SourceAlpha" dx="0.5" dy="0.866" />
            <feGaussianBlur result="blurOut" stdDeviation="0" />
            <feFlood flood-color="rgb(0, 0, 0)" result="floodOut" />
            <feComposite operator="atop" in="floodOut" in2="blurOut" />
            <feComponentTransfer><feFuncA type="linear" slope="0.6"/></feComponentTransfer>
            <feMerge>
                <feMergeNode/>
                <feMergeNode in="SourceGraphic"/>
            </feMerge>
        </filter>
        <filter id="Filter_1">
            <feFlood flood-color="rgb(0, 0, 0)" flood-opacity="0.7" result="floodOut" />
            <feComposite operator="atop" in="floodOut" in2="SourceGraphic" result="compOut" />
            <feBlend mode="normal" in="compOut" in2="SourceGraphic" />
        </filter>
        <linearGradient id="PSgrad_0" x1="0%" x2="0%" y1="100%" y2="0%">
            <stop offset="0%" stop-color="rgb(0,0,0)" stop-opacity="0.6" />
            <stop offset="100%" stop-color="rgb(255,255,255)" stop-opacity="0.6" />
        </linearGradient>

    </defs>
    <g filter="url(#Filter_0)">
        <g filter="url(#Filter_1)">
            <path fill-rule="evenodd"  fill="rgb(153, 204, 255)"
                  d="M15.000,9.391 C15.000,10.602 13.800,8.727 13.800,8.727 L10.759,5.245 C10.421,4.893 11.122,4.413 11.122,4.413 L14.219,1.774 C15.147,0.807 14.983,1.722 14.983,1.722 L15.000,9.391 ZM7.794,6.212 C7.497,6.607 7.221,6.220 7.221,6.220 L0.588,0.616 C0.007,-0.006 1.152,0.000 1.152,0.000 L13.817,0.000 C14.956,0.000 14.377,0.586 14.377,0.586 L7.794,6.212 ZM0.781,1.774 L3.878,4.413 C3.878,4.413 4.579,4.893 4.241,5.245 L1.200,8.727 C1.200,8.727 0.000,10.602 0.000,9.391 L0.017,1.722 C0.017,1.722 -0.147,0.807 0.781,1.774 ZM4.799,5.604 C5.136,4.998 5.998,6.248 5.998,6.248 L7.198,7.497 C7.535,7.810 7.798,7.497 7.798,7.497 L9.016,6.248 C9.935,5.057 10.216,5.643 10.216,5.643 L13.796,9.763 C14.996,10.993 13.815,10.993 13.815,10.993 L1.218,10.993 C0.019,10.993 1.200,9.724 1.200,9.724 L4.799,5.604 Z"/>
        </g></g>
    <path fill="url(#PSgrad_0)"
          d="M15.000,9.391 C15.000,10.602 13.800,8.727 13.800,8.727 L10.759,5.245 C10.421,4.893 11.122,4.413 11.122,4.413 L14.219,1.774 C15.147,0.807 14.983,1.722 14.983,1.722 L15.000,9.391 ZM7.794,6.212 C7.497,6.607 7.221,6.220 7.221,6.220 L0.588,0.616 C0.007,-0.006 1.152,0.000 1.152,0.000 L13.817,0.000 C14.956,0.000 14.377,0.586 14.377,0.586 L7.794,6.212 ZM0.781,1.774 L3.878,4.413 C3.878,4.413 4.579,4.893 4.241,5.245 L1.200,8.727 C1.200,8.727 0.000,10.602 0.000,9.391 L0.017,1.722 C0.017,1.722 -0.147,0.807 0.781,1.774 ZM4.799,5.604 C5.136,4.998 5.998,6.248 5.998,6.248 L7.198,7.497 C7.535,7.810 7.798,7.497 7.798,7.497 L9.016,6.248 C9.935,5.057 10.216,5.643 10.216,5.643 L13.796,9.763 C14.996,10.993 13.815,10.993 13.815,10.993 L1.218,10.993 C0.019,10.993 1.200,9.724 1.200,9.724 L4.799,5.604 Z"/>
</svg>
