<svg
        xmlns="http://www.w3.org/2000/svg"
        xmlns:xlink="http://www.w3.org/1999/xlink"
        width="16px" height="16px">
    <defs>
        <filter filterUnits="userSpaceOnUse" id="Filter_0" x="0px" y="0px" width="16px" height="16px"  >
            <feOffset in="SourceAlpha" dx="0.5" dy="0.866" />
            <feGaussianBlur result="blurOut" stdDeviation="0" />
            <feFlood flood-color="rgb(0, 0, 0)" result="floodOut" />
            <feComposite operator="atop" in="floodOut" in2="blurOut" />
            <feComponentTransfer><feFuncA type="linear" slope="0.6"/></feComponentTransfer>
            <feMerge>
                <feMergeNode/>
                <feMergeNode in="SourceGraphic"/>
            </feMerge>
        </filter>
        <filter id="Filter_1">
            <feFlood flood-color="rgb(0, 0, 0)" flood-opacity="0.7" result="floodOut" />
            <feComposite operator="atop" in="floodOut" in2="SourceGraphic" result="compOut" />
            <feBlend mode="normal" in="compOut" in2="SourceGraphic" />
        </filter>
        <linearGradient id="PSgrad_0" x1="0%" x2="0%" y1="100%" y2="0%">
            <stop offset="0%" stop-color="rgb(0,0,0)" stop-opacity="0.6" />
            <stop offset="100%" stop-color="rgb(255,255,255)" stop-opacity="0.6" />
        </linearGradient>

    </defs>
    <g filter="url(#Filter_0)">
        <g filter="url(#Filter_1)">
            <path fill-rule="evenodd"  fill="rgb(153, 204, 255)"
                  d="M4.219,7.500 C4.219,5.688 5.688,4.219 7.500,4.219 C9.312,4.219 10.781,5.688 10.781,7.500 C10.781,9.312 9.312,10.781 7.500,10.781 C5.688,10.781 4.219,9.312 4.219,7.500 ZM0.938,6.094 C0.420,6.094 0.000,6.513 0.000,7.031 L0.000,7.969 C0.000,8.487 0.420,8.906 0.938,8.906 L2.267,8.906 C2.390,9.367 2.573,9.803 2.806,10.206 L1.865,11.146 C1.499,11.512 1.499,12.106 1.865,12.472 L2.528,13.135 C2.894,13.501 3.488,13.501 3.854,13.135 L4.794,12.194 C5.197,12.427 5.633,12.610 6.094,12.733 L6.094,14.063 C6.094,14.580 6.514,15.000 7.031,15.000 L7.969,15.000 C8.487,15.000 8.906,14.580 8.906,14.063 L8.906,12.731 C9.366,12.608 9.801,12.427 10.204,12.194 L11.146,13.135 C11.512,13.501 12.106,13.501 12.472,13.135 L13.135,12.472 C13.501,12.106 13.501,11.512 13.135,11.146 L12.194,10.204 C12.426,9.801 12.608,9.366 12.731,8.906 L14.062,8.906 C14.580,8.906 15.000,8.487 15.000,7.969 L15.000,7.031 C15.000,6.513 14.580,6.094 14.062,6.094 L12.733,6.094 C12.610,5.633 12.427,5.197 12.194,4.794 L13.135,3.854 C13.501,3.488 13.501,2.894 13.135,2.528 L12.472,1.865 C12.106,1.499 11.512,1.499 11.146,1.865 L10.206,2.806 C9.803,2.573 9.367,2.390 8.906,2.267 L8.906,0.937 C8.906,0.420 8.487,-0.000 7.969,-0.000 L7.031,-0.000 C6.514,-0.000 6.094,0.420 6.094,0.937 L6.094,2.269 C5.634,2.392 5.199,2.574 4.796,2.806 L3.854,1.865 C3.488,1.499 2.894,1.499 2.528,1.865 L1.865,2.528 C1.499,2.894 1.499,3.488 1.865,3.854 L2.806,4.796 C2.574,5.199 2.392,5.634 2.269,6.094 L0.938,6.094 ZM6.094,7.500 C6.094,8.277 6.723,8.906 7.500,8.906 C8.277,8.906 8.906,8.277 8.906,7.500 C8.906,6.723 8.277,6.094 7.500,6.094 C6.723,6.094 6.094,6.723 6.094,7.500 Z"/>
        </g></g>
    <path fill="url(#PSgrad_0)"
          d="M4.219,7.500 C4.219,5.688 5.688,4.219 7.500,4.219 C9.312,4.219 10.781,5.688 10.781,7.500 C10.781,9.312 9.312,10.781 7.500,10.781 C5.688,10.781 4.219,9.312 4.219,7.500 ZM0.938,6.094 C0.420,6.094 0.000,6.513 0.000,7.031 L0.000,7.969 C0.000,8.487 0.420,8.906 0.938,8.906 L2.267,8.906 C2.390,9.367 2.573,9.803 2.806,10.206 L1.865,11.146 C1.499,11.512 1.499,12.106 1.865,12.472 L2.528,13.135 C2.894,13.501 3.488,13.501 3.854,13.135 L4.794,12.194 C5.197,12.427 5.633,12.610 6.094,12.733 L6.094,14.063 C6.094,14.580 6.514,15.000 7.031,15.000 L7.969,15.000 C8.487,15.000 8.906,14.580 8.906,14.063 L8.906,12.731 C9.366,12.608 9.801,12.427 10.204,12.194 L11.146,13.135 C11.512,13.501 12.106,13.501 12.472,13.135 L13.135,12.472 C13.501,12.106 13.501,11.512 13.135,11.146 L12.194,10.204 C12.426,9.801 12.608,9.366 12.731,8.906 L14.062,8.906 C14.580,8.906 15.000,8.487 15.000,7.969 L15.000,7.031 C15.000,6.513 14.580,6.094 14.062,6.094 L12.733,6.094 C12.610,5.633 12.427,5.197 12.194,4.794 L13.135,3.854 C13.501,3.488 13.501,2.894 13.135,2.528 L12.472,1.865 C12.106,1.499 11.512,1.499 11.146,1.865 L10.206,2.806 C9.803,2.573 9.367,2.390 8.906,2.267 L8.906,0.937 C8.906,0.420 8.487,-0.000 7.969,-0.000 L7.031,-0.000 C6.514,-0.000 6.094,0.420 6.094,0.937 L6.094,2.269 C5.634,2.392 5.199,2.574 4.796,2.806 L3.854,1.865 C3.488,1.499 2.894,1.499 2.528,1.865 L1.865,2.528 C1.499,2.894 1.499,3.488 1.865,3.854 L2.806,4.796 C2.574,5.199 2.392,5.634 2.269,6.094 L0.938,6.094 ZM6.094,7.500 C6.094,8.277 6.723,8.906 7.500,8.906 C8.277,8.906 8.906,8.277 8.906,7.500 C8.906,6.723 8.277,6.094 7.500,6.094 C6.723,6.094 6.094,6.723 6.094,7.500 Z"/>
</svg>
