<?xml version="1.0" encoding="UTF-8"?>
<svg xmlns="http://www.w3.org/2000/svg" xmlns:xlink="http://www.w3.org/1999/xlink" width="128pt" height="128pt" viewBox="0 0 128 128" version="1.1">
<g id="surface477761">
<path style=" stroke:none;fill-rule:nonzero;fill:rgb(95.294118%,77.647059%,89.411765%);fill-opacity:1;" d="M 90.300781 94 L 90.300781 91 L 74.300781 91 L 79.398438 87.898438 C 85.800781 83.601562 90 76.300781 90 68 C 90 54.699219 79.300781 44 66 44 C 61.898438 44 58 45 54.699219 46.800781 L 21 67 C 11 71.800781 4 82.101562 4 94 C 4 110.601562 17.398438 124 34 124 L 84 124 L 124 94 Z M 90.300781 94 "/>
<path style=" stroke:none;fill-rule:nonzero;fill:rgb(79.215686%,61.176471%,76.470588%);fill-opacity:1;" d="M 127.601562 92.5 C 127.101562 91.5 126 91 124.800781 91 L 91.300781 91 C 89.800781 91 88.5 92 88.199219 93.398438 C 88 95.300781 89.398438 97 91.300781 97 L 116 97 L 84 121 L 35.601562 121 C 20.800781 121 8.300781 109.398438 8 94.601562 C 7.800781 85.199219 12.5 76.800781 19.699219 71.800781 C 20.699219 71.101562 21.800781 70.398438 23 69.898438 L 23.398438 69.699219 C 26.800781 68 30.800781 67 35 67 L 36.5 67 C 47.898438 67 57.601562 75.800781 58 87.199219 C 58.5 99.101562 48.898438 109 37 109 L 35.398438 109 C 27.601562 109 20.699219 103.101562 20 95.300781 C 19.199219 86.5 26.199219 79.101562 34.800781 79 C 36.398438 79 37.800781 77.800781 37.898438 76.199219 C 38 74.5 36.601562 73 34.898438 73 C 23.101562 73 13.5 82.898438 13.898438 94.800781 C 14.300781 106.199219 24 115 35.398438 115 L 37 115 C 42.398438 115 47.398438 113.398438 51.601562 110.699219 C 51.699219 110.699219 51.800781 110.601562 51.800781 110.601562 L 82 90.5 C 89.5 85.398438 94 77 94 68 C 94 53.101562 81.898438 41 67 41 C 62.601562 41 58.101562 42.101562 54.300781 44.199219 C 54.300781 44.199219 54.199219 44.199219 54.199219 44.300781 C 54.199219 44.300781 18.601562 65.398438 17.699219 66 C 8 71.898438 1.699219 82.800781 2 95 C 2.5 112.898438 17.699219 127 35.601562 127 L 85 127 C 85.601562 127 86.300781 126.800781 86.800781 126.398438 L 126.800781 96.398438 C 128 95.5 128.398438 93.898438 127.601562 92.5 Z M 56.199219 49.398438 C 59.199219 47.800781 62.601562 47 66 47 C 77.601562 47 87 56.398438 87 68 C 87 75 83.5 81.5 77.699219 85.398438 L 61.699219 96 C 62.5 93.5 62.898438 90.699219 62.898438 87.898438 C 62.898438 73.300781 51.199219 61.300781 36.699219 60.898438 Z M 56.199219 49.398438 "/>
</g>
</svg>
