<?xml version="1.0" encoding="UTF-8"?>
<svg xmlns="http://www.w3.org/2000/svg" xmlns:xlink="http://www.w3.org/1999/xlink" width="48pt" height="48pt" viewBox="0 0 48 48" version="1.1">
<g id="surface509046">
<path style=" stroke:none;fill-rule:nonzero;fill:rgb(61.960784%,22.745098%,63.529412%);fill-opacity:1;" d="M 7 36 C 7 40 10 43 14 43 C 17 43 18.5 41.898438 18.5 41.898438 C 19.800781 40.300781 21.199219 38.5 23 36.300781 C 23 36.300781 23 29 14 29 C 10 29 7 32 7 36 Z M 7 36 "/>
<path style=" stroke:none;fill-rule:nonzero;fill:rgb(96.078431%,62.352941%,89.019608%);fill-opacity:1;" d="M 42 17 C 42 15 42 14 42 12 C 42 8.199219 37 4 31 7 C 31 7 12.601562 26.398438 8.5 30.199219 C 8.5 30.199219 20 24 23 36.300781 L 24 43 Z M 42 17 "/>
<path style=" stroke:none;fill-rule:nonzero;fill:rgb(87.843137%,49.019608%,84.705882%);fill-opacity:1;" d="M 14 44 C 7.699219 44 6 38.800781 6 36.101562 C 6 33.300781 7.800781 28 14.5 28 C 20.398438 28 24 31.699219 24 38 L 24 41.898438 C 24 42.5 23.601562 42.898438 23 42.898438 C 22.398438 42.898438 22 42.5 22 41.898438 L 22 38 C 22 32.800781 19.300781 30 14.5 30 C 8.199219 30 8 35.5 8 36.101562 C 8 36.699219 8.199219 42 14 42 C 14.398438 42 18 41.800781 18 37 C 18 35.300781 16.699219 34 15 34 C 14.699219 34 12 34.101562 12 36.601562 C 12 38 12.800781 38 13 38 C 13.398438 38 14 37.800781 14 37 C 14 36.398438 14.398438 36 15 36 C 15.601562 36 16 36.398438 16 37 C 16 39.199219 14.199219 40 13 40 C 11.800781 40 10 39.101562 10 36.601562 C 10 33.5 12.601562 32 15 32 C 17.800781 32 20 34.199219 20 37 C 20 42.5 16.101562 44 14 44 Z M 14 44 "/>
<path style=" stroke:none;fill-rule:nonzero;fill:rgb(87.843137%,49.019608%,84.705882%);fill-opacity:1;" d="M 22 41 L 24 41 L 24 43 L 22 43 Z M 22 41 "/>
<path style=" stroke:none;fill-rule:nonzero;fill:rgb(85.882353%,50.980392%,80.392157%);fill-opacity:1;" d="M 32.800781 14.199219 C 34.300781 15.101562 36 16.800781 36 20 L 36 25.699219 L 39 21.398438 C 39.101562 17.699219 39.300781 13.398438 34.898438 10.800781 C 33.898438 10.199219 30.800781 9.300781 28.300781 9.898438 C 27.300781 11 26.101562 12.300781 24.699219 13.699219 C 27.199219 12.898438 30.601562 12.800781 32.800781 14.199219 Z M 29 35.800781 L 32 31.5 C 32 31.398438 32 30.101562 32 30.101562 C 31.898438 27.5 32 24.101562 28 21.199219 C 26.898438 20.398438 22.398438 18.5 18.800781 19.898438 C 17.601562 21.199219 16.398438 22.398438 15.199219 23.601562 C 18 22.101562 22.601562 22.199219 26.101562 24.800781 C 27.601562 25.898438 29 28.101562 29 31.800781 Z M 29 35.800781 "/>
</g>
</svg>
