<svg id="Layer_1" enable-background="new 0 0 512.007 512.007" height="512" viewBox="0 0 512.007 512.007" width="512" xmlns="http://www.w3.org/2000/svg"><path d="m271 160.004h1c4.418 0 8-3.582 8-8s-3.582-8-8-8h-1c-4.418 0-8 3.582-8 8s3.582 8 8 8z"/><path d="m511.929 101.162c-1.475-29.585-25.916-53.158-55.929-53.158-4.418 0-8 3.582-8 8v88h-144c-4.418 0-8 3.582-8 8s3.582 8 8 8h144v248c0 4.418 3.582 8 8 8 10.691 0 20.734 4.16 28.286 11.72 25.099 25.073 7.185 68.28-28.286 68.28h-328.055c19.45-14.607 32.055-37.858 32.055-64v-272h80c4.418 0 8-3.582 8-8s-3.582-8-8-8h-80v-64c0-44.112-35.888-80-80-80s-80 35.888-80 80v352c0 44.112 35.888 80 80 80h376c30.879 0 56-25.121 56-56 0-371.064.041-352.571-.071-354.842zm-495.929-21.158c0-35.29 28.71-64 64-64s64 28.71 64 64v304.056c-32.097-42.738-95.912-42.726-128 0zm0 352c0-35.29 28.71-64 64-64s64 28.71 64 64-28.71 64-64 64-64-28.71-64-64zm480-15.192c-9.058-9.192-20.214-14.571-32-16.246 0-12.702 0-195.311 0-335.768 15.565 3.145 28.139 15.535 31.247 31.422 1.037 5.296.753-15.8.753 320.592z"/><path d="m128 432.004c0-26.468-21.533-48-48-48s-48 21.532-48 48 21.533 48 48 48 48-21.533 48-48zm-80 0c0-17.645 14.355-32 32-32s32 14.355 32 32-14.355 32-32 32-32-14.356-32-32z"/><path d="m96 432.004c0-8.822-7.178-16-16-16s-16 7.178-16 16 7.178 16 16 16 16-7.178 16-16z"/><path d="m56 328.004c4.418 0 8-3.582 8-8v-256c0-4.418-3.582-8-8-8s-8 3.582-8 8v256c0 4.418 3.582 8 8 8z"/><path d="m104 328.004c4.418 0 8-3.582 8-8v-256c0-4.418-3.582-8-8-8s-8 3.582-8 8v256c0 4.418 3.582 8 8 8z"/></svg>