<?xml version="1.0" encoding="UTF-8" standalone="no"?>
<svg
   xmlns:dc="http://purl.org/dc/elements/1.1/"
   xmlns:cc="http://creativecommons.org/ns#"
   xmlns:rdf="http://www.w3.org/1999/02/22-rdf-syntax-ns#"
   xmlns:svg="http://www.w3.org/2000/svg"
   xmlns="http://www.w3.org/2000/svg"
   xmlns:sodipodi="http://sodipodi.sourceforge.net/DTD/sodipodi-0.dtd"
   xmlns:inkscape="http://www.inkscape.org/namespaces/inkscape"
   version="1.1"
   id="Capa_1"
   x="0px"
   y="0px"
   viewBox="0 0 189.99889 399.99766"
   xml:space="preserve"
   width="190"
   height="400"
   sodipodi:docname="yoga-bulk.svg"
   inkscape:version="0.92.2 5c3e80d, 2017-08-06"><metadata
     id="metadata15"><rdf:RDF><cc:Work
         rdf:about=""><dc:format>image/svg+xml</dc:format><dc:type
           rdf:resource="http://purl.org/dc/dcmitype/StillImage" /><dc:title></dc:title></cc:Work></rdf:RDF></metadata><defs
     id="defs13" /><sodipodi:namedview
     pagecolor="#ffffff"
     bordercolor="#666666"
     borderopacity="1"
     objecttolerance="10"
     gridtolerance="10"
     guidetolerance="10"
     inkscape:pageopacity="0"
     inkscape:pageshadow="2"
     inkscape:window-width="1280"
     inkscape:window-height="707"
     id="namedview11"
     showgrid="false"
     inkscape:zoom="0.921875"
     inkscape:cx="147.52542"
     inkscape:cy="256"
     inkscape:window-x="0"
     inkscape:window-y="1"
     inkscape:window-maximized="1"
     inkscape:current-layer="Capa_1" /><g
     transform="translate(7.593176,-56.355919)"
     id="g8"><path
       style="fill:#cf408c"
       d="M 176.624,143.528 C 174.188,94.784 132.699,57.249 83.955,59.685 35.211,62.121 -2.324,103.61 0.112,152.354 v 211.815 c 0,48.744 39.512,88.256 88.256,88.256 h 87.35978 L 176.183,143.528 Z"
       data-original="#CF408C"
       id="path2"
       inkscape:connector-curvature="0"
       sodipodi:nodetypes="cscssccc" /><path
       style="fill:#ff82cd"
       d="m 35.415,364.168 c 0,-29.248 23.706,-52.954 52.954,-52.954 29.248,0 52.954,23.706 52.954,52.954 h 35.302 c 0,-48.744 -39.512,-88.256 -88.256,-88.256 -48.744,0 -88.257,39.513 -88.257,88.256 0,48.743 39.512,88.256 88.256,88.256 l 87.35978,0.001 1e-5,-34.76063 L 88.368,417.122 C 59.120564,416.94042 35.415,393.408 35.415,364.168 Z"
       data-original="#FF82CD"
       id="path4"
       inkscape:connector-curvature="0"
       sodipodi:nodetypes="ssccsssccss" /><path
       style="fill:#ed61b5"
       d="m 88.368,275.912 c 48.744,0 88.256,39.512 88.256,88.256 V 152.354 c 0,-3.001 0,-5.913 -0.441,-8.826 v 0 C 171.311,95.031 128.048,59.658 79.551,64.53 34.443,69.058 0.103,107.025 0.112,152.354 v 211.815 c 0,-48.744 39.512,-88.257 88.256,-88.257 z"
       data-original="#ED61B5"
       class="active-path"
       id="path6"
       inkscape:connector-curvature="0" /></g></svg>