<?xml version="1.0"?>
<svg xmlns="http://www.w3.org/2000/svg" xmlns:xlink="http://www.w3.org/1999/xlink" version="1.1" id="Capa_1" x="0px" y="0px" viewBox="0 0 511.997 511.997" style="enable-background:new 0 0 511.997 511.997;" xml:space="preserve" width="512px" height="512px"><g transform="matrix(1 0 0 1 0 -55)"><path style="fill:#CF408C;" d="M176.624,143.528c-2.436-48.744-43.925-86.279-92.669-83.843S-2.324,103.61,0.112,152.354v211.815  c0,48.744,39.512,88.256,88.256,88.256h423.629V143.528H176.624z" data-original="#CF408C"/><path style="fill:#FF82CD;" d="M35.415,364.168c0-29.248,23.706-52.954,52.954-52.954s52.954,23.706,52.954,52.954h35.302  c0-48.744-39.512-88.256-88.256-88.256S0.112,315.425,0.112,364.168s39.512,88.256,88.256,88.256h423.629v-35.302H88.368  C59.12,417.122,35.415,393.408,35.415,364.168z" data-original="#FF82CD"/><path style="fill:#ED61B5;" d="M88.368,275.912c48.744,0,88.256,39.512,88.256,88.256V152.354c0-3.001,0-5.913-0.441-8.826l0,0  c-4.872-48.497-48.135-83.87-96.632-78.998c-45.108,4.528-79.448,42.495-79.439,87.824v211.815  C0.112,315.425,39.624,275.912,88.368,275.912z" data-original="#ED61B5" class="active-path"/></g> </svg>
