<svg id="Layer_1" enable-background="new 0 0 511.996 511.996" height="512" viewBox="0 0 511.996 511.996" width="512" xmlns="http://www.w3.org/2000/svg"><path d="m510.636 464.941c-1.844-5.206-5.361-9.48-9.86-12.316 9.856-19.962 2.76-44.75-18.254-56.245-12.927-6.895-18.985-5.437-57.487-5.437-4.673 0-9.11 1.118-13.035 3.099v-75.536c29.228-11.659 29.305-53.316 0-65.005v-66.869c7.486-10.603 11.734-23.274 19.254-33.051 8.612 4.549 18.224 6.93 28.176 6.93 15.753 0 28.57-12.561 28.57-28 0-35.802 1.643-43.194-5.642-56.048-11.173-19.552-36.097-27.577-57.227-17.783-10.933-16.395-36.765-13.593-43.444 5.315-4.147 11.771-8.534 19.781-3.282 30.551 4.2 8.612 12.852 13.571 21.887 13.608.269 2.735.738 5.429 1.398 8.08-10.896.122-21.248-4.145-28.843-11.74l-51.904-51.904c-8.89-8.907-13.943-20.939-13.943-33.65 0-4.418-3.582-8-8-8s-8 3.582-8 8c0 6.53.954 4.672-1.332 2.377-9.755-9.791-25.042-9.65-34.239-.627-9.646 9.456-9.509 24.717-.213 34.063l70.516 72.644-51.541 5.391c-6.943-4.68-23.149-13.587-37.642-13.587-12.685 0-27.837 7.395-38.81 13.86-161.141 0-150.597-.274-152.711.572l-40 16c-3.152 1.261-5.165 4.374-5.021 7.766.702 16.611 15.556 32.895 33.652 29.797.509-.086-1.379.396 22.679-5.951 68.153 12.076 63.313 11.267 64.332 11.267 3.807 0 7.182-2.729 7.868-6.607.77-4.351-2.133-8.501-6.483-9.271l-26.055-4.612v-22.962c113.396 0 105.536.578 108.449-1.351 4.338-2.947 21.842-12.509 32.101-12.509 9.164 0 21.241 6.066 27.45 10.026v19.834c0 4.418 3.582 8 8 8s8-3.582 8-8v-16.793c58.874-6.158 45.428-4.614 59.53-6.627 9.959 10.364 16.184 19.363 30.08 19.363 4.418 0 8-3.582 8-8s-3.582-8-8-8c-6.166 0-8.16-3.643-21.204-17.217-.037-.04-81.732-84.203-81.83-84.299-3.116-3.119-3.162-8.218.056-11.373 2.995-2.938 8.158-3.06 11.699.495 4.441 4.459 12.012 2.25 13.444-3.796 2.036 12.995 8.098 25.317 17.848 35.085l51.91 51.91c11.903 11.903 28.952 18.187 46.611 16.019 2.573 4.278 5.706 8.208 9.343 11.747 1.689 1.757.888-2.509-10.555 19.792-8.744 17.04-14.567 27.134-34.932 27.134-1.414 0-.637.368-5.142-.541-6.385-1.284 2.311-.899-94.857-.899-76.054 0-74.737.344-86.951-1.381-4.371-.617-8.422 2.427-9.041 6.802-.618 4.375 2.427 8.422 6.802 9.041 9.368 1.324 16.993 1.636 25.189 1.625v46.142c-.276 1.305-2.243 66.014-8.513 93.767-15.346 67.872-15.767 67.245-15.452 75.658.531 14.463-.184 27.089 10.706 40.347h-186.741c-4.418 0-8 3.582-8 8s3.582 8 8 8h360c21.814 0 28.895-12.34 47.782-15.332 9.615 8.606 21.659 13.798 34.594 14.958-.212 13.499 10.938 24.369 24.505 24.369 5.366 0 8.131-1.373 20.539-5.515 10.866-2.717 20.151-16.698 15.216-30.6zm-456.677-299.616c-24.924 6.576-23.211 6.275-25.129 6.275-4.683 0-9.479-4.256-11.651-9.596l32.361-12.944h30.46v20.128c-24.686-4.374-23.746-4.469-26.041-3.863zm411.815-84.794c-5.822 7.484-14.974 11.979-24.864 11.979-4.418 0-8 3.582-8 8s3.582 8 8 8c11.646 0 22.619-4.192 31.075-11.451.02 1.166.015-5.474.015 35.452 0 6.617-5.639 12-12.57 12-10.049 0-19.336-3.333-26.61-8.825l4.991-12.385c1.651-4.098-.333-8.759-4.431-10.41-4.098-1.649-8.759.333-10.41 4.431l-1.939 4.812c-3.275-5.973-5.016-12.573-5.029-19.55 6.524-5.351 7.51-10.79 11.755-22.832.573-1.613.947-3.273 1.158-4.955 11.917-7.356 27.748-5.116 36.859 5.734zm-72.988 7.002c-1.819-3.732-.49-5.5 3.989-18.215 3.011-8.521 16.345-6.486 16.345 2.545 0 1.71-.007 1.303-4.779 14.841-2.431 6.897-12.4 7.298-15.555.829zm23.451 190.47h-24.237c-6.617 0-12-5.383-12-12v-59.967c5.572-.684 11.075-2.235 16-4.836v58.273c0 3.852 2.744 7.156 6.53 7.864 6.178 1.154 11.19 5.243 13.707 10.666zm-52.535-72.358c.446.09.298-4.555.298 60.357 0 7.829 3.234 14.914 8.431 20-5.197 5.086-8.431 12.171-8.431 20v90.811c-8.022-4.491-16.727-7.753-28-7.753-14.633 0-19.475 2.869-24.718 6.921-4.423 3.419-10.993 8.49-55.282 9.031 0-6.631 0-162.27 0-170.359l17.639-6.45c9.757-3.569 18.069-13.063 21.115-23.143 72.325 0 64.789-.251 68.948.585zm-86.346-.585c-2.252 3.631-5.673 6.821-9.214 8.116l-22.89 8.37c-3.154 1.154-5.252 4.155-5.252 7.514v15.972c-4.309-.015-12.439-.043-16-.055v-39.852c54.501-.073 45.77-.065 53.356-.065zm90.644 256c-18.308 0-121.314 0-141.591 0-15.418-1.907-25.341-12.857-25.935-28.664-.772-21.052-2.569-7.794 14.619-83.814 5.227-23.139 7.634-69.078 8.42-87.522h16.487v176c0 4.418 3.582 8 8 8s8-3.582 8-8v-16.049c49.861-.62 58.258-7.108 65.067-12.371 2.888-2.232 4.631-3.58 14.933-3.58 11.018 0 18.59 4.326 28.032 10.573.322 4.123 3.762 7.37 7.968 7.37 4.418 0 8-3.582 8-8 0-10.001 0-93.545 0-109 0-6.617 5.383-12 12-12h24.237c-2.518 5.422-7.528 9.511-13.707 10.666-3.786.708-6.53 4.012-6.53 7.864 0 111.505-.221 102.861.497 104.814-.572 8.844 1.914 20.548 7.912 30.617-15.395 4.708-22.341 13.096-36.409 13.096zm77.312-18.329c-1.773-4.046-6.492-5.89-10.539-4.115l-13.356 5.855c-6.687-8.378-9.567-19.214-8.956-26.272.6-6.854 6.361-11.256 12.573-11.256 39.865 0 34.995-.006 36.383.01-7.24 8.207-11.415 18.771-11.415 29.99 0 4.418 3.582 8 8 8s8-3.582 8-8c0-9.591 4.732-18.487 12.596-24.104 11.521 8.862 13.884 24.571 5.727 36.213-1.598.204-3.177.549-4.707 1.063-12.573 4.197-17.526 5.037-22.885 10.829-7.804 0-14.718-1.478-21.52-5.05l5.983-2.623c4.047-1.776 5.889-6.494 4.116-10.54zm49.911 33.431c-1.985 4.075-4.92 4.218-17.548 8.434-7.437 2.491-14.053-5.127-10.178-11.515 2.068-3.422 4.359-3.509 17.205-7.797 6.986-2.347 13.647 4.461 10.521 10.878z"/><path d="m152.091 198.207c4.342.774 8.503-2.123 9.276-6.477.773-4.351-2.127-8.503-6.477-9.276l-1.52-.27c-4.356-.778-8.503 2.127-9.276 6.477-.773 4.351 2.127 8.503 6.477 9.276z"/></svg>