<svg id="Layer_1" enable-background="new 0 0 512.159 512.159" height="512" viewBox="0 0 512.159 512.159" width="512" xmlns="http://www.w3.org/2000/svg"><path d="m370.028 226.714 44.695-11.438c3.337 5.238 9.775 14.244 14.669 18.966 2.006 1.908 1.006-2.724-11.446 21.553-.7 1.354.164-.543-2.171-5.68-2.555-5.684-7.224-10.462-13.257-12.982-19.807-8.273-20.847 13.561-9.114 14.106 4.609.214 8.65 4.387 8.65 9.577 0 3.839.001 15.308.001 76.479 0 4.418 3.582 8 8 8 49.635 0 51.573 3.052 74.07-19.446 3.125-3.124 3.125-8.189.001-11.313s-8.189-3.125-11.313 0c-17.222 17.22-15.481 14.76-54.758 14.76v-43.706c10.993-12.192 15.586-28.865 25.269-41.228 9.228 4.959 19.559 7.555 30.261 7.555 16.535 0 29.988-13.179 29.988-29.379 0-38.885 1.638-46.165-5.98-59.676-12.495-21.491-39.186-28.88-60.901-18.529-11.356-17.714-38.689-14.69-45.696 5.146l-4.625 13.139c-5.793 16.389 6.695 33.595 24.501 33.313.111 1.241.258 2.474.445 3.7l-45.257 11.583c-4.28 1.095-6.862 5.453-5.767 9.733 1.096 4.28 5.454 6.863 9.735 5.767zm111.039-59.758c-6.283 8.305-16.383 13.375-27.28 13.375-4.418 0-8 3.582-8 8s3.582 8 8 8c12.186 0 24.233-4.328 33.738-12.852.069 1.168.048-1.758.048 39.059 0 7.377-6.275 13.379-13.988 13.379-11.025 0-21.073-3.648-29.016-9.723-.149-.113-.508.939 5.393-13.707 1.651-4.098-.332-8.759-4.43-10.411-4.102-1.65-8.76.333-10.41 4.43l-2.504 6.214c-3.884-6.672-6.011-14.155-6.011-22.426 2.979-2.391 5.551-5.641 7.209-9.325.053-.118 6.107-15.63 6.66-20.503 12.968-8.131 30.611-5.755 40.591 6.49zm-79.607.984 4.625-13.14c3.289-9.311 17.572-7.66 18.515 2.085.082 1.335-.017 2.43-.475 3.73-4.755 13.493-4.802 16.001-9.178 18.26-7.479 3.849-16.265-3.069-13.487-10.935z"/><path d="m336.048 235.146c6.574 0 10.355-5.205 9.087-10.272-1.07-4.286-5.408-6.891-9.701-5.821l-1.32.33c-9.107 2.277-7.443 15.763 1.934 15.763z"/><path d="m509.488 365.577c8.343-16.696-3.879-36.284-22.467-36.284-4.418 0-8 3.582-8 8s3.582 8 8 8c2.435 0 4.727.948 6.435 2.65 5.707 5.728 1.66 15.557-6.435 15.557h-76.966c-14.45 0-26.206-11.756-26.206-26.207 0-14.444 0-46.409 0-60.686 0-4.425-3.593-8.004-8.005-8.004-4.418 0-8 3.582-8 8v6.948c-1.394-.039 5.225-.776-95.461 11.576l-179.288 16.306v-19.955c113.252-43.56 106.442-40.823 107.624-41.608 7.496-4.866 24.368-13.466 34.616-13.466 10.023 0 23.269 6.707 29.89 10.969v21.271c0 4.418 3.582 8 8 8s8-3.582 8-8v-19.21l25.967-6.648c3.582-.793 6.259-3.989 6.259-7.811 0-4.418-3.587-8-8.005-8-1.439 0 .45-.373-30.609 7.579-7.594-5.037-24.444-14.15-39.501-14.15-8.612 0-19.181 3.176-31.409 9.436-20.349 10.394 13.226-3.221-121.138 48.46l-63.007 14c-11.574 2.573-19.657 12.65-19.657 24.506 0 29.824-1.418 36.668 5.32 47.164-8.415 2.996-6.288 15.53 2.68 15.53h496c7.32 0 10.763-9.03 5.363-13.923zm-493.364-48.771c0-4.299 2.932-7.954 7.128-8.887l53.842-11.965v17.676l-36.332 7.266c-3.167.633-5.643 3.109-6.276 6.276l-7.031 35.157c-6.621-2.549-11.331-8.977-11.331-16.484zm27.414 46.694 5.592-27.96c49.431-9.886 6.628-4.645 224.818-24.489.772-.07 93.464-11.512 93.9-11.472v37.714c0 9.897 3.433 19.002 9.158 26.207-7.804 0-297.614 0-333.468 0z"/></svg>