<svg id="Layer_1" enable-background="new 0 0 512.028 512.028" height="512" viewBox="0 0 512.028 512.028" width="512" xmlns="http://www.w3.org/2000/svg"><path d="m221.517 167.445c3.087 0 4.558-1.466 7.753-3.576 3.686-2.436 4.7-7.398 2.265-11.085s-7.399-4.7-11.085-2.265c-1.147.758-2.285 1.526-3.433 2.306-6.536 4.436-3.314 14.62 4.5 14.62z"/><path d="m504 372.014h-68.399c-1.395-6.922-4.579-13.396-9.312-18.741-8.14-9.231-17.333-12.373-28.035-13.708v-66.996c26.944 21.216 67.979 9.022 79.364-24.811 22.593 5.655 41.603-17.982 31.742-38.618-6.395-13.344-9.244-23.3-22.104-27.729-10.636-3.663-22.017-.352-29.307 7.637-18.635-15.982-44.382-20.103-67.279-11.751-13.462-17.275-46.411-53.283-86.979-53.283-17.474 0-36.096 3.817-53.854 11.04-4.093 1.665-6.062 6.332-4.397 10.425 1.665 4.092 6.332 6.062 10.424 4.396 15.862-6.451 32.4-9.861 47.826-9.861 34.691 0 64.913 34.883 75.167 48.175.021.318.124 1.073.314 1.715 3.955 13.456 3.083-30.646 3.083 156.725 0 4.036 3.005 7.439 7.01 7.938l9.75 1.216c9.462 1.183 17.092 7.7 20.049 16.23h-47.886c-6.108 0-11.077-4.969-11.077-11.077 0-24.17 0-155.418 0-162.69 0-4.429-3.588-8.003-8-8.003s-8 3.574-8 8.003v12.023l-14.576 9.832c-19.395 5.491-36.408-18.142-41.005-20.587-15.043-13.191-39.754 11.877-53.053 26.835-17.712-11.807-9.001-6-43.925-29.283 3.575-4.103 7.272-8.016 11.048-11.69 3.167-3.082 3.236-8.146.154-11.313-3.081-3.167-8.146-3.235-11.313-.154-6.126 5.961-12.045 12.496-17.612 19.42-2.878 2.776-20.23 19.972-25.809 36.131-3.497 10.128-4.018 24.179-1.359 36.671 5.463 25.672 17.11 27.397 22.635 63.846l-91.724 12.947c-4.487-5.64-11.369-9.065-18.788-9.065-6.154 0-7.042.968-36.032 12.564-13.815 5.527-22.741 18.712-22.741 33.591 0 4.418 3.582 8 8 8h496c4.418 0 8-3.582 8-8s-3.582-8-8-8zm-15.789-169.979 6.715 14.012c5.247 10.98-8.87 21.876-17.962 13.807-.996-.921-1.823-1.919-2.517-3.369-6.634-13.852-9.069-16.711-7.211-22.319 3.126-9.745 16.615-11.255 20.975-2.131zm-80.061-12.569 6.693 15.726c1.723 4.049 6.413 5.97 10.497 4.231 4.065-1.73 5.959-6.428 4.229-10.494l-3.648-8.574c9.173 2.07 17.616 6.597 24.51 13.49.556.557.474.342.399 1.063-.532 5.156.427 10.172 2.477 14.474 6.472 13.513 7.461 16.165 10.194 19.482-3.791 17.576-20.579 30.244-38.935 27.967-1.947-12.325 2.359-24.797 11.118-33.548 3.137-3.134 3.116-8.205 0-11.32-3.124-3.124-8.189-3.124-11.313 0-10.46 10.459-16.025 24.246-16.272 38.014-2.006-1.586-2.486-2.173-9.845-9.532 0-54.978.333-53.839-.869-58.556 3.507-1.181 7.143-1.993 10.765-2.423zm-130.017 22.355c1.077 2 2.541 3.418 4.776 4.128 8.412 8.487 28.676 27.024 52.642 19.034 1.38-.46 1.411-.598 8.549-5.413 0 142.202-.94 135.073 2.379 142.444h-117.363c4.241-5.508 7.125-12.136 8.09-19.415 7.233-55.453 5.139-45.347 7.61-112.624 5.972-6.978 24.892-27.418 33.317-28.154zm-249.449 149.459c29.534-11.813 27.966-11.419 30.089-11.419 3.167 0 6.041 1.873 7.321 4.771 1.28 2.897 4.148 4.766 7.315 4.767 2.712.001-2.878.678 50.591-6.869v19.485h-106.365c2.062-4.803 5.961-8.7 11.049-10.735zm111.316 10.734v-21.743l39.368-5.557c4.291-.605 7.319-4.517 6.831-8.822-5.289-46.661-18.968-49.918-23.899-73.089-2.024-9.512-1.689-20.812.834-28.119 2.991-8.661 11.616-19.142 17.617-25.577 11.781 7.854 35.047 23.362 48.013 32.006-2.348 64.742-.403 56.026-7.4 109.244 10.462 1.376 10.696 1.36-.017.13-1.626 12.273-12.191 21.528-24.576 21.528h-56.771z"/></svg>