<svg id="Layer_1" enable-background="new 0 0 512.001 512.001" height="512" viewBox="0 0 512.001 512.001" width="512" xmlns="http://www.w3.org/2000/svg"><path d="m335.201 369.982 70.463-118.276 31.952-32.401c13.392 7.103 30.926 2.677 38.835-11.577 35.946-64.783 35.551-62.083 35.551-70.04 0-19.039-22.246-29.824-35.365-18.463-118.836 103.71-89.458 78.031-127.55 111.435-5.216-21.564-34.316-27.009-34.316-12.657 0 4.418 3.582 8 8 8 2.961 0 5.749 1.153 7.83 3.227 7.037 7.063 1.905 18.927-8.318 18.927h-190.283c-4.418 0-8 3.582-8 8s3.582 8 8 8h44.685l69.879 61.144-6.685 17.815c-3.19 8.505 8.053 14.779 13.688 7.861 1.16-1.42.75-.794 9.217-23.36l116.061-101.773c8.684 15.997 6.104 11.245 11.252 20.729-73.892 124.03-69.176 115.985-69.574 117.017-.582 1.518-14.665 37.187-48.523 37.187-30.946 0-32.176 2.568-38.01-6.035-3.454-5.083-72.547-46.97-101.388-74.11-3.218-3.029-8.28-2.874-11.309.343-3.027 3.217-2.874 8.28.344 11.308 18.405 17.321 27.481 22.507 94.484 68.891h-208.121c-4.418 0-8 3.582-8 8s3.582 8 8 8h496c4.418 0 8-3.582 8-8s-3.582-8-8-8h-191.062c13.944-12.165 20.789-27.58 22.263-31.192zm151.931-238.681c2.411-2.087 8.869.648 8.869 6.376 0 2.722 1.895-1.574-33.541 62.289-4.112 7.409-14.115 8.949-20.261 3.098-3.164-3.011-8.149-2.93-11.213.177l-29.801 30.219-10.001-18.424zm-176.245 132.856-54.892 48.135-55.012-48.135z"/><path d="m100.458 294.78c-3.732 2.365-4.84 7.308-2.476 11.04.578.912 1.146 1.79 1.715 2.613 2.496 3.617 7.476 4.559 11.128 2.038 3.637-2.51 4.549-7.493 2.038-11.129-.453-.657-.904-1.359-1.365-2.086-2.365-3.733-7.307-4.841-11.04-2.476z"/><path d="m28.835 163.536c1.898 24.757 17.435 45.802 39.534 56.012 2.503 17.393 7.934 37.608 15.172 56.272 1.229 3.168 4.255 5.109 7.461 5.109 5.615 0 9.489-5.656 7.457-10.895-5.776-14.894-10.317-30.768-12.99-45.129 10.354 1.83 18.935 1.694 27.007-2.274 10.004 3.999 6.49 3.398 18.605 3.315.77.088-2.329.057 145.629.057 20.758 0 29.742-8.985 42.178-21.42 3.124-3.124 3.124-8.189-.001-11.313-3.124-3.126-8.189-3.123-11.313 0-11.489 11.49-16.733 16.734-30.863 16.734-173.515 0-147.414-.045-150.566-.023 5.696-9.696 4.317-13.822 4.317-57.554 0-36.398-39.559-61.42-74.018-44.314-11.84-19.747-42.051-16.944-49.753 4.863-4.914 13.958-9.939 23.011-3.979 35.237 4.921 10.09 15.296 15.818 26.123 15.323zm78.606-31.4c-7.393 10.144-19.23 15.867-31.587 15.867-4.418 0-8 3.582-8 8s3.582 8 8 8c14.784 0 28.479-5.819 38.385-15.376.318 2.71.223.548.223 45.53 0 8.738-7.413 15.846-16.525 15.846-12.904 0-24.563-4.422-33.592-11.55l6.387-15.853c2.15-5.334-1.873-11.089-7.554-10.992-3.119.053-6.048 1.938-7.286 5.012l-3.481 8.64c-5.042-7.971-7.795-17.164-7.795-26.873 0-.786-.095-.576.472-1.037 3.98-3.234 6.861-7.418 8.482-11.984 5.118-14.527 6.161-16.779 6.567-20.984 15.128-9.761 35.947-6.818 47.304 7.754zm-90.823.817 5.16-14.657c1.633-4.623 6.116-7.525 10.927-7.525 7.845 0 13.489 7.386 10.934 14.626-5.205 14.774-5.422 17.885-10.129 20.579-9.507 5.372-20.256-3.501-16.892-13.023z"/></svg>