<svg id="Layer_1" enable-background="new 0 0 511.949 511.949" height="512" viewBox="0 0 511.949 511.949" width="512" xmlns="http://www.w3.org/2000/svg"><path d="m503.949 231.888c-13.015 0-24.464 8.866-27.641 21.581l-2.948 11.799-112.482-27.629c-4.291-1.058-8.624 1.57-9.677 5.861-1.054 4.291 1.57 8.624 5.861 9.677l58.888 14.465v28.246h-113.408c5.563-15.361-5.849-32-22.593-32-4.418 0-8 3.582-8 8s3.582 8 8 8c4.47 0 8.034 3.614 8 8.066-.035 4.375-3.807 7.934-8.41 7.934-161.087 0-153.452.508-163.944-1.297-2.192-1.429-3.646-3.897-3.646-6.703 0-10.591-16.429-10.944-15.977.924-6.312-2.698-10.031-5.059-14.451-7.71 7.675-4.131 14.404-9.957 19.824-17.491 13.8-1.369 20.514-7.916 25.986-13.286 6.497-6.378 7.317-6.113 11.519-7.784 21.677-8.635 30.222 5.348 52.418 5.348.805 0-2.634.451 48.68-6.792v22.792h-120c-4.418 0-8 3.582-8 8s3.582 8 8 8c131.977 0 124.041.254 129.342-.612 12.561-2.112 19.379-8.796 28.315-17.732 3.125-3.124 3.125-8.189 0-11.313-3.124-3.124-8.189-3.124-11.313 0-4.15 4.15-7.254 7.248-10.343 9.44v-19.704c13.146.233 26.349 1.032 39.354 2.397 4.403.463 8.33-2.726 8.792-7.121.461-4.394-2.727-8.33-7.121-8.792-16.2-1.701-32.695-2.564-49.025-2.564-.873 0 2.607-.447-57.215 7.996-16.491-.234-30.477-14.897-57.487-4.333-11.754 3.656-16.403 11.733-22.604 16.247 1.288-4.956 1.954-10.1 1.954-15.34 0-15.753-12.561-28.57-28-28.57h-35c-31.169 0-52.542 33.329-38.821 62.889-16.551 11.058-13.457 36.798 5.304 43.427 12.35 4.347 15.006 5.69 20.185 5.69 13.036 0 23.907-10.685 23.964-24.297.295-.029.592-.046.886-.08 17.617 10.57 28.559 18.294 49.294 22.388 6.958 3.026-17.219 1.982 377.539 1.982 13.233 0 24-10.767 24-24v-48c.001-4.418-3.58-7.999-7.999-7.999zm-471.343-9.765c7.666 5.966 11.991 15.213 11.991 24.854 0 4.418 3.582 8 8 8s8-3.582 8-8c0-8.328-2.152-16.714-6.544-24.226-3.522-6.012-5.479-6.864-4.456-6.864h35c6.617 0 12 5.639 12 12.57 0 10.14-3.403 19.44-8.821 26.612l-12.389-4.992c-3.182-1.281-6.696-.365-8.885 2.023-3.786 4.131-2.253 10.739 2.905 12.818l4.818 1.941c-8.829 4.843-19.218 5.432-19.647 4.914-2.369-2.852-5.158-4.91-8.144-6.339-1.12-.536-15.285-5.951-19.597-6.488-7.239-11.773-5.144-27.651 5.769-36.823zm1.087 73.319-12.292-4.327c-9.919-3.505-5.045-19.476 5.097-15.902 12.477 4.396 14.595 4.47 16.569 7.92 3.85 6.813-2.361 14.784-9.374 12.309zm462.256-7.554c0 4.411-3.589 8-8 8h-56v-24.316l45.332 11.135c4.278 1.052 8.602-1.555 9.669-5.83 5.063-20.262 4.826-22.619 8.999-26.091z"/><path d="m325.054 246.472c.346.062.443.077 1.541.264 4.369.773 8.505-2.15 9.272-6.483.771-4.351-2.132-8.502-6.483-9.272l-1.5-.257c-4.349-.78-8.508 2.11-9.289 6.459-.781 4.348 2.111 8.507 6.459 9.289z"/></svg>