<svg id="Layer_1" enable-background="new 0 0 512.014 512.014" height="512" viewBox="0 0 512.014 512.014" width="512" xmlns="http://www.w3.org/2000/svg"><path d="m504.007 496.014h-97.802c6.869-10.259 8.112-23.144 3.209-34.555-1.744-4.06-6.449-5.935-10.508-4.193-4.06 1.744-5.938 6.448-4.193 10.508 2.139 4.979 2.214 10.5.221 15.518-6.747 16.82-30.403 17.017-37.787-.172-35.135-81.808-76.14-177.284-111.339-259.242-1.743-4.059-6.446-5.936-10.508-4.193-4.06 1.744-5.937 6.448-4.193 10.508l10.905 25.392h-4.715c-21.032 0-42.198-33.962-50.45-51.919-11.909-25.927-47.58-73.382-55.84-84.23v-55.422c0-4.418-3.582-8-8-8s-8 3.582-8 8c0 62.863-.038 57.96.07 58.974l-25.779 205.122h-57.209c.003-83.203.01-192.954.028-245.027.039-35.379 28.614-64.201 64.219-64.239 28.552-.032 27.155.04 28.304-.198 1.605-.334 3.057-1.173 4.116-2.27 38.826-3.57 65.68 20.58 88.912 47.215 2.903 3.33 7.958 3.675 11.287.771 3.33-2.904 3.675-7.958.771-11.287-30.339-34.785-62.106-58.53-107.851-51.99-1.494.214-2.841.833-3.94 1.735l-21.616.024c-44.726.047-80.156 36.324-80.202 80.228-.043 129.355-.003 324.465-.07 392.612-.009 7.354 2.158 14.373 6.191 20.33h-14.231c-4.418 0-8 3.582-8 8s3.582 8 8 8h496c4.418 0 8-3.582 8-8s-3.582-8-8-8zm-310.175-250.862c23.256 28.708 39.351 26.432 55.052 26.432 101.505 236.344 94.032 219.819 97.232 224.43h-201.706c-3.208-17.311-16.159-30.77-32.763-34.911l-22.238-5.56 39.27-312.475c13.725 18.679 35.353 49.259 43.629 67.277 1.461 3.179 9.365 19.797 21.524 34.807zm-141.505 250.862c-11.217 0-20.294-9.083-20.28-20.312.052-52.218.038-19.209.042-131.592h55.199l-14.638 116.476c-.505 4.017 2.07 7.777 5.997 8.759l29.125 7.281c9.496 2.368 17.317 9.598 20.219 19.388z"/><path d="m333.718 180.146c-11.84 15.354-18.714 33.513-20.323 52.495l-1.213 2.424-14.393-33.512c-1.743-4.059-6.445-5.938-10.508-4.193-4.06 1.744-5.938 6.448-4.193 10.508 129.863 302.369 66.559 154.974 84.675 197.155 11.514 26.811 27.519 33.198 51.744 42.867 4.121 1.643 8.765-.377 10.396-4.465 1.638-4.104-.36-8.758-4.464-10.396-22.688-9.055-34.076-13.6-42.975-34.321l-52.472-122.174c7.314 5.756 16.459 9.19 26.379 9.19h61.876c53.277 0 87.576-59.357 60.489-107.482 29.591-13.881 27.519-57.656-3.275-68.535l-21.736-7.652c-25.801-9.115-51.771 13.007-47.73 40.449-22.92.809-44.326 9.859-61.091 25.393-30.659-15.177-54.354-40.657-73.612-63.852-2.824-3.399-7.867-3.866-11.266-1.044s-3.867 7.866-1.045 11.265c19.511 23.496 43.441 49.268 74.737 65.88zm88.984-50.059c2.957-8.808 10.913-14.079 19.131-14.079 4.447 0 4.826.521 28.307 8.787 10.643 3.76 16.295 15.761 12.6 26.756-2.614 7.793-9.432 13.284-17.387 14.012-5.853.348-6.603-.468-30.022-8.718-10.576-3.753-16.367-15.673-12.629-26.758zm-10.391 28.348c3.69 5.292 8.87 9.65 14.922 12.378 2.863 1.288 25.227 9.051 26.786 9.488 2.476.696 5.124 1.15 7.853 1.283.426.021 10.251 13.749 10.251 32.496 0 19.389-9.52 36.256-23.73 46.123-17.211-11.288-27.449-30.747-27.449-51.586 0-4.418-3.582-8-8-8s-8 3.582-8 8c0 23.633 10.521 45.222 27.061 59.262-9.405 2.566-9.172 1.845-75.633 1.845-15.086 0-27.358-12.725-27.358-28.366 0-20.09 6.951-39.266 19.797-54.452l26.14 10.533c4.103 1.649 8.76-.333 10.41-4.431 1.651-4.098-.332-8.759-4.43-10.41l-19.424-7.827c16.546-12.707 33.254-16.336 50.804-16.336z"/><path d="m238.859 89.312c2.775 3.456 7.811 3.988 11.247 1.23 3.445-2.766 3.996-7.801 1.23-11.247-.367-.458-.735-.915-1.109-1.372-4.613-6.056-14.369-2.822-14.369 4.85-.001 3.153 1.555 4.741 3.001 6.539z"/></svg>