<svg id="Layer_1" enable-background="new 0 0 512.014 512.014" height="512" viewBox="0 0 512.014 512.014" width="512" xmlns="http://www.w3.org/2000/svg"><path d="m512.014 193.091v-56.21c0-48.214-53.52-80.34-98.043-55.972-13.354-26.804-53.299-24.485-63.276 3.758l-6.951 19.745c-8.336 23.592 11.49 47.561 36.736 44.44.645 14.488 4.845 28.354 12.51 40.969h-65.656c-4.418 0-8 3.582-8 8s3.582 8 8 8h72.34c10.62 0 19.26 8.636 19.26 19.25 0 4.418 3.582 8 8 8 4.138 0 7.542-3.142 7.957-7.171 11.885 5.034.997-3.557 23.12 44.889 7.148 15.652 12.313 26.96 12.313 43.332 0 14.714-12.789 23.047-37.297 37.703-10.623 6.354-11.455 6.64-12.749 8.579-.462.692-44.652 65.272-141.713 72.808h-47.61c-76.296-3.88-146.867-23.79-201.308-76.54-19.729-19.089-17.843-51.442 4.228-68.221l37.948-28.835 37.453 35.46c-9.268 9.268-18.853 18.852-28.545 28.536-3.715 3.711-2.902 9.947 1.643 12.581 20.011 11.599 40.459 18.953 60.778 21.858 4.44.635 3.948-1.109 21.749-10.208 15.298-7.832 28.463-11.971 38.074-11.971 18.699 0 41.908 15.24 48.93 20.173v45.167c0 4.418 3.582 8 8 8s8-3.582 8-8v-43.96c17.332-10.352 84.249-52.235 111.01-96.923h5.1c4.418 0 8-3.582 8-8s-3.582-8-8-8h-172.19c-26.992 0-52.369 10.511-71.455 29.598-5.056 5.056-1.405 13.657 5.657 13.657 2.047 0 4.095-.781 5.657-2.343 16.063-16.064 37.422-24.911 60.141-24.911h147.922c-26.831 37.114-82.089 72.281-98.875 82.461-9.089-6.376-34.887-22.918-57.897-22.918-19.438 0-43.705 11.947-60.396 21.902-14.276-2.367-28.675-7.202-42.957-14.42 15.093-15.085 18.781-18.779 26.641-26.635 3.23-3.23 3.218-8.549-.807-12.356l-40.722-38.556 13.258-10.074c5.699 12.437 18.175 20.599 32.074 20.599 4.418 0 8-3.582 8-8s-3.582-8-8-8c-10.495 0-19.26-8.512-19.26-19.26 0-10.558 8.552-19.25 19.26-19.25h134.63c4.418 0 8-3.582 8-8s-3.582-8-8-8h-34.847c1.2-5.256 1.168-10.788-.224-16.08-14.09-68.421-13.158-63.933-13.261-64.311-6.128-22.52-34.278-29.963-50.772-13.478-2.824 2.82-1.595-1.36-10.976 80.657l-17.385 13.212h-7.166c-18.716 0-33.566 14.415-35.116 32.127-72.999 55.469 2.873-2.184-70.756 53.764-30.013 22.819-32.326 66.665-5.675 92.454 32.465 31.456 70.154 52.184 113.103 65.045h-123.607c-4.418 0-8 3.582-8 8s3.582 8 8 8c288.835 0 227.142.72 251.89.72 23.797 0-56.295-.72 244.11-.72 4.418 0 8-3.582 8-8s-3.582-8-8-8h-155.486c36.787-14.878 67.225-39.346 83.988-62.405 28.984-17.656 53.808-29.433 53.808-56.685 0-30.312-14.54-46.026-26.771-81.629 3.769.461 7.58.719 11.431.719 22.624 0 41.03-17.998 41.03-40.121zm-341.891-11.27 8.714-76.181c7.894-5.564 19.258-1.833 22.028 7.777 14.09 68.421 13.148 63.884 13.249 64.262 1.101 4.051.686 8.382-1.067 12.143h-49.374c3.263-2.48 5.984-3.932 6.45-8.001zm317.086-72.311c-10.241 15.307-27.623 24.192-45.975 24.192-4.418 0-8 3.582-8 8s3.582 8 8 8c20.085 0 39.591-8.33 53.233-23.523 2.094-2.337 1.547 23.682 1.547 66.913 0 13.3-11.229 24.12-25.03 24.12-9.839 0-19.383-1.821-28.375-5.413-21.1-10.601-11.452-5.987-19.737-13.24l8.892-22.067c1.651-4.098-.332-8.759-4.43-10.411-4.103-1.651-8.76.333-10.41 4.43l-6.619 16.426c-9.16-12.396-13.921-26.855-13.921-42.025 0-3.026-.526-1.708 2.052-3.846 3.86-3.234 7.155-7.495 9.301-12.448.179-.413 8.246-22.122 9.129-26.788.262-1.378.456-2.834.535-4.283 22.431-15.375 53.967-10.372 69.808 11.963zm-128.376.223 6.951-19.745c2.601-7.36 9.72-11.986 17.345-11.986 9.427 0 17.418 6.952 18.268 16.146 0 5.832.446 3.341-6.471 22.971-1.693 4.798-2.934 9.821-9.448 13.54-14.251 8.305-32.203-5.19-26.645-20.926z"/><path d="m295.335 205.821h1.359c4.418 0 8-3.582 8-8s-3.582-8-8-8h-1.359c-4.418 0-8 3.582-8 8s3.582 8 8 8z"/></svg>