<svg id="Layer_1" enable-background="new 0 0 512.056 512.056" height="512" viewBox="0 0 512.056 512.056" width="512" xmlns="http://www.w3.org/2000/svg"><path d="m504.028 496.056h-177.162c-2.78-9.527-10.396-17.136-20.417-19.641l-14.135-3.534c13.121-97.19 21.35-132.964 11.717-193.404.096-44.738 9.261-73.278 24.018-110.277 1.637-4.104-.363-8.758-4.467-10.395-4.104-1.636-8.758.362-10.395 4.467l-4.835 12.122c-15.517 32.976-22.337 90.129-20.244 105.733 8.406 61.717 2.89 81.918-6.427 150.928h-17.653v-104c0-4.418-3.582-8-8-8s-8 3.582-8 8v104h-17.653c-7.43-55.036-14.933-90.559-7.462-144h33.115c4.418 0 8-3.582 8-8s-3.582-8-8-8h-32.109c-1.521-55.511-18.4-92.806-20.215-96.662l-59.057-147.987c-1.709-4.273.198-9.098 4.244-10.753 4.171-1.703 8.836.362 10.45 4.433 1.629 4.108 6.279 6.116 10.386 4.487 14.191-5.628-4.63-32.816-26.889-23.731-12.152 4.971-18.006 19.104-13.051 31.498 62.02 155.412 59.185 148.337 59.374 148.732.189.39 18.74 39.526 18.863 97.406-9.642 60.494-1.437 95.969 11.717 193.404l-14.135 3.534c-10.021 2.505-17.637 10.115-20.417 19.641h-177.161c-4.418 0-8 3.582-8 8s3.582 8 8 8h496c4.418 0 8-3.582 8-8s-3.582-8.001-8-8.001zm-273.46-9.389c3.954-.989 6.533-4.792 5.987-8.832l-4.02-29.78h15.493v48h-45.109c3.616-4.34 6.896-4.199 27.649-9.388zm33.46 9.389v-48h15.493l-4.02 29.78c-.546 4.04 2.033 7.843 5.987 8.832 21.947 5.487 24.169 5.211 27.649 9.389h-45.109z"/><path d="m342.329 25.573c4.107 1.629 8.757-.38 10.386-4.487.784-1.978 2.301-3.534 4.257-4.377 6.605-2.832 13.212 3.759 10.436 10.704l-32.639 81.778c-1.639 4.103.36 8.758 4.464 10.396 4.094 1.636 8.754-.353 10.396-4.464l32.639-81.776c4.957-12.4-.896-26.533-13.055-31.506-22.229-9.073-41.169 18.067-26.884 23.732z"/><path d="m335.37 129.23c-4.104-1.628-8.757.377-10.388 4.483l-.659 1.66c-2.094 5.275 1.824 10.954 7.434 10.954 3.182 0 6.191-1.912 7.438-5.05l.659-1.66c1.629-4.105-.378-8.756-4.484-10.387z"/><path d="m173.672 56.974c32.117 80.474 44.715 112.07 45.11 112.972.851 3.504 4 6.109 7.766 6.109h58.961c3.766 0 6.915-2.605 7.766-6.109.396-.902 12.993-32.498 45.11-112.972 6.652-16.666 2.135-27.185-3.585-40.501-1.743-4.059-6.446-5.937-10.508-4.193-4.06 1.744-5.938 6.448-4.193 10.508 5.391 12.55 7.621 17.746 3.427 28.256l-27.576 69.094c.566-14.448-5.291-25.259-15.921-32.671v-7.411c0-13.24-10.697-24-24-24-13.233 0-24 10.767-24 24v7.411c-10.106 7.046-16 17.859-16 29.68 0 4.179 4.771 14.749-27.497-66.103-4.194-10.511-1.964-15.706 3.427-28.256 1.744-4.06-.134-8.764-4.193-10.508-4.058-1.744-8.764.133-10.508 4.193-5.721 13.317-10.239 23.835-3.586 40.501zm90.356 23.824c-5.117-.958-10.546-1.021-16 0 0-11.525 16-11.756 16 0zm-25.248 21.695c3.848-3.498 4.23-2.075 6.613-4.236 6.725-2.937 14.543-2.937 21.27 0 2.396 2.172 2.762.734 6.613 4.236 7.971 7.245 7.718 16.51 5.427 27.271-1.62 7.617-3.682 11.637-8.059 21.563-5.101 11.6-24.13 11.599-29.236-.006-5-11.343-9.38-19.78-9.38-34.174 0-5.491 2.397-10.696 6.752-14.654z"/></svg>