<svg id="Layer_1" enable-background="new 0 0 512.01 512.01" height="512" viewBox="0 0 512.01 512.01" width="512" xmlns="http://www.w3.org/2000/svg"><path d="m504.005 473.042h-75.693c-2.858-10.943-11.463-19.739-22.852-22.586l-15.554-3.891 20.243-98.175c4.026-19.557-7.349-39.129-25.88-45.406 0-.1 1.514.596-19.902-6.98-20.639-7.301-8.474-2.948-54.941-14.255.323-.868.508-1.804.508-2.785 0-57.287 2.597-61.16 8.914-83.849h166.316c23.764 0 35.752-28.337 19.114-45.035-4.987-4.969-11.608-7.706-18.644-7.706-4.418 0-8 3.582-8 8s3.582 8 8 8c2.772 0 5.383 1.08 7.33 3.02 6.582 6.607 1.799 17.721-7.801 17.721h-174.046c-4.418 0-8 3.582-8 8 0 4.53 1.591-.733-1.182 9.028-5.493 19.349-8 28.18-8 82.821 0 .519 3.01.649-37.134-3.365-4.394-.437-8.316 2.768-8.756 7.165-.439 4.396 2.768 8.316 7.165 8.756l45.363 4.536c64.966 15.938 27.92 4.588 78.572 22.086 11.116 3.868 17.709 15.484 15.334 27.017l-9.323 45.215h-23.094l3.836-33.621c.51-4.474-2.767-8.47-7.226-8.874-47.347-4.294-61.21-3.43-84.524-3.43-8.922 0-25.725-4.61-32.835-8.291-17.528-9.073-31.381-35.991-23.847-54.133.373-.919.605-1.929.609-3.05.166-55.086-2.38-62.441-9.725-88.975 2.033-5.251-1.848-10.885-7.455-10.885h-174.049c-9.718 0-14.314-11.186-7.82-17.701 1.967-1.96 4.578-3.04 7.35-3.04 4.418 0 8-3.582 8-8s-3.582-8-8-8c-7.036 0-13.657 2.737-18.664 7.726-16.627 16.683-4.589 45.015 19.134 45.015h166.316c6.206 22.294 8.78 26.571 8.908 79.601-23.86 16.335-1.645 5.636-104.939 92.476l-57.833 38.585c-10.36 6.912-14.454 19.851-9.954 31.465 11.901 30.712 11.912 31.503 14.73 35.798h-36.069c-4.418 0-8 3.582-8 8s3.582 8 8 8h496c4.418 0 8-3.582 8-8s-3.582-7.998-8-7.998zm-304.586-175.897c1.657 18.681 13.118 39.306 29.598 50.299-28.76 12.414-66.07 26.891-109.587 49.214l-7.98-20.604c67.267-56.691 77.889-69.191 87.969-78.909zm-151.241 121.943 49.889-33.285 7.3 18.846-33.97 21.634c-2.724 1.735-4.138 4.938-3.584 8.119l6.721 38.627c-7.974.309-15.846-4.344-19.001-12.485l-11.27-29.082c-1.77-4.567-.16-9.655 3.915-12.374zm36.312 17.825c32.663-20.802 40.733-28.493 129.883-65.894 12.994-5.451 24.35-10.22 34.669-14.96 29.153 8.528 26.062.751 100.028 7.038-10.579 92.712-7.847 74.751-12.453 93.178-1.422 5.689-.915 11.535 1.335 16.766h-247.175zm277.711 36.129c-6.743 0-11.698-6.333-10.062-12.886 4.764-19.056 2.703-6.51 8.097-53.781h21.621l-9.17 44.473c-.866 4.2 1.733 8.336 5.894 9.376l22.998 5.753c4.11 1.027 7.484 3.627 9.548 7.064h-48.926z"/><path d="m119.835 158.375c11.076 0 11.065-16 0-16-4.418 0-8 3.582-8 8s3.582 8 8 8z"/><path d="m151.835 158.375h289.446c20.111 0 28.8-8.688 40.825-20.714 3.124-3.124 3.124-8.189 0-11.313-3.125-3.124-8.189-3.124-11.314 0-11.005 11.005-16.027 16.027-29.511 16.027-31.2 0-100.281 0-155.057 0 2.82-4.442 10.176-20.894 12.624-32.388 4.47-21.011 1.781-39.175-16.474-51.529v-9.12c0-14.546-11.75-26.371-26.37-26.371-14.541 0-26.371 11.83-26.371 26.371v9.12c-11.192 7.575-18.37 19.674-18.37 33.466 0 20.519 6.462 33.085 12.227 46.161.659 1.497 1.43 2.927 2.294 4.29-68.909 0 .11 0-73.951 0-4.418 0-8 3.582-8 8s3.584 8 8.002 8zm93.8-109.037c0-9.255 11.227-13.802 17.702-7.35 3.29 3.301 3.039 6.716 3.039 9.654-6.592-1.44-13.673-1.544-20.741 0zm-7.5 82.3c-5.837-13.24-10.871-23.009-10.871-39.713 0-8.481 4.681-15.989 12.037-20.663 1.499-.318 2.84-1.056 3.9-2.084 8.019-3.54 17.587-3.54 25.607 0 1.06 1.029 2.402 1.768 3.901 2.085 7.345 4.667 12.037 12.171 12.037 20.663 0 17.217-5.688 27.956-10.874 39.72-6.256 14.228-29.45 14.288-35.737-.008z"/><path d="m88.175 158.375c4.418 0 8-3.582 8-8s-3.582-8-8-8c-28.612 0-29.072 1.868-46.951-16.024-3.123-3.126-8.188-3.128-11.313-.005s-3.128 8.188-.005 11.313c22.288 22.307 27.454 20.716 58.269 20.716z"/></svg>