<svg id="Layer_1" enable-background="new 0 0 512.001 512.001" height="512" viewBox="0 0 512.001 512.001" width="512" xmlns="http://www.w3.org/2000/svg"><path d="m504.001 496.001h-221.02c0-33.908-1.299.541 8.036-186.098 20.817-1.857 41.293-11.589 56.158-28.619 38.7-44.294 90.808-111.542 95.38-117.454l5.126-5.113c12.159 1.542 20.252-6.165 20.252-15.802v-17.627c0-8.063-6-14.733-13.766-15.825l-3.247-11.893c-2.142-7.872-8.13-13.823-16.017-15.919-12.314-3.274-23.257 4.562-24.092 10.401l-2.461 17.24c-12.946 0-96.057 0-104.524 0 1.268-2.185 1.181-2.17 5.868-12.802 4.415-10.056 6.917-21.13 6.917-32.697 0-12.418-6.258-23.697-16.813-30.979 0-8.852 1.002-17.259-7.271-25.56-15.627-15.571-42.355-4.382-42.355 17.563v7.998c-10.552 7.278-16.814 18.556-16.814 30.979 0 11.243 2.327 22.244 6.922 32.708 4.723 10.71 4.617 10.642 5.865 12.791-.105 0-5.237-.002-140.734-.002-12.061 0-16.297-4.236-26.53-14.47-3.125-3.124-8.189-3.124-11.314 0-3.124 3.124-3.124 8.189 0 11.313 11.122 11.122 19.157 19.157 37.845 19.157 247.63 0-.525.002 300.657.002l-.781 5.47-13.665 12.16h-66.199c-5.49 0-9.391 5.432-7.534 10.67-5.447 19.676-8.135 25.314-8.736 62.717l-11.994 10.673h-33.156c-4.418 0-8 3.582-8 8s3.582 8 8 8c38.155 0 37.88.602 40.796-1.458.554-.389-3.613 3.293 63.639-56.552l20.716 20.716c-17.088 21.287-36.894 45.464-54.027 65.073-12.86 14.732-31.628 23.481-51.734 23.481-4.263 0-7.777 3.343-7.99 7.601l-6.347 126.905h-24.537c-6.471-52.911-14.329-81.717-14.329-126.496 0-45.336 10.76-51.178 10.76-67.27 0-54.849-2.754-59.345-8.87-81.408 1.843-5.235-2.06-10.652-7.541-10.652h-8.58c-4.418 0-8 3.582-8 8s3.582 8 8 8h1c5.598 20.052 7.99 23.954 7.99 76.06 0 16.378-21.827 27.732-3.126 147.952 3.578 23.013 7.983 51.346 11.044 89.725l-10.763 2.69c-10.495 2.616-18.451 10.633-21.26 20.653h-192.844c-4.418 0-8 3.582-8 8s3.582 8 8 8h496c4.418 0 8-3.582 8-8s-3.582-8.002-8-8.002zm-237.83-471.186c0-11.063 17.627-12.82 17.627 1.279-5.685-1.13-11.616-1.195-17.627 0zm-9.587 23.278c4.233-3.849 4.552-2.195 7.056-4.547 7.102-3.099 15.576-3.104 22.688 0 2.452 2.303 2.865.738 7.056 4.547 8.525 7.751 8.248 17.659 5.826 29.042-1.714 8.055-3.893 12.303-8.493 22.737-5.504 12.514-25.963 12.514-31.468-.006-5.343-12.118-9.893-20.852-9.893-36.074 0-5.887 2.568-11.462 7.228-15.699zm195.349 94.823h-1.221c-4.411 0-8-3.589-8-8v-1.627c0-4.411 3.589-8 8-8h1.221c.01 17.859.1 17.627 0 17.627zm-118.921 16.005h40.627l-48.072 42.779c.925-20.927 2.892-26.446 7.445-42.779zm47.397 15.395c40.168-35.744 39.718-34.306 40.302-38.393l5.48-38.392c3.387-1.668 8.117-.071 9.292 4.247l2.972 10.888c-13.664 8.152-15.359 27.377-5.61 38.252-4.993 4.98 2.24-2.899-33.642 42.192zm-162.07 321.685c3.797-5.186 7.551-5.106 24.963-9.459 3.774-.944 6.322-4.466 6.038-8.346-.884-12.06-1.901-23.164-2.992-33.449h21.906c-1.602 32.025-1.271 18.723-1.271 51.254z"/><path d="m65.241 158.921h86.8c4.418 0 8-3.582 8-8s-3.582-8-8-8h-86.8c-8.318 0-12.18-9.537-6.673-15.044 1.673-1.667 3.89-2.586 6.242-2.586 4.418 0 8-3.582 8-8s-3.582-8-8-8c-6.616 0-12.845 2.576-17.546 7.263-15.641 15.639-4.378 42.367 17.977 42.367z"/><path d="m184.041 158.921c4.418 0 7.96-3.582 7.96-8s-3.622-8-8.04-8-8 3.582-8 8c0 4.285 3.416 8 8.08 8z"/></svg>