<svg id="Layer_1" enable-background="new 0 0 512 512" height="512" viewBox="0 0 512 512" width="512" xmlns="http://www.w3.org/2000/svg"><path d="m504 496h-161.397c2.442-6.933 1.598-14.075-1.826-20l-48.366-83.771c10.083-11.24 15.009-31.233 8.867-49.704-3.846-11.512-4.195-7.922-13.019-69.286.189-1.2.492 9.844-5.76-169.38v-95.859c0-4.418-3.582-8-8-8-13.01 0-24.537 7.807-29.368 19.888l-9.109 22.766c-3.399 8.584-.958 18.211 5.892 24.135-8.068 47.67-2.243 16.884-25.108 130.205-6.625 10.968-14.306 26.788-14.306 39.557 0 14.374 8.764 30.438 13.5 37.51v29.939c0 4.418 3.582 8 8 8s8-3.582 8-8v-24h41.071c8.293 56.993 8.931 55.322 13.027 67.584 2.059 6.193 2.406 12.679 1.235 18.746-.79 4.111-1.922 6.451-2.217 7.434-2.18 7.276-8.347 10.661-10.292 14.044-1.563 2.732-1.389 6.154.502 8.716 5.937 8.037-12.131-22.895 51.596 87.479 2.169 3.754.979 8.667-2.942 10.925-2.623 1.519 5.253 1.072-98.431 1.072-4.445 0-8-3.595-8-8 0-4.427 3.564-8 8-8 4.418 0 8-3.582 8-8s-3.582-8-8-8c-3.754 0-7.376.863-10.648 2.484-1.513-3.556-3.863-6.684-6.807-9.126-.562-.465-.392-21.425 18.081-34.166 7.075-4.886 15.322-7.617 24.216-7.815.577 1.081-1.508-2.557 13.608 23.632 0 25.51.025 23.644-.058 24.985-11.093-.078-14.988-3.901-24.735-13.651-3.125-3.124-8.189-3.124-11.314 0-3.124 3.124-3.124 8.189 0 11.313 11.592 11.588 19.199 18.344 36.288 18.344 30.027 0 28.555.112 29.974-.23 3.12-.747 5.595-3.347 6.048-6.71.511-3.866 1.792-.235-35.575-64.969-.941-1.622-1.218-6.638-6.711-7.997-6.823-1.67-16.739-.303-23.512 1.681-2.879-12.085-2.404-19.648-2.404-33.775 0-4.418-3.582-8-8-8s-8 3.582-8 8c0 15.061-.573 24.949 3.584 40.397-9.811 6.091-17.195 14.477-21.916 24.21-2.937 6.072-4.727 12.481-5.377 19.113-16.736.056-28.426 16.311-22.936 31.848 5.908 16.781 3.948 11.217 4.383 12.433h-165.738c-4.418 0-8 3.582-8 8s3.582 8 8 8h496c4.418 0 8-3.582 8-8s-3.582-8.001-8-8.001zm-253.112-447.428c9.386-23.457 9.614-26.821 15.612-30.386v77.814h-13.302c5.75-33.978 5.302-30.668 5.302-33.14 0-3.168-1.87-6.038-4.769-7.318-2.638-1.165-3.934-4.219-2.843-6.97zm-22.361 215.428c-3.982-6.249-10.027-18.304-10.027-27.45 0-13.253 13.11-32.026 13.702-34.968l18.075-89.582h16.497l5.302 152zm-43.74 208.331c1.977-4.058 7.291-6.056 11.939-3.468 3.354 1.92 3.613 4.282 6.116 11.39-1.503 4.422-1.713 9.098-.532 13.716-4.422 3.764-11.591 2.082-13.533-3.416-4.39-12.467-5.852-14.405-3.99-18.222z"/><path d="m224 344c4.418 0 8-3.582 8-8v-1c0-4.418-3.582-8-8-8s-8 3.582-8 8v1c0 4.418 3.582 8 8 8z"/></svg>