<svg id="Layer_1" enable-background="new 0 0 512.001 512.001" height="512" viewBox="0 0 512.001 512.001" width="512" xmlns="http://www.w3.org/2000/svg"><path d="m504 496.001h-213.93c5.28-6.653 8.138-14.657 8.138-23.098 0-19.243-6.073-31.047-11.431-43.198-.491-1.117-1.065-2.183-1.678-3.222l24.762-.002c14.414 0 26.14-11.727 26.14-26.141v-179.46c0-15.082-12.747-27.14-27.978-26.069-15.153-112.227-14.471-105.541-13.976-106.923 7.408-5.478 11.463-14.604 10.436-23.85l-4.541-40.864c-2.378-21.393-28.382-30.859-43.942-15.879-15.555-14.975-41.563-5.523-43.942 15.879l-4.541 40.865c-1.027 9.246 3.028 18.371 10.436 23.849.495 1.381 1.199-5.465-13.975 106.923-15.202-1.069-27.978 10.96-27.978 26.07v179.46c0 14.414 11.727 26.141 26.14 26.141h24.761c-2.003 3.391-8.918 18.156-11.329 29.49-3.141 14.764-3.003 28.232 6.359 40.029h-213.931c-4.418 0-8 3.582-8 8s3.582 8 8 8h496c4.418 0 8-3.582 8-8s-3.581-8-8-8zm-229.949-480c5.128 0 9.423 3.844 9.989 8.941l4.541 40.863c.435 3.918-1.388 7.635-4.758 9.698-3.345 2.048-6.844 8.955-5.833 16.449l3.75 27.772h-17.74c0-10.432 0-83.067 0-93.674 0-5.54 4.509-10.049 10.051-10.049zm-50.631 49.805 4.541-40.864c.566-5.098 4.861-8.941 9.989-8.941 5.542 0 10.051 4.509 10.051 10.051v93.674h-17.739l3.75-27.772c1.012-7.502-2.494-14.405-5.833-16.449-3.371-2.065-5.194-5.782-4.759-9.699zm-31.42 334.535v-179.46c0-5.51 4.403-10.136 10.2-10.136-2.657 29.539-1.647 59.273 3.041 88.616-.021 62.686-3.229 45.006-12.304 82.947-.958 3.592.701 7.481 4.156 9.209 3.969 1.984 8.765.358 10.733-3.577.678-1.356.547-1.806.647-1.806 8.748-36.629 12.768-21.121 12.768-87.375 0-.23-.05-.953-.103-1.277-9.624-59.513-1.851-96.481 6.962-161.757h19.9v111.724c0 4.418 3.582 8 8 8s8-3.582 8-8v-111.724h19.9c8.742 64.751 15.879 99.192 7.981 155.034h-35.881c-4.418 0-8 3.582-8 8s3.582 8 8 8h34.781c.326 57.019 4.373 44.312 12.746 79.375 1.03 4.312 5.359 6.947 9.64 5.923 4.297-1.026 6.949-5.342 5.923-9.64-9.077-38.01-12.309-20.371-12.33-83.057 4.687-29.343 5.697-59.077 3.041-88.616 5.831 0 10.2 4.663 10.2 10.136v179.46c0 5.592-4.549 10.141-10.14 10.141h-107.72c-5.592 0-10.141-4.549-10.141-10.14zm45.191 88.635c-8.704-7.915-8.453-18.003-5.97-29.675 1.753-8.241 4-12.611 8.649-23.157 5.645-12.838 26.614-12.839 32.263.008 5.412 12.274 10.074 21.299 10.074 36.751 0 20.903-28.812 30.801-45.016 16.073z"/></svg>