<svg id="Layer_1" enable-background="new 0 0 512.177 512.177" height="512" viewBox="0 0 512.177 512.177" width="512" xmlns="http://www.w3.org/2000/svg"><path d="m504 496.088h-158.866c76.502-28.422 136.919-92.555 158.503-174.878 42.712-162.593-80.228-321.122-247.637-321.122-142.727 0-258.865 117.029-255.943 261.28 2.085 103.032 66.626 197.529 166.702 234.72h-158.759c-4.418 0-8 3.582-8 8s3.582 8 8 8h496c4.418 0 8-3.582 8-8s-3.582-8-8-8zm-410.722-416.385c3.355 5.53 6.903 10.957 10.641 16.194 2.566 3.595 7.563 4.429 11.16 1.862 3.596-2.567 4.43-7.563 1.863-11.159-4.027-5.64-7.842-11.502-11.388-17.492 19.598-15.807 41.634-28.57 65.945-37.71 61.18 78.87 169.189 103.1 257.758 58.657 13.413 13.985 24.796 29.051 34.627 46.042-89.903 70.958-216.395 68.572-303.414-2.94-3.414-2.806-8.456-2.313-11.26 1.102-2.805 3.413-2.312 8.455 1.102 11.26 92.362 75.902 225.798 78.481 321.213 4.897 12.041 24.483 19.966 51.06 23.037 79.401-140.192 125.403-363.568 87.923-452.976-81.638 12.831-25.47 29.947-48.453 51.692-68.476zm323.794-1.521c-80.302 37.37-174.482 14.497-229.427-52.206 77.967-23.149 165.362-5.884 229.427 52.206zm-383.715 88.153c96.282 166.153 317.235 203.382 462.552 83.395.583 22.28-1.889 44.389-7.298 65.65-131.353 151.4-371.132 127.682-472.043-42.729-2.564-38.02 3.672-73.892 16.789-106.316zm-11.389 143.044c110.563 146.543 321.82 163.751 454.739 41.206-37.257 87.165-123.59 145.503-220.707 145.503-112.829 0-209.574-79.592-234.032-186.709z"/><circle cx="130.702" cy="116.09" r="8.052"/></svg>