<svg id="Layer_1" enable-background="new 0 0 514.801 514.801" height="512" viewBox="0 0 514.801 514.801" width="512" xmlns="http://www.w3.org/2000/svg"><path d="m510.07 420.206c-20.232-24.341-45.19-43.429-74.562-54.531 2.748-2.601 5.39-5.181 8.295-8.221 3.052-3.194 2.937-8.258-.258-11.311-3.195-3.052-8.26-2.938-11.311.258-37.455 39.201-91.166 66.045-153.89 71.816 17.196-16.429 32.47-34.545 45.82-55.696l73.823-83.349c2.93-3.308 2.623-8.364-.684-11.293-3.309-2.929-8.364-2.623-11.293.684l-35.964 40.605c15.49-44.227 17.661-89.862 8.587-132.613 41.154-20.663 89.078-29.597 139.375-25.965 3.818 52.818-6.21 102.999-29.14 145.511-2.889 5.356 1.04 11.8 7.034 11.8 2.846-.001 5.602-1.523 7.048-4.204 25.397-47.087 35.921-102.853 30.434-161.267-.359-3.827-3.391-6.857-7.218-7.217-25.799-2.421-51.087-1.71-75.34 2.018-4.33-28.214-13.073-56.351-26.068-83.759-1.647-3.474-5.527-5.282-9.25-4.313-28.373 7.41-54.736 18.308-78.5 32.413-15.298-21.962-34.069-42.228-55.907-60.314-2.959-2.451-7.245-2.451-10.206 0-21.819 18.071-40.588 38.337-55.905 60.315-23.765-14.106-50.129-25.004-78.501-32.414-3.718-.97-7.604.84-9.25 4.313-12.922 27.255-21.644 55.242-26.001 83.314-23.413-3.362-47.79-3.899-72.598-1.572-3.828.358-6.859 3.39-7.218 7.218-7.863 83.775 16.957 165.077 77.079 222.487-28.042 10.2-54.474 28.617-76.664 55.396-2.453 2.961-2.453 7.248 0 10.209 70.067 84.56 182.596 85.897 254.155 7.08 73.938 81.476 187.632 74.661 254.146-7.057 2.347-2.58 2.636-7.16-.068-10.341zm-94.987-280.096c-21.159 4.49-41.409 11.352-60.371 20.531-6.423-22.822-16.126-44.842-28.93-65.672 20.509-12.098 43.09-21.69 67.319-28.571 10.86 24.22 18.227 48.955 21.982 73.712zm-159.083-102.212c119.212 103.081 123.287 264.816 8.188 371.695-.292.271-.188 11.277-.188-190.175 0-4.418-3.582-8-8-8s-8 3.582-8 8c0 204.633.096 190.43-.191 190.163-112.175-104.004-113.734-266.243 8.191-371.683zm-137.101 28.499c24.229 6.881 46.81 16.473 67.32 28.572-12.573 20.465-22.162 42.085-28.589 64.485-19.046-8.974-39.372-15.655-60.622-19.946 3.786-24.563 11.123-49.096 21.891-73.111zm-102.099 84.192c47.858-3.457 94.808 4.218 136.838 24.703-9.465 43.371-7.354 88.906 8.432 134.006l-36.082-40.734c-2.928-3.308-7.986-3.613-11.293-.684-3.307 2.93-3.613 7.985-.684 11.293l73.914 83.444c12.626 19.987 27.686 38.325 45.404 55.286-132.28-13.665-227.157-120.938-216.529-267.314zm208.784 294.004c-62.463 51.449-148.626 46.471-207.042-19.175 19.948-22.423 44.93-39.694 73.83-48.232 41.621 34.125 92.053 52.648 144.617 57.133-4.257 4.185-7.467 6.989-11.405 10.274zm49.676-10.06c53.014-4.055 104.174-22.368 146.419-56.713 28.012 8.715 52.281 25.669 71.776 47.596-61.188 68.738-154.191 71.83-218.195 9.117z"/><path d="m453.274 321.093c-.388.541-.774 1.074-1.161 1.605-2.601 3.572-1.814 8.576 1.758 11.177 3.586 2.613 8.586 1.799 11.176-1.758.413-.567.826-1.136 1.239-1.714 2.571-3.593 1.742-8.59-1.851-11.161-3.592-2.572-8.59-1.742-11.161 1.851z"/><path d="m256 179.418c4.418 0 8-3.582 8-8v-32c0-4.418-3.582-8-8-8s-8 3.582-8 8v32c0 4.418 3.582 8 8 8z"/><path d="m434.012 214.371-28.114 31.742c-2.93 3.308-2.623 8.364.684 11.293 3.333 2.953 8.388 2.597 11.293-.684l28.114-31.742c2.93-3.308 2.623-8.364-.684-11.293-3.309-2.93-8.366-2.623-11.293.684z"/><path d="m100.117 259.418c6.841 0 10.556-8.144 5.986-13.305l-28.114-31.742c-2.931-3.306-7.986-3.613-11.293-.684-3.308 2.929-3.614 7.985-.685 11.293l28.114 31.742c1.582 1.785 3.782 2.696 5.992 2.696z"/></svg>