<svg id="Layer_1" enable-background="new 0 0 512 512" height="512" viewBox="0 0 512 512" width="512" xmlns="http://www.w3.org/2000/svg"><path d="m318.961 213.372c78.851 79.937 60.673 61.606 89.011 89.942 5.699 5.7 13.19 8.563 20.637 8.563 25.352-.003 37.656-30.689 19.945-48.403-3.125-3.123-8.189-3.123-11.314 0-3.124 3.125-3.124 8.189 0 11.314 2.351 2.35 3.647 5.477 3.653 8.778-.019 11.118-13.439 16.602-21.607 8.435-28.349-28.347-7.571-7.383-104.474-105.619-3.104-3.146-8.169-3.179-11.313-.077-3.146 3.103-3.18 8.168-.077 11.313l2.307 2.339c-6.188 22.93-6.494 44.64-6.631 75.898h-43.098c-4.418 0-8 3.582-8 8s3.582 8 8 8h49.938l68.242 19.952c10.257 4.772 16.855 15.093 16.855 26.435 0 16.076-13.079 29.155-29.155 29.155h-16.146v-24.067l4.157-1.039c4.286-1.071 6.893-5.415 5.82-9.701-1.07-4.285-5.409-6.893-9.701-5.82l-75.063 18.765c-8.172-14.342-26.696-17.9-39.744-9.199l-7.35 4.901-57.867-14.467c-4.285-1.072-8.63 1.534-9.701 5.82-1.072 4.286 1.534 8.63 5.82 9.701l4.157 1.039v24.067h-16.146c-16.076 0-29.155-13.079-29.155-29.155 0-11.342 6.599-21.662 16.855-26.435l69.288-20.258c3.347-.951 5.769-4.012 5.808-7.599.042-2.676-.026-19.178-.319-30.954-.546-20.493-1.494-35.133-6.325-53.04l2.307-2.339c3.103-3.146 3.068-8.211-.077-11.313-3.144-3.103-8.209-3.068-11.313.077-34.59 35.066-73.604 74.751-104.475 105.62-5.014 5.015-13.035 5.212-17.881.441-4.977-4.9-4.933-12.796-.072-17.655 3.124-3.125 3.124-8.189 0-11.314-11.542-11.535-30.869 20.961-11.152 40.372 11.074 10.901 29.205 10.686 40.419-.53 28.445-28.443 10.33-10.178 89.012-89.943 3.671 17.93 3.804 43.907 3.87 64.489-68.697 20.085-64.395 18.792-65.13 19.117-16.29 7.241-26.815 23.438-26.815 41.264 0 24.898 20.257 45.155 45.155 45.155h211.762c24.898 0 45.155-20.257 45.155-45.155 0-17.826-10.525-34.022-26.815-41.264-.738-.327 3.567.968-65.13-19.117.067-20.089.235-46.719 3.873-64.489zm-72.187 134.267c5.537 0 9.711 3.414 11.209 7.919l.643 1.932c1.319 3.969 5.476 6.255 9.531 5.235l61.578-15.395v20.067h-121.583c22.25-11.124 21.004-10.472 21.601-10.865 10.874-7.564 12.91-8.893 17.021-8.893zm-64.509-.309 20.164 5.041c-6.606 3.303-11.675 7.081-14.396 15.026h-5.768z"/><path d="m61.88 255.46c18.695 0 32.202 0 47.812-15.598l86.436-87.815c2.961-2.961 7.184-4.227 11.294-3.391 1.358.279 96.059.226 97.158 0 4.118-.841 8.334.43 11.25 3.346l86.526 87.907c15.563 15.551 29.069 15.551 47.765 15.551 4.418 0 8-3.582 8-8s-3.582-8-8-8c-17.563 0-25.578 0-36.409-10.822l-86.523-87.905c-6.55-6.549-15.792-9.458-24.89-7.912h-14.389c1.324-1.882 2.49-3.885 3.431-6.025 5.467-12.403 8.907-19.196 11.438-31.089 4.91-23.093 1.939-43.194-18.344-56.638v-10.635c-.001-15.689-12.673-28.434-28.435-28.434-15.679 0-28.434 12.755-28.434 28.434v10.634c-12.659 8.391-20.434 21.776-20.434 36.735 0 22.675 7.178 36.589 13.524 50.985.942 2.143 2.109 4.148 3.435 6.032h-14.39c-9.099-1.547-18.341 1.364-24.934 7.957l-86.433 87.813c-10.876 10.87-18.892 10.87-36.454 10.87-4.418 0-8 3.582-8 8s3.582 8 8 8zm181.686-227.026c0-11.071 13.445-16.56 21.224-8.811 4.104 4.119 3.644 8.388 3.644 12.504-8.163-1.969-16.702-1.97-24.867 0v-3.693zm-11.087 27.015c5.599-5.089 6.027-2.936 8.769-5.704 9.122-4.079 20.16-4.177 29.503 0 1.111 1.122 2.553 1.914 4.166 2.224 14.947 9.389 15.823 23.413 12.209 40.409-2.141 10.064-4.922 15.474-10.431 27.97-7.288 16.573-34.106 16.572-41.396-.007-6.263-14.207-12.168-25.439-12.168-44.537.002-7.648 3.321-14.876 9.348-20.355z"/><path d="m504 496h-496c-4.418 0-8 3.582-8 8s3.582 8 8 8h496c4.418 0 8-3.582 8-8s-3.582-8-8-8z"/><path d="m128 408v40.867c0 4.418 3.582 8 8 8s8-3.582 8-8v-40.867c0-4.418-3.582-8-8-8s-8 3.582-8 8z"/><path d="m368 408v64c0 4.418 3.582 8 8 8s8-3.582 8-8v-64c0-4.418-3.582-8-8-8s-8 3.582-8 8z"/><path d="m248 408v51.084c0 4.418 3.582 8 8 8s8-3.582 8-8v-51.084c0-4.418-3.582-8-8-8s-8 3.582-8 8z"/><path d="m176 424v51.084c0 4.418 3.582 8 8 8s8-3.582 8-8v-51.084c0-4.418-3.582-8-8-8s-8 3.582-8 8z"/><path d="m312 424v51.084c0 4.418 3.582 8 8 8s8-3.582 8-8v-51.084c0-4.418-3.582-8-8-8s-8 3.582-8 8z"/></svg>