<svg id="Layer_1" enable-background="new 0 0 512 512" height="512" viewBox="0 0 512 512" width="512" xmlns="http://www.w3.org/2000/svg"><path d="m88.573 232.999c53.918 30.655 136.853 30.702 190.854 0 91.934-52.273 13.074-128.992-95.427-128.992-4.418 0-8 3.582-8 8s3.582 8 8 8c73.253 0 120 35.536 120 60s-46.747 60-120 60-120-35.536-120-60c0-18.347 24.105-39.122 58.62-50.523 4.195-1.387 6.473-5.911 5.087-10.106-1.386-4.194-5.905-6.471-10.106-5.087-73.12 24.155-97.512 79.768-29.028 118.708z"/><path d="m104.824 173.56c-4.341 3.19-4.353 9.694 0 12.893 38.907 28.591 119.382 28.638 158.352 0 4.341-3.19 4.353-9.694 0-12.893-38.907-28.591-119.382-28.638-158.352 0zm137.898 6.447c-33.324 15.985-84.109 15.99-117.443 0 33.198-15.925 83.989-16.048 117.443 0z"/><path d="m376 392.007c4.418 0 8-3.582 8-8v-56c0-4.418-3.582-8-8-8s-8 3.582-8 8v56c0 4.418 3.582 8 8 8z"/><path d="m432 256.007h-24c-19.317 0-35.479 13.765-39.195 32-1.314 0-.919 11.975-.805-107.992 0-110.622-197.876-164.492-312.854-88.713-35.561 23.439-55.146 54.941-55.146 88.705v120c0 22.728 9.098 44.912 26.309 64.155 37.332 41.741 101.406 59.845 157.691 59.845h184.805c3.717 18.235 19.878 32 39.195 32h24c44.112 0 80-35.888 80-80v-40c0-44.113-35.888-80-80-80zm-80.103 32h-77.107c30.024-11.449 59.492-30.432 77.162-56.963zm-287.945-183.345c66.114-43.577 173.981-43.578 240.096 0 63.934 42.136 63.991 108.516 0 150.689-66.114 43.577-173.981 43.578-240.096 0-63.935-42.136-63.989-108.517 0-150.689zm-47.952 195.345v-69.038c33.303 50.093 105.249 73.038 168 73.038h216c4.411 0 8 3.589 8 8v88c0 4.411-3.589 8-8 8h-216c-91.261 0-168-47.994-168-108zm480 76c0 35.29-28.71 64-64 64h-24c-10.429 0-19.321-6.689-22.624-16h14.624c13.233 0 24-10.767 24-24v-88c0-13.233-10.767-24-24-24h-14.624c3.302-9.311 12.195-16 22.624-16h24c35.29 0 64 28.71 64 64z"/><circle cx="152" cy="114.365" r="8"/></svg>