<svg id="Layer_1" enable-background="new 0 0 512 512" height="512" viewBox="0 0 512 512" width="512" xmlns="http://www.w3.org/2000/svg"><path d="m399 112h1c4.418 0 8-3.582 8-8s-3.582-8-8-8h-1c-4.418 0-8 3.582-8 8s3.582 8 8 8z"/><path d="m456 96h-24c-4.418 0-8 3.582-8 8s3.582 8 8 8h24c22.056 0 40 17.944 40 40v112c0 22.056-17.944 40-40 40h-400c-22.056 0-40-17.944-40-40 0-11.359 0-96.3 0-112 0-22.056 17.944-40 40-40h312c4.418 0 8-3.582 8-8s-3.582-8-8-8h-48v-32c0-35.309-28.571-64-64-64-35.29 0-64 28.71-64 64v32h-136c-30.878 0-56 25.121-56 56v142c0 30.167 24.334 55.634 55.398 57.978.487.035-7.285.022 136.602.022v96c0 35.29 28.71 64 64 64s64-28.71 64-64v-96c142.241 0 136.123.012 136.602-.022 31.064-2.344 55.398-27.811 55.398-57.978 0-13.119 0-122.485 0-142 0-30.879-25.122-56-56-56zm-248-32c0-42.507 51.772-64.088 81.94-33.945 9.067 9.075 14.06 21.131 14.06 33.945v32h-96zm48 432c-26.467 0-48-21.532-48-48s21.533-48 48-48 48 21.532 48 48-21.533 48-48 48zm48-90.265c-25.577-29.013-70.481-28.948-96 0v-53.735h96zm151.687-69.735h-399.374c-18.856-1.542-34.268-14.574-38.887-31.461 10.052 9.568 23.634 15.461 38.574 15.461h400c14.94 0 28.522-5.893 38.574-15.461-4.62 16.887-20.031 29.919-38.887 31.461z"/><path d="m256 416c-17.645 0-32 14.355-32 32s14.355 32 32 32 32-14.355 32-32-14.355-32-32-32zm0 48c-8.822 0-16-7.178-16-16s7.178-16 16-16 16 7.178 16 16-7.178 16-16 16z"/><path d="m97.433 159.282c-17.517 70.068-17.433 67.652-17.433 75.98 0 25.84 19.765 50.738 53.261 50.738 27.978 0 50.739-22.761 50.739-50.738v-65.322c0-24.229-19.711-43.94-43.939-43.94-20.2 0-37.729 13.687-42.628 33.282zm70.567 10.657v65.322c0 19.155-15.583 34.739-34.739 34.739h-2.522c-19.156 0-34.739-15.584-34.739-34.738 0-6.015-.024-4.181 16.956-72.099 3.114-12.461 14.26-21.163 27.105-21.163 15.405 0 27.939 12.533 27.939 27.939z"/><path d="m371.939 126c-24.228 0-43.939 19.711-43.939 43.939v65.322c0 25.84 19.765 50.738 53.261 50.738 32.841 0 57.238-30.958 49.224-63.045l-15.918-63.673c-4.899-19.594-22.428-33.281-42.628-33.281zm43.024 100.835c5.492 21.991-11.238 43.165-33.702 43.165h-2.522c-19.156 0-34.739-15.584-34.739-34.738v-65.322c0-15.407 12.534-27.94 27.939-27.94 12.844 0 23.99 8.702 27.105 21.163z"/></svg>