<svg id="Layer_1" enable-background="new 0 0 512.041 512.041" height="512" viewBox="0 0 512.041 512.041" width="512" xmlns="http://www.w3.org/2000/svg"><path d="m455.782 277.552c3.233-38.226-26.925-68.188-60.702-86.37 16.939-38.719-10.856-73.77-49.799-92.435 13.197-24.968 7.694-56.624-22.33-78.459-37.184-27.044-96.659-27.057-133.861 0-30.029 21.839-35.521 53.501-22.33 78.459-39.451 18.907-66.587 54.06-49.8 92.435-33.892 18.243-63.93 48.224-60.702 86.37-79.308 55.448-76.754 140.281 20.551 193.642 99.298 54.456 259.093 54.472 358.421 0 97.332-53.376 99.839-138.208 20.552-193.642zm-199.762-261.539c58.599 0 98.383 43.459 71.582 80.963-.33.371-.627.775-.888 1.212-30.12 39.699-111.233 39.744-141.387 0-.261-.437-.558-.842-.888-1.212-26.908-37.655 13.103-80.963 71.581-80.963zm-130.941 188.969c33.078 44.184 109.338 56.8 165.13 48.564 4.371-.645 7.391-4.711 6.747-9.082-.645-4.37-4.709-7.398-9.083-6.746-51.143 7.547-127.605-4.398-153.272-47.193-19.521-32.523 6.641-62.612 41.478-78.48 38.012 42.599 121.893 42.577 159.886 0 58.773 26.771 65.05 75.536 10.698 106.485-3.839 2.187-5.179 7.071-2.993 10.911 2.191 3.846 7.077 5.175 10.911 2.993 13.592-7.741 24.641-17.14 32.375-27.456 33.819 18.032 53.066 42.214 53.066 67.034 0 56.061-90.167 96-184 96-97.766 0-184-42.037-184-96-.002-24.818 19.242-48.998 53.057-67.03zm302.458 252.183c-94.536 51.841-248.502 51.839-343.034 0-83.582-45.837-89.29-113.527-24.496-162.566 18.51 51.735 99.315 89.414 196.013 89.414 96.695 0 177.497-37.676 196.012-89.415 64.814 49.053 59.032 116.761-24.495 162.567z"/><path d="m319.958 246.635c6.127 0 10.865-5.3 8.869-11.047-1.45-4.174-6.008-6.379-10.182-4.933-.225.079-.454.148-.684.221-9.436 2.949-6.931 15.759 1.997 15.759z"/></svg>