<svg id="Layer_1" enable-background="new 0 0 511.999 511.999" height="512" viewBox="0 0 511.999 511.999" width="512" xmlns="http://www.w3.org/2000/svg"><path d="m175.981 143.999v32c0 4.418 3.582 8 8 8h144c4.418 0 8-3.582 8-8v-32c0-2.407 1.435-4.381 4.418-8.264 17.29-22.506 12.452-39.589 3.698-66.639-5.818-17.981-4.365-11.588-7.697-51.581-.818-9.816-8.864-17.313-18.714-17.436l-6.305-.079c-10.602-.116-19.239 8.386-19.257 18.987l-.02 16.653c-.024 19.907-16.25 36.12-36.166 36.12-19.883 0-36.103-16.165-36.163-36.055l-.05-16.427c-.043-10.354-8.502-18.85-18.857-18.938-7.041-.06-6.126-.053-6.371-.053-9.825 0-18.136 7.631-18.953 17.438l-2.783 33.392c-.77 9.222-12.781 27.625-12.781 52.879.001 25.594 16.001 32.737 16.001 40.003zm144 24h-128v-16h128zm-136.244-98.142c5.956-15.856 4.548-12.35 7.752-50.799.131-1.564 1.435-2.807 3.032-2.768l6.212.053c1.643.014 2.985 1.361 2.992 2.995l.05 16.418c.086 28.466 23.233 52.006 52.232 52.006 28.691-.037 52.063-23.409 52.097-52.101l.02-16.649c.003-1.691 1.416-3.065 3.056-3.013l6.305.079c1.563.02 2.84 1.21 2.97 2.767 3.366 40.405 1.94 35.151 8.42 55.178 3.331 10.293 7.106 21.959 7.106 29.977 0 17.658-10.128 20.838-14.49 32h-131.021c-6.041-15.466-25.204-16.978-6.733-66.143z"/><path d="m327.409 376.01c-4.31-.869-8.781 1.881-9.531 6.773-.845 4.865 2.896 9.368 7.892 9.368 9.57-.002 11.138-14.204 1.639-16.141z"/><path d="m335.992 240.429c.033-.617.024 2.478-.012-32.439-.005-4.415-3.585-7.991-8-7.991h-144.032c-4.42 0-8.004 3.587-8 8.008.039 38.197.901 34.053-3.279 56.717-14.037 76.126 9.208 87.979 19.329 239.808.28 4.202 3.771 7.468 7.982 7.468h32c4.148 0 7.608-3.171 7.97-7.304l16.013-183.212 16.047 183.214c.362 4.132 3.822 7.302 7.97 7.302h32c4.212 0 7.702-3.266 7.982-7.468 2.154-32.309 5.102-61.418 9.009-88.99.62-4.374-2.424-8.423-6.799-9.043-4.372-.617-8.423 2.425-9.043 6.799-3.659 25.823-6.486 52.947-8.615 82.702h-17.204c-13.297-151.806-17.956-205.217-18.058-205.773-1.181-6.53-6.642-11.094-13.278-11.099-7.252-.005-12.845 5.519-13.404 11.826l-17.921 205.046h-17.203c-8.125-113.444-23.466-146.48-23.466-192 0-19.772 5.858-39.703 7.544-56h128.912c3.191 30.828 13.183 41.247 2.902 103.007-.814 4.883 2.949 9.318 7.892 9.318 4.017 0 7.342-2.964 7.913-6.822 2.904-17.464 4.837-32.577 4.837-49.503.001-24.414-7.841-48.219-7.988-63.571zm-16.004-24.43.017 15.934c-79.054-.653-50.26-.644-128.033 0l-.016-15.934z"/></svg>