<svg id="Layer_1" enable-background="new 0 0 511.995 511.995" height="512" viewBox="0 0 511.995 511.995" width="512" xmlns="http://www.w3.org/2000/svg"><path d="m359.557 271.984c0 4.475 3.612 8.01 8 8.01 4.418 0 8-3.592 8-8.01s-3.582-8-8-8-8 3.582-8 8z"/><path d="m507.808 416.96-129.95-70.391c0-20.019.094-28.869-.396-42.924-.153-4.416-3.83-7.852-8.273-7.717-4.416.153-7.87 3.857-7.717 8.273.5 14.373.386 23.212.386 47.132 0 2.936 1.608 5.636 4.189 7.034 145.617 78.877 134.936 73.628 137.943 73.628 8.281.001 11.091-11.095 3.818-15.035z"/><path d="m436.728 497.543c-131.49-96.427-120.981-89.5-124.604-89.558-26.537-.42-48.127-22.365-48.127-48.921 0-23.425 0-117.521 0-158.326 0-18.158 14.772-32.931 32.931-32.931 4.411 0 8 3.589 8 8v126.326c0 4.418 3.582 8 8 8s8-3.582 8-8v-126.325c0-13.233-10.767-24-24.001-24-5.122 0-10.061.795-14.705 2.261l-18.215-124.275c.553-15.434 22.102-19.348 27.809-4.242 30.485 79.734 52.811 130.021 64.364 215.978.59 4.392 4.632 7.453 8.994 6.863 4.379-.589 7.452-4.615 6.863-8.994-11.783-87.675-34.618-139.375-65.253-219.499-7.706-21.104-35.267-26.942-50.786-10.096-15.529-16.857-43.082-10.996-50.785 10.092-27.625 72.249-70.142 172.669-71.061 326.666l-129.965 70.398c-7.28 3.944-4.454 15.036 3.817 15.036 3.046 0-7.321 5.058 137.943-73.628 2.581-1.398 4.189-4.099 4.189-7.034 0-169.703 54.21-281.246 70.092-325.914 3.534-9.752 16.118-12.684 23.571-5.229 2.584 2.583 4.059 5.976 4.188 9.603l-18.216 124.275c-4.644-1.467-9.583-2.262-14.706-2.262-13.233 0-24 10.767-24 24v126.326c0 4.418 3.582 8 8 8s8-3.582 8-8v-126.325c0-4.411 3.589-8 8.001-8 18.157 0 32.93 14.772 32.93 32.931v158.326c0 26.556-21.59 48.501-48.127 48.921-3.621.058 7.132-7.048-124.604 89.558-3.563 2.612-4.334 7.619-1.721 11.182 2.617 3.569 7.626 4.331 11.182 1.721l118.031-86.556c23.102-1.288 42.767-14.562 53.238-33.584 10.468 19.015 30.127 32.296 53.238 33.584l118.031 86.556c3.554 2.609 8.565 1.849 11.182-1.721 2.616-3.564 1.846-8.571-1.718-11.183zm-191.986-335.674c.201-.754-.6 4.491 11.256-76.396 11.857 80.892 11.055 75.641 11.256 76.396-4.399 3.367-8.21 7.461-11.256 12.104-3.046-4.643-6.857-8.737-11.256-12.104z"/></svg>