<svg id="Layer_1" enable-background="new 0 0 512 512" height="512" viewBox="0 0 512 512" width="512" xmlns="http://www.w3.org/2000/svg"><path d="m504 248.003c-43.175 0-39.445-155.121-132.938-114.292-64.683-60.895-165.317-61.013-230.126 0-93.476-40.797-89.777 114.292-132.936 114.292-4.418 0-8 3.582-8 8s3.582 8 8 8c43.394 0 39.345 155.188 132.946 114.3 64.908 61.097 165.545 60.772 230.108 0 93.756 40.942 89.433-114.3 132.946-114.3 4.418 0 8-3.582 8-8s-3.582-8-8-8zm-124.13-80h-247.74c60.821-85.367 187.005-85.244 247.74 0zm-109.767 239.34 16.767-29.586c2.178-3.844.828-8.726-3.016-10.904s-8.727-.829-10.904 3.016l-16.95 29.907-122.271-215.773h244.543l-71.972 127.006c-2.179 3.844-.828 8.727 3.016 10.904 3.845 2.178 8.726.827 10.904-3.016l72.851-128.558c45.339 94.266-17.15 207.221-122.968 217.004zm-151.174-217.004 122.969 217.003c-105.765-9.776-168.338-122.678-122.969-217.003zm-88.957 65.665c36.775-29.899 37.501-131.449 99.001-109.833-54.648 63.117-54.635 156.562 0 219.664-61.907 21.761-61.695-79.499-99.001-109.831zm353.055 109.83c54.648-63.119 54.633-156.563-.001-219.664 61.817-21.738 61.829 79.607 99.003 109.832-36.739 29.869-37.566 131.423-99.002 109.832z"/><path d="m283.789 254.794c26.458-17.254 14.204-58.521-17.397-58.521-23.226 0-25.559-1.594-42.824 15.671-3.125 3.125-3.125 8.189 0 11.314 3.124 3.123 8.189 3.123 11.313 0 12.432-12.433 10.023-10.985 31.51-10.985 15.827 0 21.813 20.718 8.528 29.201l-19.537 12.475c-6.721 4.291-3.667 14.743 4.305 14.743h12.534c8.117 0 14.978 5.812 16.312 13.818 2.812 16.876-17.699 24.67-34.193 18.072-11.138-4.456-20.257-12.956-25.049-21.783-5.329-9.8-15.568-15.888-26.723-15.888-4.418 0-8 3.582-8 8s3.582 8 8 8c5.287 0 10.14 2.886 12.665 7.527 9.458 17.412 30.088 32.472 51.119 32.472 45.033.001 49.883-51.854 17.437-64.116z"/><path d="m233.574 150.053c14.63 12.658 35.957 13.284 51.28 1.589 3.512-2.681 4.186-7.701 1.505-11.214-2.68-3.512-7.701-4.187-11.213-1.505-9.303 7.102-22.203 6.729-31.104-.97-3.341-2.893-8.393-2.526-11.284.815-2.891 3.342-2.526 8.394.816 11.285z"/><path d="m259.384 136.003h1c4.418 0 8-3.582 8-8s-3.582-8-8-8h-1c-4.418 0-8 3.582-8 8s3.582 8 8 8z"/><path d="m301.521 335.697c-3.841-2.184-8.726-.837-10.907 3.005l-1.88 3.31c-3.039 5.35.867 11.952 6.949 11.952 5.223 0 6.874-3.893 8.843-7.359 2.182-3.842.837-8.726-3.005-10.908z"/></svg>