<svg id="Layer_1" enable-background="new 0 0 512 512" height="512" viewBox="0 0 512 512" width="512" xmlns="http://www.w3.org/2000/svg"><path d="m504 248c-25.201 0-31.308-35.995-67.976-50.497 21.081-33.211 5.019-66.057 25.317-80.8 1.129 0 5.616-5.882 1.771-11.174-2.562-3.526-7.54-4.415-11.205-1.749-20.324 14.73-46.529-10.724-84.647-.912-2.441-39.207-34.764-56.408-27.012-80.256v-.001c1.365-4.202-.935-8.715-5.136-10.08-4.207-1.364-8.716.933-10.081 5.136v.001c-7.746 23.84-43.984 18.748-69.031 49.043-25.075-30.33-61.265-25.139-69.032-49.043v-.001c-1.365-4.202-5.879-6.5-10.081-5.136-4.202 1.365-6.501 5.879-5.136 10.08 7.734 23.8-24.573 41.104-27.012 80.256-38.056-9.798-64.353 15.659-84.678.891h-.001c-8.117-5.895-18.049 5.739-9.386 12.958 20.307 14.767 4.239 47.848 25.282 80.798-36.538 14.461-42.873 50.486-67.956 50.486-4.418 0-8 3.582-8 8s3.582 8 8 8c25.173 0 31.332 36.004 67.976 50.497-21.054 33.166-5.061 66.069-25.301 80.788-8.558 7.132 1.144 18.941 9.386 12.958h.001c20.293-14.741 46.644 10.687 84.678.897 2.451 39.289 34.76 56.361 27.017 80.231-1.695 5.227 2.208 10.492 7.604 10.492 3.372 0 6.508-2.148 7.606-5.529 0 0 0 0 0-.001 7.749-23.848 43.974-18.733 69.032-49.043 25.062 30.314 61.263 25.136 69.031 49.043v.001c1.099 3.381 4.234 5.529 7.606 5.529 5.421 0 9.291-5.3 7.61-10.474 0 0 0 0 0-.001-7.734-23.793 24.57-41.092 27.011-80.249 38.009 9.785 64.35-15.645 84.66-.91 4.191 2.794 8.832 1.492 11.192-1.759 2.597-3.574 1.804-8.577-1.771-11.174-20.222-14.691-4.361-48.025-25.299-80.811 36.49-14.439 42.921-50.485 67.961-50.485 4.418 0 8-3.582 8-8s-3.582-8-8-8zm-233.574 175.374 139.424-234.82c46.572 105.821-25.869 225.116-139.424 234.82zm-168.276-234.82 139.424 234.82c-113.785-9.724-185.885-129.252-139.424-234.82zm296.899-20.554h-23.049c-4.418 0-8 3.582-8 8s3.582 8 8 8h17.946l-137.946 232.33-137.946-232.33h193.946c4.418 0 8-3.582 8-8s-3.582-8-8-8h-199.049c65.895-106.724 220.362-106.467 286.098 0zm37.783-43.472c.919 0-1.781-.088-3.796 24.47-1.024 12.486-2.073 23.756-7.713 35.005-11.014-25.804-27.759-48.598-48.629-66.772 22.188-3.419 40.694 7.3 60.138 7.297zm-111.709-81.258c5.956 18.484 21.931 32.888 25.555 55.015-23.326-14.055-50.006-23.077-78.531-25.568 15.946-15.743 37.305-18.004 52.976-29.447zm-138.246 0c15.666 11.437 37.021 13.693 52.977 29.446-28.526 2.492-55.207 11.513-78.533 25.569 3.626-22.131 19.601-36.531 25.556-55.015zm-111.709 81.258c19.346 0 38.02-10.705 60.138-7.298-20.87 18.175-37.615 40.968-48.629 66.772-5.648-11.262-6.696-22.584-7.714-35.004-2.157-26.328-4.94-24.47-3.795-24.47zm-42.847 131.471c15.739-11.379 24.455-30.953 44.347-41.266-6.151 26.744-6.3 55.146.001 82.538-19.845-10.288-28.647-29.924-44.348-41.272zm42.72 131.473c6.044-18.45 1.585-39.429 11.636-59.475 11.014 25.805 27.759 48.598 48.629 66.772-22.269 3.43-41.045-7.421-60.265-7.297zm111.836 81.257c-5.948-18.459-21.933-32.897-25.555-55.015 23.326 14.056 50.007 23.077 78.533 25.569-15.961 15.76-37.287 17.991-52.978 29.446zm138.246 0c-15.652-11.429-37.037-13.711-52.977-29.446 28.525-2.492 55.206-11.513 78.532-25.568-3.624 22.129-19.598 36.526-25.555 55.014zm111.709-81.257c-19.39 0-37.987 10.707-60.137 7.297 20.869-18.175 37.614-40.968 48.628-66.771 5.643 11.251 6.691 22.539 7.714 35.004 2.159 26.328 4.941 24.47 3.795 24.47zm-1.5-90.205c6.151-26.744 6.3-55.148-.001-82.538 19.848 10.29 28.627 29.91 44.348 41.272-15.711 11.358-24.48 30.966-44.347 41.266z"/><path d="m344 184h1c4.418 0 8-3.582 8-8s-3.582-8-8-8h-1c-4.418 0-8 3.582-8 8s3.582 8 8 8z"/><path d="m304 200h-96c-4.418 0-8 3.582-8 8s3.582 8 8 8h64v43.716c0 17.957-21.886 27.087-34.627 14.343l-15.716-15.716c-2.943-2.942-7.651-3.137-10.828-.447-3.176 2.69-3.758 7.367-1.339 10.754l16.75 23.452c14.236 19.927 21.76 43.407 21.76 67.898 0 4.418 3.582 8 8 8s8-3.582 8-8c0-22.703-5.686-44.639-16.558-64.247 21.702 2.528 40.558-14.452 40.558-36.037v-43.716h16c4.418 0 8-3.582 8-8s-3.582-8-8-8z"/><path d="m219.268 142.798c12.87 9.443 21.019 17.202 36.732 17.202 15.719 0 23.887-7.777 36.732-17.202 3.563-2.614 4.331-7.62 1.718-11.183-2.613-3.562-7.619-4.331-11.183-1.718-12.395 9.095-17.334 14.103-27.267 14.103-9.922 0-14.794-4.95-27.268-14.103-3.562-2.612-8.568-1.845-11.183 1.718-2.613 3.563-1.844 8.569 1.719 11.183z"/><circle cx="257.797" cy="116.003" r="8.203"/></svg>