<svg id="Layer_1" enable-background="new 0 0 512 512" height="512" viewBox="0 0 512 512" width="512" xmlns="http://www.w3.org/2000/svg"><path d="m488 376h-10.084c6.296-7.613 10.084-17.372 10.084-28v-264c0-24.262-19.738-44-44-44h-376c-24.262 0-44 19.738-44 44v264c0 10.628 3.788 20.387 10.084 28h-10.084c-13.234 0-24 10.767-24 24 0 39.701 32.299 72 72 72h368c39.701 0 72-32.299 72-72 0-13.233-10.766-24-24-24zm-448-28v-264c0-15.439 12.561-28 28-28h376c15.439 0 28 12.561 28 28v264c0 15.439-12.561 28-28 28-12.069 0-363.952 0-376 0-15.439 0-28-12.561-28-28zm267.056 44-8 16h-86.111l-8-16zm132.944 64h-368c-30.878 0-56-25.121-56-56 0-4.411 3.589-8 8-8h163.056l13.789 27.578c1.355 2.71 4.125 4.422 7.155 4.422h96c3.03 0 5.8-1.712 7.155-4.422l13.789-27.578h163.056c4.411 0 8 3.589 8 8 0 30.879-25.122 56-56 56z"/><path d="m454.65 259.56c-3.895-5.902-13.123-4.084-14.49 2.88-1.318 6.127 4.965 11.423 10.9 8.95 4.718-1.968 6.369-7.713 3.59-11.83z"/><path d="m456 344v-48c0-4.418-3.582-8-8-8s-8 3.582-8 8v48h-368v-256h368v136c0 4.418 3.582 8 8 8s8-3.582 8-8v-136c0-8.822-7.178-16-16-16h-368c-8.822 0-16 7.178-16 16v256c0 8.822 7.178 16 16 16h368c8.822 0 16-7.178 16-16z"/><path d="m307.215 272c-4.418 0-8 3.582-8 8s3.582 8 8 8c30.01 0 35.482-23.833 21.657-37.656-12.382-12.383-54.129-22.204-69.122-25.408-.626-.333-1.299-.578-1.999-.735 7.956.665 17.12 1.04 25.373.851 15.756-.363 34.159-2.461 36.63-15.57 3.247-17.231-26.94-32.841-43.646-41.05 6.904-6.194 11.892-16.555 11.892-32.432 0-32-21.613-32-32-32s-32 0-32 32c0 15.847 4.969 26.2 11.853 32.397-16.086 7.897-46.987 23.723-43.715 41.084 2.471 13.109 20.874 15.207 36.63 15.57 7.556.174 15.782-.124 23.283-.686-6.251 1.957-54.907 11.96-68.924 25.977-6.581 6.581-8.866 16.161-5.686 23.839 2.138 5.161 8.533 13.818 27.342 13.818 6.706 0 14.517.597 22.635 1.813-9.648 5.063-16.802 11.015-21.292 17.749-3.575 5.364.361 12.438 6.649 12.438 9.546 0 3.793-12.447 41.746-23.769 13.712 4.64 25.674 11.309 31.606 20.206 2.457 3.686 7.426 4.664 11.094 2.219 3.676-2.45 4.67-7.418 2.219-11.094-19.448-29.172-74.921-35.561-94.655-35.561-22.131 0-21.998-15.954 50.466-31.661 22.343 4.702 55.025 14.035 62.308 21.318 1.962 1.962 2.916 4.715 2.217 6.401-.754 1.819-4.495 3.942-12.561 3.942zm-51.215-152c11.381 0 16 .613 16 16 0 8.963-2.079 24-16 24s-16-15.037-16-24c0-15.387 4.619-16 16-16zm-47.646 85.988c6.084-10.066 36.174-24.286 47.593-29.266 11.364 4.953 41.507 19.197 47.591 29.266-8.302 4-30.356 3.203-39.538 2.624v-8.612c0-4.418-3.582-8-8-8s-8 3.582-8 8v8.605c-9.236.583-31.325 1.392-39.646-2.617z"/></svg>