<svg id="Layer_1" enable-background="new 0 0 512.003 512.003" height="512" viewBox="0 0 512.003 512.003" width="512" xmlns="http://www.w3.org/2000/svg"><path d="m421.254 459.556-1.7 1.7c-3.124 3.125-3.124 8.189 0 11.314 3.126 3.124 8.189 3.123 11.314 0l1.7-1.7c3.124-3.125 3.124-8.189 0-11.314-3.124-3.123-8.189-3.123-11.314 0z"/><path d="m512.001 355.555c0-14.583-8.253-21.51-15.026-28.284-22.571-22.571-56.678-31.238-86.6-18.718l-39.648-39.647 5.271-8.786c2.272-3.789 1.044-8.703-2.744-10.977-3.792-2.272-8.704-1.044-10.977 2.744l-16.97 28.284c-2.272 3.789-1.044 8.703 2.744 10.977 3.805 2.28 8.712 1.03 10.977-2.744l3.213-5.355 33.604 33.603c-6.776 4.839-6.968 5.579-34.635 33.246l-35.738-35.738 5.271-8.786c2.272-3.789 1.044-8.703-2.744-10.977-3.791-2.273-8.704-1.044-10.977 2.744l-16.97 28.284c-2.272 3.789-1.044 8.703 2.744 10.977 3.805 2.28 8.712 1.03 10.977-2.744l3.213-5.355 32.909 32.909c-27.773 27.773-28.365 27.811-33.088 34.793l-36.59-36.591 5.271-8.785c2.272-3.789 1.044-8.703-2.744-10.977-3.792-2.272-8.704-1.045-10.977 2.744l-16.97 28.284c-2.272 3.789-1.044 8.703 2.744 10.977 3.805 2.28 8.712 1.03 10.977-2.744l3.213-5.356 37.323 37.324c-11.127 28.989-4.198 63.684 18.213 86.095 7.058 7.057 13.722 15.026 28.284 15.026 6.208 0 12.142-1.763 17.242-5.038 3.451 1.785 7.245 2.684 11.041 2.684 11.677 0 16.825-6.871 24.732-14.778 3.124-3.125 3.124-8.189 0-11.314-3.125-3.123-8.189-3.123-11.314 0-7.376 7.376-9.035 10.104-13.418 10.104-7.148 0-10.657-8.661-5.658-13.65l101.834-101.835c3.108-3.112 8.16-3.137 11.311.014 3.096 3.084 3.148 8.15-.009 11.308l-47.76 47.76c-3.124 3.125-3.124 8.189 0 11.314 3.125 3.123 8.189 3.123 11.314 0l47.761-47.761c7.769-7.774 8.924-19.219 4.344-28.028 3.271-5.097 5.03-11.025 5.03-17.227zm-43.307 11.31-101.825 101.826c-7.183 7.171-8.753 17.585-5.234 26.119-1.904.781-3.96 1.192-6.081 1.192-7.914 0-11.317-4.688-16.97-10.341-25.104-25.102-24.776-68.139-.298-90.227.322-.291 56.945-56.926 57.123-57.12 24.715-27.13 65.043-24.941 90.252.27l5.657 5.656c4.756 4.756 5.836 11.679 3.491 17.395-8.494-3.502-18.917-1.979-26.115 5.23z"/><path d="m297.14 240.236c3.805 2.28 8.712 1.03 10.977-2.744l16.971-28.285c2.272-3.789 1.044-8.703-2.744-10.977-3.791-2.272-8.704-1.045-10.977 2.744l-16.971 28.285c-2.272 3.79-1.044 8.704 2.744 10.977z"/><path d="m314.111 257.206c3.805 2.28 8.712 1.03 10.977-2.744l16.971-28.284c2.272-3.789 1.044-8.703-2.744-10.977-3.792-2.272-8.704-1.045-10.977 2.744l-16.971 28.284c-2.273 3.79-1.044 8.704 2.744 10.977z"/><path d="m331.082 274.177c3.805 2.28 8.712 1.03 10.977-2.744l16.971-28.284c2.272-3.789 1.044-8.703-2.744-10.977-3.792-2.272-8.704-1.045-10.977 2.744l-16.972 28.284c-2.272 3.789-1.044 8.703 2.745 10.977z"/><path d="m263.199 206.295c3.805 2.28 8.712 1.03 10.977-2.744l16.971-28.284c2.272-3.789 1.044-8.703-2.744-10.977-3.791-2.272-8.704-1.045-10.977 2.744l-16.971 28.284c-2.273 3.789-1.044 8.703 2.744 10.977z"/><path d="m246.228 189.324c3.805 2.28 8.712 1.03 10.977-2.744l16.971-28.284c2.272-3.789 1.044-8.703-2.744-10.977-3.792-2.273-8.704-1.045-10.977 2.744l-16.971 28.284c-2.273 3.79-1.044 8.704 2.744 10.977z"/><path d="m280.169 223.266c3.805 2.28 8.712 1.03 10.977-2.744l16.971-28.284c2.272-3.789 1.044-8.703-2.744-10.977-3.791-2.272-8.704-1.045-10.977 2.744l-16.971 28.284c-2.272 3.789-1.044 8.703 2.744 10.977z"/><path d="m251.885 285.49c3.805 2.28 8.712 1.03 10.977-2.744l16.971-28.284c2.272-3.789 1.044-8.703-2.744-10.977-3.791-2.272-8.704-1.044-10.977 2.744l-16.971 28.284c-2.272 3.79-1.044 8.704 2.744 10.977z"/><path d="m268.856 302.461c3.805 2.28 8.712 1.03 10.977-2.744l16.971-28.284c2.272-3.789 1.044-8.703-2.744-10.977-3.791-2.272-8.704-1.045-10.977 2.744l-16.971 28.284c-2.273 3.789-1.044 8.703 2.744 10.977z"/><path d="m285.827 319.432c3.805 2.28 8.712 1.03 10.977-2.744l16.971-28.284c2.272-3.789 1.044-8.703-2.744-10.977-3.791-2.272-8.703-1.044-10.977 2.744l-16.971 28.284c-2.273 3.789-1.044 8.703 2.744 10.977z"/><path d="m217.944 251.55c3.805 2.28 8.712 1.03 10.977-2.744l16.971-28.284c2.272-3.789 1.044-8.703-2.744-10.977-3.792-2.272-8.704-1.045-10.977 2.744l-16.971 28.284c-2.273 3.789-1.044 8.703 2.744 10.977z"/><path d="m226.176 192.574c-3.792-2.272-8.704-1.045-10.977 2.744l-16.971 28.284c-3.215 5.361.703 12.117 6.853 12.117 2.718 0 5.368-1.385 6.868-3.885l16.971-28.284c2.273-3.788 1.044-8.702-2.744-10.976z"/><path d="m234.915 268.52c3.805 2.28 8.712 1.03 10.977-2.744l16.971-28.284c2.272-3.789 1.044-8.703-2.744-10.977-3.792-2.272-8.704-1.044-10.977 2.744l-16.971 28.284c-2.273 3.79-1.045 8.704 2.744 10.977z"/><path d="m231.833 288.74c-3.792-2.272-8.704-1.045-10.977 2.744l-16.971 28.284c-3.215 5.361.703 12.117 6.853 12.117 2.718 0 5.368-1.385 6.868-3.885l16.971-28.284c2.273-3.788 1.045-8.702-2.744-10.976z"/><path d="m248.804 305.711c-3.791-2.273-8.704-1.044-10.977 2.744l-16.971 28.284c-3.215 5.361.703 12.117 6.853 12.117 2.718 0 5.368-1.385 6.868-3.885l16.971-28.284c2.273-3.789 1.044-8.703-2.744-10.976z"/><path d="m265.775 322.682c-3.791-2.273-8.704-1.045-10.977 2.744l-16.971 28.284c-3.215 5.361.703 12.117 6.853 12.117 2.718 0 5.368-1.385 6.868-3.885l16.971-28.284c2.272-3.789 1.044-8.703-2.744-10.976z"/><path d="m197.892 254.8c-3.792-2.272-8.704-1.044-10.977 2.744l-16.971 28.284c-3.215 5.361.703 12.117 6.853 12.117 2.718 0 5.368-1.385 6.868-3.885l16.971-28.284c2.273-3.789 1.044-8.703-2.744-10.976z"/><path d="m180.921 237.829c-3.791-2.272-8.704-1.045-10.977 2.744l-16.971 28.284c-3.215 5.361.703 12.117 6.853 12.117 2.718 0 5.368-1.385 6.868-3.885l16.971-28.284c2.273-3.788 1.044-8.703-2.744-10.976z"/><path d="m163.951 220.858c-3.791-2.272-8.704-1.044-10.977 2.744l-3.213 5.355-34.039-34.038c8.476-5.628 10.8-8.541 35.07-32.811l35.738 35.738-5.271 8.786c-2.272 3.789-1.044 8.703 2.744 10.977 3.805 2.28 8.712 1.03 10.977-2.744l16.97-28.284c2.272-3.789 1.044-8.703-2.744-10.977-3.792-2.272-8.704-1.045-10.977 2.744l-3.213 5.355-32.909-32.909c23.382-23.382 26.934-26.219 32.811-35.07l36.867 36.868-5.271 8.785c-2.272 3.789-1.044 8.703 2.744 10.977 3.805 2.28 8.712 1.03 10.977-2.744l16.97-28.284c2.272-3.789 1.044-8.703-2.744-10.977-3.792-2.273-8.704-1.044-10.977 2.744l-3.213 5.356-37.617-37.618c11.076-28.249 5.653-62.229-17.92-85.802l-5.656-5.655c-10.958-10.96-27.642-12.179-39.858-4.34-8.804-4.58-20.258-3.428-28.025 4.339l-101.822 101.823c-7.756 7.754-8.929 19.202-4.341 28.025-3.27 5.097-5.031 11.026-5.031 17.23 0 14.583 8.252 21.51 15.026 28.284 23.563 23.563 57.538 29.001 85.802 17.92l40.446 40.445-5.271 8.786c-3.215 5.361.703 12.117 6.853 12.117 2.718 0 5.368-1.385 6.868-3.885l16.97-28.284c2.272-3.788 1.044-8.702-2.744-10.976zm-143.265-98.347 101.823-101.825c1.511-1.511 3.52-2.343 5.656-2.343 7.182 0 10.635 8.681 5.656 13.656l-101.822 101.825c-3.126 3.126-8.186 3.126-11.313 0-3.133-3.133-3.122-8.193 0-11.313zm5.656 50.91c-5.65-5.649-10.341-9.054-10.341-16.97 0-2.122.412-4.179 1.193-6.083 8.538 3.518 18.944 1.944 26.118-5.23l101.823-101.824c7.17-7.168 8.75-17.578 5.232-26.118 5.724-2.35 12.644-1.263 17.396 3.491l5.656 5.656c25.008 25.006 25.012 65.499 0 90.509l-56.568 56.568c-25.006 25.009-65.499 25.013-90.509.001z"/><path d="m214.863 271.769c-3.792-2.272-8.704-1.044-10.977 2.744l-16.971 28.285c-3.215 5.361.703 12.117 6.853 12.117 2.718 0 5.368-1.385 6.868-3.885l16.971-28.285c2.272-3.788 1.044-8.702-2.744-10.976z"/></svg>