<svg id="Layer_1" enable-background="new 0 0 512 512" height="512" viewBox="0 0 512 512" width="512" xmlns="http://www.w3.org/2000/svg"><path d="m444.78 328.053c-4.34.83-7.185 5.021-6.354 9.36.182.949.364 1.89.555 2.829.65 3.764 3.933 6.623 7.883 6.623 4.418 0 8-3.587 8-8.005 0-1.073-.128-1.351-.723-4.453-.832-4.339-5.02-7.194-9.361-6.354z"/><path d="m503.983 248.12c-24.043-.033-34.274-22.854-55.73-43.588 8.243-28.71 5.679-53.563 26.521-65.605 3.825-2.21 5.136-7.103 2.925-10.929-2.209-3.825-7.101-5.134-10.928-2.926 0 0 0 0-.001.001-20.642 12.041-41.236-2.63-69.968-9.809-7.038-28.237-21.898-49.774-9.774-69.98v-.001c2.212-3.825.903-8.718-2.922-10.929-3.829-2.213-8.719-.901-10.93 2.922 0 0 0 0-.001.001-12.613 21.021-36.381 18.121-65.619 26.494-20.722-21.47-43.554-31.709-43.554-55.771 0-4.418-3.582-8-8-8s-8 3.582-8 8c0 24.035-22.771 34.275-43.479 55.701-28.64-8.213-53.483-5.709-65.491-26.528-2.207-3.827-7.098-5.141-10.926-2.934-3.827 2.207-5.142 7.099-2.935 10.926 0 .001 0 .001.001.002.001.003.002.004.003.006 12.01 20.844-2.64 41.119-9.861 70.067-28.957 7.211-49.225 21.849-70.049 9.851-4.277-2.333-8.896-.666-10.961 2.908-2.21 3.826-.899 8.719 2.927 10.929 20.801 12.014 18.294 36.863 26.493 65.5-21.462 20.731-31.682 43.452-55.691 43.452-10.233 0-10.858 15.429-.433 15.978 26.382 1.463 32.896 21.136 56.153 43.61-8.231 28.669-5.692 53.571-26.521 65.605-3.825 2.21-5.136 7.103-2.925 10.929 2.209 3.825 7.103 5.136 10.928 2.926 0 0 0 0 .001-.001 20.674-12.06 41.252 2.634 69.968 9.809 7.054 28.299 21.898 49.774 9.774 69.98v.001c-2.212 3.825-.903 8.718 2.922 10.929 3.824 2.211 8.718.903 10.93-2.922 0 0 0 0 .001-.001 12.613-21.021 36.381-18.121 65.619-26.494 20.722 21.47 43.554 31.709 43.554 55.771 0 4.418 3.582 8 8 8s8-3.582 8-8c0-24.035 22.771-34.275 43.479-55.701 28.64 8.213 53.483 5.709 65.491 26.528 2.201 3.816 7.09 5.145 10.926 2.934 3.827-2.207 5.142-7.099 2.935-10.926 0-.001 0-.001-.001-.002-.001-.003-.002-.004-.003-.006-12.01-20.844 2.64-41.119 9.861-70.067 27.991-6.97 50.252-22.035 70.079-9.833.001 0 .001 0 .002.001 3.827 2.209 8.719.898 10.928-2.926 2.21-3.825.901-8.718-2.924-10.929-4.475-2.585-7.996-5.768-10.767-9.729-4.044-5.779-13.021-3.828-14.397 3.004-35.935.154-66.303 34.575-117.936 7.146-5.206-2.765-11.537.873-11.748 6.78-2.032 57.083-45.069 67.123-63.926 96.547-18.925-29.53-61.885-39.371-63.924-96.547-.212-5.911-6.546-9.542-11.746-6.781-50.443 26.78-80.696-5.465-115.567-7.083 15.934-30.813 3.436-73.48 51.658-103.627 5.019-3.137 4.996-10.441.002-13.566-48.573-30.376-35.516-72.401-51.658-103.625 34.658-1.607 65.346-33.761 115.563-7.086 5.197 2.759 11.536-.862 11.748-6.78 2.035-57.168 44.996-67.01 63.926-96.547 18.984 29.622 61.884 39.328 63.924 96.547.212 5.911 6.546 9.542 11.746 6.781 50.517-26.819 80.601 5.461 115.567 7.083-15.934 30.813-3.436 73.48-51.658 103.627-5.019 3.137-4.996 10.441-.002 13.566 17.848 11.161 29.906 25.179 36.35 45.971 2.342 7.576 13.176 7.47 15.339-.201 21.998-20.812 32.273-44.433 56.703-44.433 10.482 0 10.747-16 .009-16zm-169.05 144.587c14.682 6.049 29.157 8.333 44.334 7.027-5.02 16.584-12.195 31.593-12.942 47.551-14.161-7.332-30.628-8.628-47.537-12.583 8.755-12.509 14.035-26.217 16.145-41.995zm-157.861-.003c2.105 15.746 7.367 29.429 16.088 41.921-16.917 3.949-33.472 5.236-47.658 12.564-.732-15.918-7.865-30.903-12.874-47.465 15.217 1.324 29.728-.959 44.444-7.02zm-78.92-136.705c-12.586 9.691-21.806 21.088-28.264 34.891-11.836-12.632-21.259-26.363-34.713-34.991 13.435-8.598 22.789-22.209 34.671-34.879 6.457 13.838 15.69 25.264 28.306 34.979zm78.92-136.706c-14.682-6.05-29.158-8.334-44.334-7.027 5.013-16.557 12.196-31.597 12.942-47.551 14.161 7.332 30.628 8.628 47.537 12.583-8.755 12.509-14.035 26.217-16.145 41.995zm157.861.003c-2.105-15.746-7.367-29.429-16.088-41.921 16.917-3.949 33.472-5.236 47.658-12.564.732 15.919 7.866 30.907 12.874 47.464-15.217-1.323-29.728.96-44.444 7.021zm107.226 171.684c-6.457-13.839-15.69-25.265-28.306-34.979 12.586-9.691 21.806-21.088 28.264-34.891 11.836 12.632 21.259 26.363 34.713 34.991-13.436 8.598-22.789 22.209-34.671 34.879z"/><path d="m309.66 301.657c3.124-3.125 3.124-8.189 0-11.314-3.125-3.123-8.189-3.123-11.314 0l-3.66 3.66c-18.267 18.268-5.484 49.997 20.709 49.997h7.451c11.164 0 21.201-6.203 26.195-16.19 12.603-25.207 13.814-53.442 1.097-83.136-10.982-25.627-46.362-27.849-60.602-4.113-8.674 14.458-24.537 23.439-41.398 23.439h-6.911c13.423-9.046 19.128-26.657 12.985-42.015-5.341-13.355-18.087-21.985-32.471-21.985h-53.738c-4.418 0-8 3.582-8 8s3.582 8 8 8h53.738c19.984 0 26.293 27.041 8.484 35.944l-25.801 12.9c-7.524 3.763-4.831 15.156 3.578 15.156h15.047c10.532 0 19.433 7.54 21.164 17.929 1.646 9.87-3.904 19.732-13.195 23.449-9.684 3.872-20.349 3.874-30.03 0-22.281-8.913-29.833-25.007-38.696-39.78-2.273-3.788-7.186-5.016-10.977-2.744-3.788 2.273-5.017 7.188-2.744 10.977 9.734 16.224 19.192 35.489 46.475 46.403 13.513 5.406 28.399 5.406 41.915 0 22.038-8.816 30.829-36.456 16.648-56.479 20.364-1.766 39.042-13.286 49.648-30.963 7.571-12.622 26.349-11.405 32.175 2.185 10.849 25.33 9.805 48.664-.701 69.678-2.266 4.531-6.819 7.346-11.885 7.346-7.546 0-13.925.954-18.507-5.917-3.501-5.252-2.803-12.303 1.66-16.766z"/><path d="m225.755 163.002c-2.76 3.45-2.2 8.485 1.249 11.245l30.739 24.591c20.219 16.174 50.406 10.302 62.885-12.735l5.266-9.721c2.104-3.885.661-8.74-3.224-10.845-3.884-2.105-8.74-.662-10.845 3.224l-5.266 9.721c-7.704 14.223-26.342 17.848-38.821 7.862l-30.738-24.591c-3.45-2.758-8.484-2.2-11.245 1.249z"/><path d="m280.002 168c4.418 0 8-3.582 8-8s-3.582-8-8-8h-8c-4.418 0-8 3.582-8 8s3.582 8 8 8z"/></svg>