<?xml version="1.0"?>
<svg xmlns="http://www.w3.org/2000/svg" xmlns:xlink="http://www.w3.org/1999/xlink" version="1.1" viewBox="0 0 226 226" width="48px" height="48px"><g fill="none" fill-rule="nonzero" stroke="none" stroke-width="1" stroke-linecap="butt" stroke-linejoin="miter" stroke-miterlimit="10" stroke-dasharray="" stroke-dashoffset="0" font-family="none" font-weight="none" font-size="none" text-anchor="none" style="mix-blend-mode: normal"><path d="M0,226v-226h226v226z" fill="none"/><g id="Layer_1"><path d="M113,23.54167c-12.42529,0 -50.23792,0 -71.14292,19.08758c-12.44883,12.40175 -18.31542,30.32167 -18.31542,56.24575v14.125c0,25.92408 5.86658,43.844 18.46137,56.387c6.2715,5.72063 14.82183,10.29242 25.27433,13.45171l3.34763,1.00758v25.086c0,2.94271 0.85221,2.94271 1.13471,2.94271c0.57913,0 1.50667,-0.18363 3.26758,-1.74679c0.42375,-0.41904 3.53125,-3.78079 18.645,-20.71196l1.5255,-1.70913l2.28354,0.14596c5.06146,0.31546 10.283,0.48025 15.51867,0.48025c12.42529,0 50.23792,0 71.14292,-19.09229c12.44413,-12.40175 18.31542,-30.32167 18.31542,-56.24104v-14.125c0,-25.92408 -5.86658,-43.844 -18.46138,-56.387c-20.75904,-18.94633 -58.57167,-18.94633 -70.99696,-18.94633z" fill="#9b59b6"/><path d="M157.49846,135.85425c-5.23096,-4.407 -7.64633,-5.73946 -14.86892,-10.07583c-3.00862,-1.80329 -7.59454,-3.36175 -10.0005,-3.36175c-1.64321,0 -3.61129,1.25713 -4.81663,2.46246c-3.08867,3.08867 -4.10096,6.95421 -9.51554,6.95421c-5.29687,0 -14.54875,-5.39104 -21.1875,-12.35937c-6.96833,-6.63875 -12.35937,-15.89062 -12.35937,-21.1875c0,-5.41458 3.79492,-6.4975 6.88358,-9.59087c1.20533,-1.20063 2.53308,-3.16871 2.53308,-4.81192c0,-2.40596 -1.55846,-6.92125 -3.36175,-9.92987c-4.33638,-7.22729 -5.66412,-9.64267 -10.07583,-14.86892c-1.49254,-1.77033 -3.19225,-2.58017 -4.972,-2.58487c-3.00862,-0.00471 -6.95892,1.48783 -9.63325,3.47946c-4.02092,2.99921 -8.22546,7.08133 -9.35075,12.16633c-0.15067,0.69213 -0.24013,1.38896 -0.26838,2.08579c-0.21658,5.29687 1.8645,10.67379 4.11037,15.22675c5.28746,10.73029 12.28404,21.11687 19.89742,30.39229c2.43421,2.96625 5.085,5.72533 7.82996,8.39025c2.66492,2.74025 5.424,5.39104 8.39025,7.82996c9.27542,7.61337 19.662,14.60996 30.39229,19.89742c4.51058,2.22233 9.82158,4.26575 15.06667,4.11508c0.74862,-0.02354 1.49725,-0.10829 2.24587,-0.27308c5.085,-1.12058 9.16713,-5.32983 12.16633,-9.35075c1.99162,-2.67433 3.48417,-6.61992 3.47946,-9.63325c-0.00471,-1.77975 -0.81454,-3.47946 -2.58487,-4.972z" fill="#ffffff"/><path d="M160.08333,113c-2.599,0 -4.70833,-2.10933 -4.70833,-4.70833v-4.70833c0,-23.36275 -19.01225,-42.375 -42.375,-42.375c-2.599,0 -4.70833,-2.10933 -4.70833,-4.70833c0,-2.599 2.10933,-4.70833 4.70833,-4.70833c28.55604,0 51.79167,23.23562 51.79167,51.79167v4.70833c0,2.599 -2.10933,4.70833 -4.70833,4.70833z" fill="#ffffff"/><path d="M131.16475,103.58333c-2.0905,0 -4.00208,-1.40308 -4.55296,-3.52183c-1.29008,-4.94846 -5.15092,-8.814 -10.08054,-10.08525c-2.51896,-0.65446 -4.03033,-3.2205 -3.38058,-5.73946c0.64975,-2.51425 3.21108,-4.02562 5.73946,-3.38058c8.23017,2.13287 14.68058,8.57858 16.83229,16.82758c0.65446,2.51896 -0.85221,5.085 -3.36646,5.74417c-0.40021,0.10358 -0.80042,0.15538 -1.19121,0.15538z" fill="#ffffff"/><path d="M145.95833,108.29167c-2.599,0 -4.70833,-2.10933 -4.70833,-4.70833c0,-15.01017 -11.74258,-27.39308 -26.73392,-28.18408c-2.599,-0.13654 -4.59063,-2.35417 -4.45408,-4.94846c0.13654,-2.599 2.39183,-4.59533 4.94846,-4.45408c19.99629,1.05467 35.65621,17.56679 35.65621,37.58663c0,2.599 -2.10933,4.70833 -4.70833,4.70833z" fill="#ffffff"/><path d="M113,18.83333c-21.1875,0 -54.20233,1.94925 -74.31633,20.32117c-14.21917,14.15796 -19.85033,34.01771 -19.85033,59.7205c0,2.12817 -0.00942,4.50117 0.00942,7.0625c-0.01883,2.55662 -0.00942,4.92963 -0.00942,7.05779c0,25.70279 5.63117,45.56254 19.85033,59.7205c7.65575,6.99187 17.20425,11.59192 27.233,14.62408v21.59242c0,7.5145 4.93904,7.65104 5.84304,7.65104h0.04238c2.32592,-0.00942 4.33638,-1.14883 6.35154,-2.938c0.75804,-0.67329 9.51083,-10.42896 19.03108,-21.09804c5.66883,0.36254 11.05517,0.49438 15.81058,0.49438v0v0c21.1875,0 54.19762,-1.95396 74.31633,-20.32587c14.21446,-14.15325 19.85033,-34.01771 19.85033,-59.7205c0,-2.12817 0.00942,-4.50117 -0.00942,-7.0625c0.01883,-2.56133 0.00942,-4.92963 0.00942,-7.0625c0,-25.70279 -5.63117,-45.56254 -19.85033,-59.7205c-20.114,-18.36721 -53.12412,-20.31646 -74.31162,-20.31646zM193.04167,111.35679v1.6385c0,23.09908 -4.92021,38.83904 -15.47158,49.494c-18.27775,16.42738 -53.09587,16.42738 -64.57479,16.42738c-3.49358,0 -9.16242,-0.00471 -15.85296,-0.47083c-1.85979,2.0905 -21.809,24.40329 -21.809,24.40329v-27.60496c-9.90633,-2.37771 -19.69496,-6.27621 -26.90342,-12.75017c-10.55137,-10.65967 -15.47158,-26.39963 -15.47158,-49.49871v-1.6385c0,-1.65262 -0.00471,-3.43708 0.00942,-5.52287c-0.01412,-1.88333 -0.01412,-3.66308 -0.00942,-5.32042v-1.6385c0,-23.09908 4.92021,-38.83904 15.47158,-49.494c18.27304,-16.42737 53.09587,-16.42737 64.57008,-16.42737c11.47421,0 46.29233,0 64.56537,16.42737c10.55608,10.65496 15.47158,26.39492 15.47158,49.494v1.6385c0,1.65262 0.00471,3.43708 -0.00942,5.52287c0.01413,1.88804 0.01413,3.66779 0.01413,5.32042z" fill="#ffffff"/></g></g></svg>
