<?xml version="1.0"?>
<svg xmlns="http://www.w3.org/2000/svg" xmlns:xlink="http://www.w3.org/1999/xlink" version="1.1" viewBox="0 0 226 226" width="50px" height="50px"><g fill="none" fill-rule="nonzero" stroke="none" stroke-width="1" stroke-linecap="butt" stroke-linejoin="miter" stroke-miterlimit="10" stroke-dasharray="" stroke-dashoffset="0" font-family="none" font-weight="none" font-size="none" text-anchor="none" style="mix-blend-mode: normal"><path d="M0,226v-226h226v226z" fill="none"/><g id="Layer_1"><g fill="#000000"><path d="M197.072,128.142c2.486,-4.972 4.068,-10.396 4.068,-16.272c0,-14.916 -9.492,-27.798 -22.6,-32.77v0c0,-26.216 -21.244,-47.46 -47.46,-47.46c-22.148,0 -40.68,15.142 -45.878,35.708c-3.39,-1.13 -6.78,-1.808 -10.622,-1.808c-17.402,0 -31.64,13.108 -33.674,30.058c-11.752,2.486 -20.566,12.882 -20.566,25.312c0,14.464 11.526,25.99 25.99,25.99c0.452,0 0.904,0 1.13,0c0,0.452 0,0.678 0,1.13c0,25.538 20.792,46.33 46.33,46.33c14.464,0 27.572,-6.78 35.934,-17.176c4.972,4.972 11.752,8.136 19.436,8.136c10.622,0 19.662,-6.102 24.182,-14.69c2.486,0.678 4.972,1.13 7.458,1.13c13.786,0 24.86,-11.074 24.86,-24.86c0,-7.458 -3.39,-14.238 -8.588,-18.758z"/></g><g><g fill="#fdfcef"><path d="M180.574,82.49c0,0 8.136,0 13.786,0c5.65,0 10.17,-4.52 10.17,-10.17c0,-5.198 -4.068,-9.492 -9.266,-10.17c0,-0.452 0.226,-0.904 0.226,-1.13c0,-5.65 -4.52,-10.17 -10.17,-10.17c-3.164,0 -6.102,1.582 -7.91,3.842c-0.226,-5.876 -5.198,-10.622 -11.3,-10.622c-6.328,0 -11.3,4.972 -11.3,11.3c0,0.904 0.226,2.034 0.452,2.938c-1.582,-1.808 -3.616,-2.938 -6.102,-2.938c-4.068,0 -7.232,2.938 -7.91,7.006c-0.452,0 -0.904,-0.226 -1.13,-0.226c-5.65,0 -10.17,4.52 -10.17,10.17c0,5.65 4.52,10.17 10.17,10.17c5.65,0 21.47,0 21.47,0h12.204v1.13h6.78z"/></g><g fill="#472b29"><path d="M166.11,42.94c-6.78,0 -12.43,5.65 -12.43,12.43v0c-1.356,-0.904 -2.938,-1.13 -4.52,-1.13c-4.068,0 -7.684,2.938 -8.814,6.78h-0.226c-6.328,0 -11.3,4.972 -11.3,11.3c0,6.328 4.972,11.3 11.3,11.3h33.674c0.678,0 1.13,-0.452 1.13,-1.13c0,-0.678 -0.452,-1.13 -1.13,-1.13h-33.674c-4.972,0 -9.04,-4.068 -9.04,-9.04c0,-4.972 4.068,-9.04 9.04,-9.04c0.226,0 0.452,0 0.678,0h0.226c0,0 0,0 0.226,0c0.452,0 1.13,-0.452 1.13,-0.904c0.452,-3.39 3.39,-5.876 6.78,-5.876c2.034,0 3.842,0.904 5.198,2.486c0.226,0.226 0.452,0.452 0.904,0.452c0.226,0 0.452,0 0.452,-0.226c0.452,-0.226 0.678,-0.678 0.678,-1.356c-0.226,-0.904 -0.452,-1.808 -0.452,-2.712c0,-5.65 4.52,-10.17 10.17,-10.17c5.424,0 9.718,4.294 10.17,9.718c0,0.452 0.452,0.904 0.678,1.13c0.226,0 0.226,0 0.452,0c0.452,0 0.678,-0.226 0.904,-0.452c1.808,-2.26 4.294,-3.39 7.006,-3.39c4.972,0 9.04,4.068 9.04,9.04c0,0.226 0,0.452 0,0.678v0.226c0,0.226 0,0.678 0.226,0.904c0.226,0.226 0.452,0.452 0.678,0.452c4.746,0.452 8.136,4.294 8.136,9.04c0,4.972 -4.068,9.04 -9.04,9.04h-13.786c-0.678,0 -1.13,0.452 -1.13,1.13c0,0.678 0.452,1.13 1.13,1.13h13.786c6.328,0 11.3,-4.972 11.3,-11.3c0,-5.424 -3.842,-9.944 -9.04,-11.074v-0.226c0,-6.328 -4.972,-11.3 -11.3,-11.3c-2.712,0 -5.198,0.904 -7.232,2.712c-1.356,-5.424 -6.102,-9.492 -11.978,-9.492z"/></g><g fill="#472b29"><path d="M162.72,58.76c-3.164,0 -5.876,2.26 -6.554,5.198c-0.904,-0.452 -1.808,-0.678 -2.712,-0.678c-2.712,0 -4.972,2.034 -5.424,4.746c-0.452,0 -0.904,-0.226 -1.356,-0.226c-3.39,0 -6.328,2.712 -6.554,6.102c0,0.226 0.226,0.678 0.452,0.678v0c0.226,0 0.452,-0.226 0.452,-0.452c0.226,-2.938 2.712,-5.198 5.424,-5.198c0.452,0 1.13,0 1.582,0.226c0,0 0,0 0.226,0c0.226,0 0.226,0 0.452,-0.226c0.226,0 0.226,-0.226 0.226,-0.452c0,-2.26 1.808,-4.294 4.294,-4.294c0.904,0 2.034,0.452 2.712,1.13c0,0 0.226,0.226 0.452,0.226h0.226c0.226,0 0.226,-0.226 0.452,-0.452c0.226,-2.938 2.712,-5.198 5.65,-5.198c0.452,0 0.904,0 1.582,0.226c0,0 0,0 0.226,0c0.226,0 0.452,-0.226 0.452,-0.452c0,-0.226 0,-0.678 -0.452,-0.678c-0.678,-0.226 -1.13,-0.226 -1.808,-0.226z"/></g><g fill="#472b29"><path d="M194.134,62.15c-2.938,0 -5.65,2.034 -6.554,4.972c0,0.226 0,0.678 0.452,0.678c0,0 0,0 0.226,0c0.226,0 0.452,-0.226 0.452,-0.452c0.678,-2.486 2.938,-4.068 5.424,-4.068c0.226,0 0.452,0 0.678,0v0c0.226,0 0.452,-0.226 0.452,-0.452c0,-0.226 -0.226,-0.678 -0.452,-0.678c0,0 -0.452,0 -0.678,0z"/></g></g><g fill="#ffffff"><g><path d="M34.804,115.26h-22.374c-0.678,0 -1.13,-0.452 -1.13,-1.13c0,-0.678 0.452,-1.13 1.13,-1.13h22.374c0.678,0 1.13,0.452 1.13,1.13c0,0.678 -0.452,1.13 -1.13,1.13z"/></g><g><path d="M41.81,115.26h-2.26c-0.678,0 -1.13,-0.452 -1.13,-1.13c0,-0.678 0.452,-1.13 1.13,-1.13h2.26c0.678,0 1.13,0.452 1.13,1.13c0,0.678 -0.452,1.13 -1.13,1.13z"/></g><g><path d="M53.11,119.78h-20.34c-0.678,0 -1.13,-0.452 -1.13,-1.13c0,-0.678 0.452,-1.13 1.13,-1.13h20.34c0.678,0 1.13,0.452 1.13,1.13c0,0.678 -0.452,1.13 -1.13,1.13z"/></g><g><path d="M28.25,119.78h-2.26c-0.678,0 -1.13,-0.452 -1.13,-1.13c0,-0.678 0.452,-1.13 1.13,-1.13h2.26c0.678,0 1.13,0.452 1.13,1.13c0,0.678 -0.452,1.13 -1.13,1.13z"/></g><g><path d="M21.47,119.78h-4.52c-0.678,0 -1.13,-0.452 -1.13,-1.13c0,-0.678 0.452,-1.13 1.13,-1.13h4.52c0.678,0 1.13,0.452 1.13,1.13c0,0.678 -0.452,1.13 -1.13,1.13z"/></g><g><path d="M35.03,124.3h-4.52c-0.678,0 -1.13,-0.452 -1.13,-1.13c0,-0.678 0.452,-1.13 1.13,-1.13h4.52c0.678,0 1.13,0.452 1.13,1.13c0,0.678 -0.452,1.13 -1.13,1.13z"/></g><g><path d="M41.81,103.96c-0.452,0 -1.808,0 -2.26,0c-0.678,0 -1.13,0.452 -1.13,1.13c0,0.678 0.452,1.13 1.13,1.13c0.452,0 1.808,0 2.26,0c0.678,0 1.13,-0.452 1.13,-1.13c0,-0.678 -0.452,-1.13 -1.13,-1.13z"/></g><g><path d="M41.81,108.48c-0.452,0 -10.848,0 -11.3,0c-0.678,0 -1.13,0.452 -1.13,1.13c0,0.678 0.452,1.13 1.13,1.13c0.452,0 10.848,0 11.3,0c0.678,0 1.13,-0.452 1.13,-1.13c0,-0.678 -0.452,-1.13 -1.13,-1.13z"/></g><g><path d="M53.11,113c-0.452,0 -6.328,0 -6.78,0c-0.678,0 -1.13,0.452 -1.13,1.13c0,0.678 0.452,1.13 1.13,1.13c0.452,0 6.328,0 6.78,0c0.678,0 1.13,-0.452 1.13,-1.13c0,-0.678 -0.452,-1.13 -1.13,-1.13z"/></g></g><g fill="#ffffff"><g><path d="M195.49,137.86h-22.6c-0.678,0 -1.13,-0.452 -1.13,-1.13c0,-0.678 0.452,-1.13 1.13,-1.13h22.6c0.678,0 1.13,0.452 1.13,1.13c0,0.678 -0.452,1.13 -1.13,1.13z"/></g><g><path d="M204.53,137.86h-4.52c-0.678,0 -1.13,-0.452 -1.13,-1.13c0,-0.678 0.452,-1.13 1.13,-1.13h4.52c0.678,0 1.13,0.452 1.13,1.13c0,0.678 -0.452,1.13 -1.13,1.13z"/></g><g><path d="M215.83,142.38h-22.6c-0.678,0 -1.13,-0.452 -1.13,-1.13c0,-0.678 0.452,-1.13 1.13,-1.13h22.6c0.678,0 1.13,0.452 1.13,1.13c0,0.678 -0.452,1.13 -1.13,1.13z"/></g><g><path d="M188.71,142.38h-2.26c-0.678,0 -1.13,-0.452 -1.13,-1.13c0,-0.678 0.452,-1.13 1.13,-1.13h2.26c0.678,0 1.13,0.452 1.13,1.13c0,0.678 -0.452,1.13 -1.13,1.13z"/></g><g><path d="M181.704,142.38h-4.294c-0.678,0 -1.13,-0.452 -1.13,-1.13c0,-0.678 0.452,-1.13 1.13,-1.13h4.294c0.678,0 1.13,0.452 1.13,1.13c0,0.678 -0.452,1.13 -1.13,1.13z"/></g><g><path d="M202.27,133.34h-11.3c-0.678,0 -1.13,-0.452 -1.13,-1.13c0,-0.678 0.452,-1.13 1.13,-1.13h11.3c0.678,0 1.13,0.452 1.13,1.13c0,0.678 -0.452,1.13 -1.13,1.13z"/></g><g><path d="M195.49,146.9h-4.52c-0.678,0 -1.13,-0.452 -1.13,-1.13c0,-0.678 0.452,-1.13 1.13,-1.13h4.52c0.678,0 1.13,0.452 1.13,1.13c0,0.678 -0.452,1.13 -1.13,1.13z"/></g></g><g><g fill="#e74c3c"><rect x="29.7" y="30.7" transform="scale(2.26,2.26)" width="43.6" height="7.6"/></g><g fill="#472b29"><path d="M164.076,70.964v14.012h-95.372v-14.012l95.372,0M167.24,67.8h-101.7v20.34h101.7v-20.34z"/></g></g><g><g fill="#e74c3c"><rect x="29.7" y="45.7" transform="scale(2.26,2.26)" width="43.6" height="7.6"/></g><g fill="#472b29"><path d="M164.076,104.864v14.012h-95.372v-14.012h95.372M167.24,101.7h-101.7v20.34h101.7v-20.34z"/></g></g><g><g fill="#e74c3c"><rect x="29.7" y="60.7" transform="scale(2.26,2.26)" width="43.6" height="7.6"/></g><g fill="#472b29"><path d="M164.076,138.764v14.012h-95.372v-14.012h95.372M167.24,135.6h-101.7v20.34h101.7v-20.34z"/></g></g><g fill="#472b29"><path d="M134.47,115.26h-67.8c-0.678,0 -1.13,-0.452 -1.13,-1.13c0,-0.678 0.452,-1.13 1.13,-1.13h67.8c0.678,0 1.13,0.452 1.13,1.13c0,0.678 -0.452,1.13 -1.13,1.13z"/></g><g fill="#472b29"><path d="M157.296,115.26h-2.034c-0.678,0 -1.13,-0.452 -1.13,-1.13c0,-0.678 0.452,-1.13 1.13,-1.13h2.034c0.678,0 1.13,0.452 1.13,1.13c0,0.678 -0.452,1.13 -1.13,1.13z"/></g><g fill="#472b29"><path d="M163.85,149.16h-88.14c-0.678,0 -1.13,-0.452 -1.13,-1.13c0,-0.678 0.452,-1.13 1.13,-1.13h88.14c0.678,0 1.13,0.452 1.13,1.13c0,0.678 -0.452,1.13 -1.13,1.13z"/></g><g fill="#472b29"><path d="M70.964,155.94h-2.034c-0.678,0 -1.13,-0.452 -1.13,-1.13c0,-0.678 0.452,-1.13 1.13,-1.13h2.034c0.678,0 1.13,0.452 1.13,1.13c0,0.678 -0.452,1.13 -1.13,1.13z"/></g><g fill="#472b29"><path d="M148.03,79.1h-81.36c-0.678,0 -1.13,-0.452 -1.13,-1.13c0,-0.678 0.452,-1.13 1.13,-1.13h81.36c0.678,0 1.13,0.452 1.13,1.13c0,0.678 -0.452,1.13 -1.13,1.13z"/></g><g fill="#472b29"><path d="M157.07,79.1h-2.034c-0.678,0 -1.13,-0.452 -1.13,-1.13c0,-0.678 0.452,-1.13 1.13,-1.13h2.034c0.678,0 1.13,0.452 1.13,1.13c0,0.678 -0.452,1.13 -1.13,1.13z"/></g><g fill="#472b29"><path d="M148.934,115.26h-7.684c-0.678,0 -1.13,-0.452 -1.13,-1.13c0,-0.678 0.452,-1.13 1.13,-1.13h7.684c0.678,0 1.13,0.452 1.13,1.13c0,0.678 -0.452,1.13 -1.13,1.13z"/></g><g><g fill="#fdfcef"><path d="M84.75,172.89c0,0 3.616,0 7.91,0c4.294,0 7.91,-3.616 7.91,-7.91c0,-4.068 -2.938,-7.232 -7.006,-7.91c0,-0.452 0.226,-0.904 0.226,-1.13c0,-4.294 -3.616,-7.91 -7.91,-7.91c-2.26,0 -4.52,1.13 -5.876,2.712c-0.904,-4.068 -4.52,-7.232 -8.814,-7.232c-4.972,0 -9.04,4.068 -9.04,9.04c0,0.452 0,0.904 0.226,1.356c-0.904,-0.678 -2.26,-1.356 -3.616,-1.356c-2.712,0 -4.972,2.034 -5.65,4.746c-0.452,0 -0.904,-0.226 -1.13,-0.226c-4.294,0 -7.91,3.616 -7.91,7.91c0,4.294 3.616,7.91 7.91,7.91c4.294,0 16.95,0 16.95,0v1.13h15.82z"/></g><g fill="#472b29"><path d="M88.818,162.72c-0.226,0 -0.678,-0.226 -0.678,-0.678c0,-2.712 2.26,-4.972 4.972,-4.972c0,0 1.582,0 2.712,0.226c0.226,0 0.452,0.452 0.452,0.678c0,0.226 -0.452,0.452 -0.678,0.452c-0.904,-0.226 -2.486,-0.226 -2.486,-0.226c-2.034,0 -3.842,1.808 -3.842,3.842c0,0.452 -0.226,0.678 -0.452,0.678z"/></g><g fill="#472b29"><circle cx="32.5" cy="76.5" transform="scale(2.26,2.26)" r="0.5"/></g><g fill="#472b29"><path d="M92.66,174.02h-7.91c-0.678,0 -1.13,-0.452 -1.13,-1.13c0,-0.678 0.452,-1.13 1.13,-1.13h7.91c3.842,0 6.78,-2.938 6.78,-6.78c0,-3.39 -2.486,-6.328 -5.876,-6.78c-0.226,0 -0.678,-0.226 -0.678,-0.452c0,-0.226 -0.226,-0.452 -0.226,-0.904c0,-0.452 0,-0.678 0,-1.13c0,-3.842 -2.938,-6.78 -6.78,-6.78c-1.808,0 -3.616,0.904 -4.972,2.26c-0.226,0.226 -0.678,0.452 -1.13,0.226c-0.452,0 -0.678,-0.452 -0.904,-0.904c-0.678,-3.616 -4.068,-6.328 -7.684,-6.328c-4.294,0 -7.91,3.616 -7.91,7.91c0,0.226 0,0.678 0,0.904c0,0.452 -0.226,0.904 -0.452,1.13c-0.226,0.226 -0.904,0.226 -1.356,0c-0.678,0 -1.808,-0.452 -2.712,-0.452c-2.26,0 -4.068,1.582 -4.52,3.616c0,0.678 -0.678,0.904 -1.356,0.904c-0.452,0 -0.678,0 -1.13,0c-3.842,0 -6.78,2.938 -6.78,6.78c0,3.842 2.938,6.78 6.78,6.78h16.95c0.678,0 1.13,0.452 1.13,1.13c0,0.678 -0.226,1.13 -0.904,1.13h-16.95c-4.972,0 -9.04,-4.068 -9.04,-9.04c0,-4.972 4.068,-9.04 9.04,-9.04c0.226,0 0.226,0 0.452,0c0.904,-2.712 3.39,-4.52 6.328,-4.52c0.678,0 1.582,0.226 2.26,0.452c0.452,-5.198 4.746,-9.492 10.17,-9.492c4.068,0 7.91,2.486 9.492,6.328c1.582,-1.13 3.39,-1.808 5.198,-1.808c4.972,0 9.04,4.068 9.04,9.04v0.226c3.842,0.904 6.78,4.52 6.78,8.814c0,4.972 -4.068,9.04 -9.04,9.04z"/></g><g fill="#472b29"><path d="M80.23,171.76c-0.452,0 -1.808,0 -2.26,0c-0.678,0 -1.13,0.452 -1.13,1.13c0,0.678 0.452,1.13 1.13,1.13c0.452,0 1.808,0 2.26,0c0.678,0 1.13,-0.452 1.13,-1.13c0,-0.678 -0.452,-1.13 -1.13,-1.13z"/></g></g></g></g></svg>
