<?xml version="1.0" encoding="iso-8859-1"?>
<!-- Generator: Adobe Illustrator 18.0.0, SVG Export Plug-In . SVG Version: 6.00 Build 0)  -->
<!DOCTYPE svg PUBLIC "-//W3C//DTD SVG 1.1//EN" "http://www.w3.org/Graphics/SVG/1.1/DTD/svg11.dtd">
<svg version="1.1" id="Capa_1" xmlns="http://www.w3.org/2000/svg" xmlns:xlink="http://www.w3.org/1999/xlink" x="0px" y="0px"
	 viewBox="0 0 447.538 447.538" style="enable-background:new 0 0 447.538 447.538;" xml:space="preserve">
<path d="M447.479,99.902c0-48.812-39.711-88.523-88.522-88.523s-88.523,39.711-88.523,88.523v57.161H10c-5.523,0-10,4.477-10,10
	v259.095c0,5.523,4.477,10,10,10h348.957c23.072,0,44.692-7.819,60.877-22.017c16.262-14.265,26.164-34.095,27.646-56.003
	C447.611,357.49,447.479,99.902,447.479,99.902z M358.957,31.379c37.783,0,68.522,30.739,68.522,68.523v174.497
	c-12.525-15.293-29.968-26.069-49.158-30.349c-6.309-1.416-12.825-2.133-19.368-2.133c-22.405,0-43.785,8.391-60.2,23.626
	c-2.992,2.777-5.766,5.739-8.319,8.855V99.902C290.433,62.118,321.172,31.379,358.957,31.379z M366.132,262.29v102.438h-37.14
	c-20.145,0-36.995-15.671-38.454-35.719c-0.003-0.844,0.058-3.332,0.116-4.07c1.355-17.117,9.063-33.004,21.703-44.736
	c12.704-11.792,29.252-18.286,46.595-18.286C361.357,261.918,363.754,262.042,366.132,262.29z M427.403,355.395
	c-1.644,35.209-30.43,60.764-68.446,60.764H20V177.063h250.433c0,0-0.05,152.344,0,153.084c2.062,30.605,27.859,54.58,58.56,54.58
	h47.14c5.522,0,10-4.477,10-10V267.531c10.076,4.368,19.079,11.154,26.076,19.777c9.953,12.268,15.229,27.113,15.271,42.942v24.293
	C427.442,354.823,427.417,355.108,427.403,355.395z"/>
<g>
</g>
<g>
</g>
<g>
</g>
<g>
</g>
<g>
</g>
<g>
</g>
<g>
</g>
<g>
</g>
<g>
</g>
<g>
</g>
<g>
</g>
<g>
</g>
<g>
</g>
<g>
</g>
<g>
</g>
</svg>
