<?xml version="1.0" encoding="UTF-8" standalone="no"?>
<svg
   xmlns:dc="http://purl.org/dc/elements/1.1/"
   xmlns:cc="http://creativecommons.org/ns#"
   xmlns:rdf="http://www.w3.org/1999/02/22-rdf-syntax-ns#"
   xmlns:svg="http://www.w3.org/2000/svg"
   xmlns="http://www.w3.org/2000/svg"
   xmlns:sodipodi="http://sodipodi.sourceforge.net/DTD/sodipodi-0.dtd"
   xmlns:inkscape="http://www.inkscape.org/namespaces/inkscape"
   version="1.1"
   id="Capa_1"
   x="0px"
   y="0px"
   viewBox="0 0 189.99887 189.99887"
   xml:space="preserve"
   width="190"
   height="190"
   sodipodi:docname="yoga-round.svg"
   inkscape:version="0.92.2 5c3e80d, 2017-08-06"><metadata
     id="metadata15"><rdf:RDF><cc:Work
         rdf:about=""><dc:format>image/svg+xml</dc:format><dc:type
           rdf:resource="http://purl.org/dc/dcmitype/StillImage" /><dc:title></dc:title></cc:Work></rdf:RDF></metadata><defs
     id="defs13" /><sodipodi:namedview
     pagecolor="#ffffff"
     bordercolor="#666666"
     borderopacity="1"
     objecttolerance="10"
     gridtolerance="10"
     guidetolerance="10"
     inkscape:pageopacity="0"
     inkscape:pageshadow="2"
     inkscape:window-width="1280"
     inkscape:window-height="707"
     id="namedview11"
     showgrid="false"
     inkscape:zoom="1.84375"
     inkscape:cx="169.22034"
     inkscape:cy="118.72455"
     inkscape:window-x="0"
     inkscape:window-y="1"
     inkscape:window-maximized="1"
     inkscape:current-layer="Capa_1" /><g
     id="g1321"
     transform="translate(7.5931751,-214.43944)"
     inkscape:export-xdpi="94.099998"
     inkscape:export-ydpi="94.099998"><ellipse
       ry="70.711288"
       rx="70.440109"
       cy="309.69305"
       cx="88.135078"
       id="path907"
       style="opacity:1;fill:none;fill-opacity:1;stroke:#ff82cd;stroke-width:34.99979401;stroke-linecap:round;stroke-miterlimit:4;stroke-dasharray:none;stroke-opacity:1" /><path
       d="m 91.660477,312.9473 c -1.767583,-2.39304 2.353696,-3.56331 3.977376,-2.93784 4.400077,1.69497 4.255351,7.63552 1.8983,10.89259 -4.216211,5.82612 -12.810047,5.29102 -17.807805,0.85876 -7.334411,-6.50452 -6.369256,-18.05905 0.180776,-24.72302 8.730161,-8.88202 23.335056,-7.46633 31.638236,1.22031 10.4487,10.93126 8.57329,28.62407 -2.25985,38.55345 -13.120394,12.02581 -33.920437,9.68602 -45.468667,-3.29939 -13.609191,-15.30284 -10.802349,-39.22138 4.338928,-52.38387 17.481203,-15.19662 44.525399,-11.9211 59.299089,5.37846 16.78681,19.65687 13.04154,49.83157 -6.418,66.21431 -21.830662,18.37896 -55.139301,14.16319 -73.129522,-7.45754 -19.972556,-24.00312 -15.285768,-60.44821 8.49708,-80.04474"
       sodipodi:t0="0"
       sodipodi:argument="-21.056541"
       sodipodi:radius="59.336834"
       sodipodi:revolution="3"
       sodipodi:expansion="1"
       sodipodi:cy="312.9473"
       sodipodi:cx="91.660477"
       id="path1317"
       style="fill:none;fill-rule:evenodd;stroke:#ff82cd;stroke-width:0.99999416;stroke-opacity:1"
       sodipodi:type="spiral" /></g></svg>