<svg id="Layer_1" enable-background="new 0 0 512.026 512.026" height="512" viewBox="0 0 512.026 512.026" width="512" xmlns="http://www.w3.org/2000/svg"><path d="m266.007 161.172c2.987 2.067 4.626 3.602 7.696 3.602 7.813 0 11.004-10.118 4.56-14.579l-3.15-2.18c-3.635-2.514-8.616-1.606-11.131 2.026s-1.608 8.616 2.025 11.131z"/><path d="m504 384.287h-9.409c-3.381-15.026-16.505-28.205-36.558-28.205l-1.229-1.229c9.962-6.288 17.486-15.806 21.27-26.98 22.347 5.498 41.048-17.874 31.313-38.248-6.302-13.149-9.13-23.007-21.853-27.39-10.513-3.619-21.727-.358-28.934 7.475-20.005-17.093-47.735-20.008-70.77-9.751-21.481-39.986-49.51-68.2-83.52-91.726-3.633-2.514-8.616-1.606-11.13 2.028s-1.605 8.617 2.028 11.13c32.35 22.38 58.632 48.876 78.839 86.753-.676.513-1.35 1.028-2.006 1.565l-14.193-15.206c-2.451-2.625-6.253-3.232-9.324-1.75-4.866 2.344-6.049 8.734-2.376 12.669 22.956 24.588 18.643 20.045 22.914 24.317 1.118 1.078 67.722 67.751 68.558 68.557 11.785 11.785 12.714 13.786 17.1 13.786 5.455 0 12.303-.608 18.84 5.912 1.839 1.843 3.28 3.976 4.281 6.293h-25.741c-9.905 0-18.879-5.6-23.271-14.381-.982-1.962 5.733 4.365-80.47-72.665-.319-.283 2.81 2.315-28.896-23.94-3.403-2.817-8.446-2.345-11.265 1.06-2.828 3.415-2.331 8.459 1.062 11.268 18.506 15.325 16.295 13.268 15.54 13.436-18.845 4.2-36.149-10.246-36.149-29.001 0-4.163 2.741.237-56.844-69.275-1.579-4.113-6.039-6.083-10.007-4.761-.1.033-93.221 70.962-137.088 104.34l-11.093-20.443c87.802-121.863 82.385-114.151 82.933-115.452 2.381-5.646 11.259-23.014 20.51-28.57 17.104-10.277 40.646-9.904 48.188-4.231l-3.918 31.351c-1.138 9.106 11.572 12.557 15.253 4.228.647-1.46.412-.545 3.356-24.107 1.461 1.019 3.003 1.531 4.71 1.531 7.94 0 10.982-10.316 4.421-14.669l-9.77-6.77c-12.543-16.052-48.516-14.247-70.48-1.049-14.3 8.588-24.387 30.077-26.642 35.208l-84.03 116.625-49.652 46.426c-8.606 8.047-10.938 21.027-5.668 31.565 9.483 18.966 11.578 24.67 19.025 32.276h-13.855c-4.418 0-8 3.582-8 8s3.582 8 8 8h496c4.418 0 8-3.582 8-8s-3.582-8-8-8zm-15.665-101.565 6.619 13.811c5.144 10.768-8.721 21.244-17.406 13.581-1.039-.959-1.848-1.881-2.568-3.395-6.832-14.258-8.727-16.247-7.214-21.563 2.898-9.796 16.232-11.509 20.569-2.434zm-78.881-12.313 6.563 15.422c1.729 4.065 6.429 5.96 10.493 4.229 4.066-1.73 5.959-6.428 4.229-10.494l-3.508-8.243c9.469 2.174 17.393 6.718 24.292 13.616-.428 3.458-.169 7.194.869 10.786.897 3.106 8.242 19.23 11.567 23.283-2.341 10.781-9.641 19.555-18.89 24.11l-16.825-16.825c2.052-4.942 5.009-9.249 8.5-12.741 3.124-3.124 3.124-8.189 0-11.313-3.125-3.124-8.189-3.124-11.314 0-3.564 3.565-6.746 7.792-9.15 12.089l-33.074-33.075c7.712-5.992 16.697-9.7 26.248-10.844zm-390.028 61.725 42.67-39.897 10.22 18.835-27.386 28.683c-1.802 1.887-2.57 4.535-2.059 7.093l7.221 36.101c-10.148-2.775-18.764-9.718-23.638-19.466l-9.313-18.627c-2.123-4.248-1.184-9.479 2.285-12.722zm39.951 15.658 28.079-29.408 135.622-103.194 49.675 57.951c1.584 23.786 21.394 42.651 45.517 42.651 6.358 0 9.802-1.065 22.487-3.888 92.083 82.285 69.763 61.467 78.375 72.382h-352.455z"/></svg>