<svg id="Layer_1" enable-background="new 0 0 512 512" height="512" viewBox="0 0 512 512" width="512" xmlns="http://www.w3.org/2000/svg"><path d="m472.173 403.753-4.263-.534v-63.249c0-4.418-3.582-8-8-8s-8 3.582-8 8v70.31c0 4.034 3.004 7.437 7.007 7.938l11.272 1.411c11.836 1.478 21.526 9.932 24.708 21.23h-57.056c-7.734-.016-14.021-6.311-14.021-14.049 0-7.081 0-169.245 0-176.35 0-11.224-16-11.234-16 0v57.779c-42.62-1.214-66.359 7.205-128.001-19.24l-5.629-39.439c-.625-4.374-4.679-7.415-9.05-6.79-4.374.625-7.414 4.676-6.79 9.05l6.159 43.151c-2.922 78.463-.479 57.188-8.712 119.711-2.239 15.85-15.349 26.146-29.604 26.176h-66.904v-27.455l46.559-6.573c4.291-.605 7.319-4.517 6.831-8.822-9.188-81.126-30.335-95.555-20.558-134.59 9.349-37.404 68.62-38.027 69.391-38.03 30.116.002 64.961 30.649 105.211 9.676 13.595-7.077 32.003-28.87 46.136-49.764 9.082 7.72 19.166 12.903 29.806 15.907 10.961 26.912 9.245 41.259 9.245 74.761 0 4.418 3.582 8 8 8s8-3.582 8-8c0-31.529 1.74-45.756-7.084-71.828 24.502 1.133 40.152-16.263 40.152-35.457v-48.222c0-41.904-45.948-69.815-84.779-49.55-12.525-22.869-47.072-20.409-55.828 4.375l-5.963 16.938c-7.164 20.277 9.108 41.632 31.512 39.751.887 14.714 6.07 29.065 15.622 41.464-14.775 22.414-32.4 42.327-42.21 47.434-33.053 17.223-63.447-11.485-97.823-11.485-2.955 0-72.519.57-84.91 50.146-10.922 43.605 9.824 58.931 19.25 132.548l-108.008 15.251c-4.938-6.556-12.741-10.563-21.171-10.563-6.666 0-7.223.849-41.168 14.432-15.492 6.191-25.501 20.972-25.502 37.656 0 4.428 3.588 8.002 8 8.002h496c4.418 0 8-3.582 8-8 0-23.064-17.219-42.284-39.827-45.107zm4.985-306.77c-8.797 12.653-23.23 19.614-38.038 19.614-4.418 0-8 3.582-8 8s3.582 8 8 8c17.682 0 33.912-7.333 45.219-19.153.899 4.906.639 4.013.639 55.242 0 10.783-9.125 19.556-20.341 19.556-15.313 0-29.397-5.322-40.317-14.199l7.727-19.176c1.651-4.098-.333-8.759-4.431-10.41-4.098-1.649-8.759.332-10.41 4.431l-4.909 12.184c-7.802-11.325-10.519-22.855-10.519-35.078 9.45-7.041 10.809-15.217 16.381-31.031.743-2.108 1.381-4.885 1.593-7.454.041-.506 10.103-7.266 23.626-7.266 13.727-.002 26.108 6.401 33.78 16.74zm-107.661.565 5.963-16.938c5.068-14.346 26.935-11.766 28.347 3.274.122 2.06-.033 3.757-.738 5.759-6.125 17.384-6.548 21.621-12.95 24.822-11.449 5.888-24.921-4.744-20.622-16.917zm-97.874 319.51c7.909-55.69 6.518-54.883 8.48-110.606 59.756 24.312 86.317 16.571 127.717 17.803v102.555c0 5.073 1.269 9.853 3.497 14.049h-150.422c5.653-6.551 9.512-14.727 10.728-23.801zm-240.181 9c33.583-13.437 32.405-13.288 35.228-13.288 4.153 0 7.923 2.456 9.604 6.255 1.426 3.224 4.779 5.424 10.005 4.686l57.011-8.048v25.196h-125.968c2.269-6.637 7.322-12.084 14.12-14.801z"/><circle cx="460" cy="307.971" r="8"/></svg>