<svg id="Layer_1" enable-background="new 0 0 512 512" height="512" viewBox="0 0 512 512" width="512" xmlns="http://www.w3.org/2000/svg"><path d="m423.021 249.665-1.359 1.36c-3.123 3.125-3.121 8.19.004 11.313 3.125 3.122 8.189 3.123 11.314-.004l1.359-1.36c3.123-3.125 3.121-8.19-.004-11.313-3.125-3.122-8.189-3.122-11.314.004z"/><path d="m480.688 166.626c5.618-5.618 15.312-1.631 15.312 6.344 0 2.362-.958 4.674-2.627 6.343l-47.71 47.71c-5.056 5.056-1.405 13.657 5.657 13.657 2.048 0 4.095-.781 5.657-2.343l47.71-47.71c9.662-9.663 9.837-25.474 0-35.313-17.424-17.422-46.291.338-35.313 11.314 3.126 3.124 8.19 3.124 11.314-.002z"/><path d="m504 348h-120.947c7.751-3.44 13.936-7.979 18.506-13.614 11.418-14.077 10.584-30.535 6.994-47.625l1.784-1.784c3.124-3.124 3.124-8.189 0-11.313-3.125-3.125-8.189-3.124-11.314 0l-24.359 24.36c-5.056 5.056-1.405 13.657 5.657 13.657 4.414 0 5.841-2.527 14.379-11.065.772 7.592.21 16.571-5.566 23.692-8.446 10.412-26.322 15.692-53.134 15.692-4.772 0-16.017 7.007-50.806 8-75.452 0-144.04 2.05-197.833-69.349l12.92-14.679c19.943 21.252 45.621 38.649 74.588 42.787 1.941.279 3.947-.188 5.581-1.271 4.338-2.947 21.842-12.509 32.101-12.509 8.781 0 20.472 6.383 27.45 11.122v11.899c0 4.418 3.582 8 8 8s8-3.582 8-8v-8.06c49.937-.773 68.953-8.999 93.913-23.481 2.978 3.983 8.669 4.271 12.063.879l82.711-82.71c12.453-12.455 19.312-29.014 19.312-46.628 0-4.418-3.582-8-8-8s-8 3.582-8 8c0 13.34-5.194 25.881-14.628 35.314l-18.222 18.222c-25.882-25.882-28.971-31.036-42.857-34.876-21.605-5.988-45.041 6.034-53.048 27.913-19.522-3.884-35.535 16.507-26.956 34.458 5.391 11.249 7.957 20.017 19.281 23.918 8.903 3.067 18.535.647 25.093-5.858 4.778 3.924 10.124 7.001 15.961 9.197-32.349 19.182-45.919 27.453-102.011 27.706-6.342-4.509-22.767-15.014-38.063-15.014-12.588 0-27.27 7.172-38.185 13.495-25.952-4.649-47.102-21.67-60.446-35.386-12.46-12.807-24.943-30.924-25.925-37.463.07-1.886-.527-3.688-1.621-5.131-2.213-9.344-10.571-16.495-20.915-16.495-.105 0-48.061 0-57.458 0-4.418 0-8 3.582-8 8 0 17.751 12.548 33.066 29.963 36.555l13.561 2.708c22.246 29.121 43.017 79.23 107.698 104.737h-143.222c-4.418 0-8 3.582-8 8s3.582 8 8 8h496c4.418 0 8-3.582 8-8s-3.582-8-8-8zm-180.871-102.632c-4.107 2.04-8.892.452-10.776-3.493l-5.632-11.751c-3.735-7.818 6.17-15.725 12.827-10.252 1.784 1.579 1.354 1.217 7.643 14.349 1.855 3.895.294 8.988-4.062 11.147zm18.499-18.043c-5.731-11.966-6.274-13.48-8.317-16.105 3.2-13.415 15.885-23.188 30.115-21.957 1.21 9.671-2.305 19.262-9.093 26.051-3.124 3.125-3.126 8.191 0 11.316 3.003 3.004 8.031 3.269 11.375-.066 6.008-6.031 10.3-13.513 12.44-21.686 1.756-6.722.985-8.731 1.705-8.011l23.983 23.983-26.492 26.492c-3.805-8.939-3.509-8.29-3.79-8.8-1.955-3.551-6.322-5.115-10.135-3.493-4.066 1.73-5.959 6.428-4.229 10.494.09.206-.489-1.148 2.035 4.782-6.366-1.857-12.326-5.236-17.377-10.266.413-4.206-.319-8.742-2.22-12.734zm-287.381 3.678c-2.428-3.035-3.902-2.692-21.146-6.137-6.808-1.364-12.778-6.069-15.536-12.866 52.639 0 48.678-.124 49.951.375 2 .795 3.347 2.697 3.43 4.846.065 1.675.65 3.247 1.623 4.528 1.992 8.044 8.918 19.345 17.205 29.946l-11.935 13.56c-8.557-12.623-15.72-24.412-23.592-34.252z"/></svg>