<svg id="Layer_1" enable-background="new 0 0 512 512" height="512" viewBox="0 0 512 512" width="512" xmlns="http://www.w3.org/2000/svg"><path d="m504 496h-165.797c-2.91-12.037-12.257-21.76-24.702-24.871l-17.857-4.468 22.423-108.769c4.151-20.165-6.763-41.506-27.953-49.041-50.323-17.461-32.788-9.609-79.726-20.366 16.067-9.997 38.667-24.554 45.629-31.509 8.066-8.078 32.613-32.66 32.613-56.147 0-6.625-2.014-13.948-5.997-21.83l16.924-16.924c3.124-3.124 3.124-8.189 0-11.313s-8.188-3.125-11.314 0l-38.131 38.13c-5.056 5.056-1.405 13.657 5.657 13.657 4.359 0 5.592-2.278 14.748-11.434 1.377 3.603 2.112 6.889 2.112 9.714 0 11.192-9.398 26.279-27.964 44.87-6.639 6.633-36.682 25.687-56.741 37.798l-34.964-4.367c-4.378-.545-8.382 2.563-8.93 6.947s2.563 8.382 6.947 8.93l37.25 4.652c30.168 7.399 42.589 9.536 50.823 10.953 19.682 3.387 30.989 8.629 46.103 13.456 12.517 4.446 19.924 17.569 17.242 30.595l-10.387 50.385h-26.961l4.321-37.883c.508-4.457-2.75-8.468-7.226-8.874-44.655-4.053-60.7-3.981-92.73-3.772-9.709.07-28.572-5.004-36.683-9.204-19.575-10.139-25.623-41.096-16.652-60.244.372-.795.59-1.577.693-2.389 3.514-28.251 72.404-65.34 97.152-146.625 5.979 3.941 12.509 6.975 19.371 9.024l-13.49 13.49c-3.124 3.124-3.124 8.189 0 11.313s8.189 3.125 11.314 0l104.48-104.48c15.331-15.328 23.773-35.716 23.773-57.404 0-4.418-3.582-8-8-8s-8 3.582-8 8c0 17.415-6.778 33.785-19.087 46.093l-35.653 35.653c0-18.412 1.479-30.081-6.805-44.483-12.936-23.541-44.683-34.356-71.313-20.868-12.078-20.888-43.962-18.313-52.087 4.685l-5.467 15.529c-6.649 18.82 8.193 38.659 28.917 37.387 1.12 16.001 7.668 30.891 18.64 42.716-22.032 83.899-97.081 120.763-99.596 155.034-11.32 25.038-3.276 65.415 24.451 79.776 9.966 5.16 31.466 11.064 44.146 10.996 29.204-.19 44.036-.35 83.024 2.987-1.258 11.032-9.382 82.267-10.109 88.642-3.474 13.889-7.199 22.609-1.767 33.851h-232.664c-4.418 0-8 3.582-8 8s3.582 8 8 8h496c4.418 0 8-3.582 8-8s-3.582-7.998-8-7.998zm-328.131-430.628c-6.542-2.196-10.072-9.068-7.821-15.44l5.467-15.529c4.413-12.494 23.465-10.226 24.699 2.836.212 3.494.132 2.811-6.105 20.513-2.241 6.322-9.426 9.918-16.24 7.62zm21.814 10.749c3.874-2.959 6.836-6.881 8.635-10.881.702-1.558 6.418-17.474 7.12-20.316.365-1.478.605-2.977.711-4.188 16.394-10.719 39.022-7.415 51.158 8.472-8.004 11.216-20.934 17.302-34.058 17.302-4.418 0-8 3.582-8 8 0 4.427 3.59 8 8.004 8 15.965 0 30.64-6.462 41.013-16.819.49 3.377.363 1.58.363 40.055l-25.919 25.919c-10.643-1.446-20.351-5.732-28.221-12.027l6.9-17.128c1.65-4.098-.333-8.759-4.432-10.41-4.097-1.652-8.763.333-10.414 4.432l-4.032 10.006c-6.284-9.583-8.828-19.555-8.828-30.417zm68.417 419.879c-7.946 0-13.775-7.467-11.849-15.168 5.239-20.943 2.949-6.971 8.972-59.782h25.488l-10.286 49.896c-.866 4.2 1.733 8.335 5.894 9.375l25.301 6.331c5.205 1.301 9.385 4.793 11.66 9.349h-55.18z"/><path d="m312.253 126.763-1.49 1.49c-3.124 3.124-3.124 8.189 0 11.313 3.126 3.125 8.189 3.124 11.314 0l1.49-1.49c3.124-3.124 3.124-8.189 0-11.313-3.125-3.124-8.189-3.124-11.314 0z"/><path d="m381.067 19.937c8.386-8.389 22.942-2.508 22.942 9.503 0 3.538-1.435 7.001-3.937 9.503l-65.311 65.31c-5.056 5.056-1.405 13.657 5.657 13.657 2.047 0 4.095-.781 5.657-2.343l65.311-65.31c11.392-11.394 11.6-30.031-.001-41.635-20.049-20.044-53.22-.272-41.634 11.314 3.127 3.125 8.191 3.125 11.316.001z"/></svg>