<svg id="Layer_1" enable-background="new 0 0 512.007 512.007" height="512" viewBox="0 0 512.007 512.007" width="512" xmlns="http://www.w3.org/2000/svg"><path d="m504 479.069c-29.759 0-26.793.192-26.438-.431l26.654-46.645c12.183-21.318-3.193-47.856-27.772-47.856-3.725 0-.45-1.662-57.284 40.963l-279.238-38.078c18.274-13.392 47.144-33.719 64.306-41.603 22.257-10.222 53.368-31.15 58.866-55.498h212.644c31.925 0 48.37-38.118 25.848-60.718-6.725-6.703-15.654-10.394-25.143-10.394-4.418 0-8 3.582-8 8s3.582 8 8 8c5.225 0 10.143 2.034 13.829 5.707 12.332 12.376 3.507 33.404-14.535 33.404-71.977 0-192.747 0-274.85 0-4.418 0-8 3.582-8 8s3.582 8 8 8h45.507c-6.794 17.569-33.683 33.995-48.845 40.958-24.322 11.172-68.021 43.75-80.725 53.381-6.572 1.161 11.383 1.145-52.708.2-4.407-.073-8.052 3.463-8.117 7.881s3.463 8.052 7.881 8.117c59.078.871 55.133 1.103 57.389.169l195.618 26.675v51.767h-251.678c-27.721-5.951-49.154-30.632-49.178-60.939-.031-27.436-.086-26.451.1-27.988 2.357-19.456 30.047-55.848 42.379-71.154 2.772-3.44 2.23-8.477-1.21-11.249s-8.477-2.23-11.249 1.21c-14.052 17.442-46.082 59.777-46.051 82.12 0 1.597.03 26.101.031 27.078.019 24.313 10.992 46.213 29.135 60.923h-21.166c-4.418 0-8 3.582-8 8s3.582 8 8 8h55.562c10.481 2.001-6.956 1.429 260.577 1.439.557.051.953.048 1.481 0 133.128.005 124.414.563 131.154-1.439h47.226c4.418 0 8-3.582 8-8s-3.582-8-8-8zm-171.111-49.585 87.364 11.913c2.083.281 4.198-.264 5.881-1.527l52.739-39.554c10.877 1.624 17.114 13.831 11.453 23.739l-26.656 46.645c-2.185 3.824-5.571 6.735-9.522 8.369h-121.26v-49.585z"/><path d="m95.87 273.129c2.077 0 4.152-.804 5.719-2.406 38.778-39.639 78.279-71.38 109.719-88.307 4.299 13.45 11.486 25.819 21.209 36.394h-31.628c-4.418 0-8 3.582-8 8s3.582 8 8 8h209.026c28.51 0 41.051-12.541 58.408-29.899 3.125-3.124 3.124-8.189 0-11.313-3.124-3.125-8.189-3.124-11.313 0-16.786 16.787-25.212 25.212-47.095 25.212h-109.977l38.857-38.856c8.281-8.281 14.252-18.633 17.273-29.941 10.536-33.364-10.525-75.011-49.515-86.051 10.662-30.106-21.095-58.736-49.831-45l-20.244 9.702c-24.027 11.481-26.938 44.613-5.234 60.956-17.995 19.407-27.782 46.801-23.627 76.663-33.508 17.174-76.055 50.92-117.466 93.251-4.969 5.081-1.3 13.595 5.719 13.595zm137.752-219.076c1.673-4.855 5.137-8.745 9.764-10.956l20.244-9.702c9.86-4.714 21.878-.319 26.835 9.656 3.531 7.095 2.727 15.743-2.728 21.889-3.651 3.926-4.81 3.898-26.188 14.137-15.777 7.517-33.71-8.236-27.927-25.024zm11.402 44.309c2.567-2.566.986-1.871 5.113-1.528 5.434.453 10.587-.318 15.384-2.098 3.267-1.211 24.051-11.311 25.63-12.224 2.194-1.27 4.498-3.013 5.96-4.339 29.322 5.309 49.77 33.676 44.543 63.115-19.388 3.991-39.772-2.252-54.117-16.597-3.124-3.125-8.189-3.124-11.313 0-3.125 3.124-3.125 8.189 0 11.313 15.984 15.982 37.83 23.871 59.234 22.271-4.425 7.609-3.968 6.357-50.6 52.988-10.499 10.5-27.559 9.839-38.092-.694-14.001-14.001-22.179-31.908-23.8-50.868l25.124-10.692c4.065-1.73 5.958-6.429 4.229-10.494-1.73-4.066-6.43-5.955-10.494-4.229l-18.437 7.847c2.205-16.212 9.441-31.576 21.636-43.771z"/><path d="m72.857 297.739c3.943 0 5.741-2.408 7.526-4.406 7.288-8.184-4.633-18.829-11.938-10.653-.506.567-1.006 1.127-1.514 1.688-4.651 5.133-.965 13.371 5.926 13.371z"/></svg>