<svg id="Layer_1" enable-background="new 0 0 512.001 512.001" height="512" viewBox="0 0 512.001 512.001" width="512" xmlns="http://www.w3.org/2000/svg"><path d="m504 496.001h-237.102c-5.405-22.042-32.269-38.176-54.73-41.76l12.8-102.434 11.952-11.95c0 19.298-2.959 44.525 21.09 67.947 23.352 22.705 58.848 26.636 86.595 11.008 14.006 29.893 57.82 27.386 68.649-3.264l7.668-21.78c9.104-25.768-12.941-51.875-40.53-47.801-1.115-31.779-18.485-62.807-49.722-80.351 32.048-72.83 39.189-156.412-14.615-215.51-2.975-3.266-8.034-3.504-11.302-.53-3.267 2.974-3.504 8.034-.53 11.301 42.506 46.688 46.723 118.564 11.909 198.047-11.737-4.293-23.674-5.804-26.042-5.657-4.417.288-7.757 4.129-7.475 8.492.372 5.844-1.787 11.568-5.923 15.705-60.635 60.626 31.628-31.623-64.98 64.97-2.773 2.771-.995-5.634-16.452 118.066-.595 4.771 3.129 8.992 7.938 8.992 17.594 0 40.241 12.196 46.821 26.51-13.508 0-31.123 0-46.821 0-19.028 0-34.51-15.481-34.51-34.51 0-124.392-.439-116.619 1.134-123.834 2.24-9.238 6.118-16.958 13.123-23.97 18.862-18.865 45.318-45.325 64.979-64.99 3.124-3.125 3.124-8.189-.001-11.313-3.125-3.125-8.19-3.124-11.313.001l-2.18 2.18c-10.337-51.585-9.062-130.812-9.062-167.744 0-4.418-3.582-8-8-8s-8 3.582-8 8c0 64.102.272 42.051-1.045 50.074l-28.232 172.018c-10.416 10.418-18.783 17.664-24.13 33.848h-43.878c.002-52.503.005-180.976.026-234.722.018-17.09 6.926-44.381 18.833-56.288 11.839-11.866 40.434-20.742 58.087-20.75h27.716c24.924 3.645 36.294 10.662 40.161 10.662 8.737 0 11.12-12.094 3.034-15.405-17.799-7.288-37.806-11.16-42.424-11.249-.668-.012 5.095-.007-28.491-.007-21.269.011-54.233 10.24-69.402 25.443-15.12 15.119-23.492 46.191-23.514 67.584-.144 376.789.037 274.034-.07 382.593-.01 7.372 2.168 14.409 6.219 20.38h-94.258c-4.418 0-8 3.582-8 8s3.582 8 8 8h496c4.418 0 8-3.582 8-8s-3.582-8.002-8-8.002zm-111.147-133.328c10.781 3.62 16.765 15.061 12.98 25.772l-7.668 21.78c-3.771 10.672-15.803 16.339-26.828 12.636-7.823-2.624-13.581-9.582-14.093-18.109-.187-5.396.351-5.501 8.778-29.417 3.717-10.477 15.553-16.464 26.831-12.662zm-104.846-73.895c5.07-5.07 8.475-11.474 9.898-18.365 14.112 2.763 27.072 8.964 38.028 18.233-2.762 6.859-.673 1.675-10.557 26.202-2.111 5.237 1.744 10.996 7.421 10.996 2.993 0 6-1.761 7.328-4.819.3-.686-1.331 3.349 7.945-19.685 10.408 13.546 16.389 30.17 16.389 48.03 0 3.027.064 2.874-.036 2.944-5.318 3.724-9.739 8.938-12.521 15.277-.836 1.911-8.747 24.205-9.455 26.841-.696 2.589-1.092 5.331-1.193 7.629-25.393 17.685-61.178 11.768-78.802-13.629 11.527-17.562 31.206-27.518 51.708-27.518 4.39 0 8.001-3.553 8.001-8 0-4.253-3.367-8.009-8.154-7.997-22.865.044-44.519 9.932-59.156 27.041-.254.295-1.931-6.837-1.931-13.733v-34.362zm-75.499-93.57c1.727 20.529 4.404 41.588 8.557 57.727l-21.573 21.576zm-100.468 280.43c.053-54.119.039-23.053.044-131.878h40.768c-.231 3.484-.161-5.822-.161 117.73 0 13.336 5.204 25.472 13.677 34.51h-33.988c-11.245.001-20.354-9.109-20.34-20.362z"/><path d="m280.348 40.217c1.904 1.287 3.421 2.714 6.405 2.714 7.738 0 10.982-9.962 4.678-14.496-2.313-1.661-3.838-2.85-6.601-2.85-7.906.001-10.948 10.256-4.482 14.632z"/></svg>