<svg id="Layer_1" enable-background="new 0 0 512 512" height="512" viewBox="0 0 512 512" width="512" xmlns="http://www.w3.org/2000/svg"><path d="m504 496h-241.527v-93.257c10.744-2.848 19.372-11.32 22.172-22.519l3.129-12.516h72.319c36.768 0 51.576-47.509 21.593-68.498l-74.121-51.885c.013-5.504.054-10.432.123-14.886h34.973c23.635 0 36.409-27.412 21.897-45.546-51.121-63.921-41.823-52.301-49.566-61.986-3.152-3.948-10.048-7.667-17.521-7.667h-13.075c2.386-3.826 9.78-19.858 12.285-31.628 4.406-20.718 1.709-38.549-16.171-50.696v-8.879c-.001-14.36-11.6-26.037-26.037-26.037-14.356 0-26.036 11.68-26.036 26.036v8.879c-10.972 7.454-18.037 19.344-18.037 32.933 0 20.191 6.374 32.579 12.017 45.38.615 1.398 1.336 2.733 2.134 4.012h-13.071c-7.515 0-14.383 3.736-17.521 7.667-7.139 8.937-6.365 7.97-7.103 8.887-6.509 8.06 5.542 18.688 12.847 9.553 4.444-5.555-5.724 7.172 6.432-8.046 3.228-2.944-1.601-2.061 91.335-2.061 2.001 0 3.886.729 5.346 2.061 24.136 30.217 18.67 23.353 49.248 61.587 6.274 7.837.633 19.551-9.403 19.551-83.757 0-80.18.562-80.19-1.014-.023-3.754 0 14.948 0-44.124 3.604 1.925 6.483 5.078 7.971 9.135l3.209 18.324c.67 3.828 3.994 6.62 7.88 6.62h39.95c6.65 0 10.417-7.689 6.291-12.942l-23.079-29.378c-2.729-3.474-7.758-4.081-11.233-1.351-3.475 2.729-4.079 7.758-1.351 11.232l4.847 6.17c-.876 3.374-1.625 6.672-2.265 10.269h-6.439c-2.342-13.374-2.19-12.698-2.448-13.481-9.974-30.03-52.687-30.048-62.665 0-.261.784-.114.145-2.442 13.481h-6.442c-.641-3.59-1.389-6.889-2.263-10.267l4.848-6.174c2.728-3.476 2.122-8.505-1.354-11.232s-8.503-2.121-11.232 1.354l-23.073 29.377c-4.105 5.226-.394 12.942 6.291 12.942h39.95c3.888 0 7.212-2.794 7.881-6.624l3.198-18.321c1.469-4.004 4.337-7.193 7.971-9.133 0 47.082.139 44.402-.28 44.825-.491.488 4.856.314-79.9.314-6.556 0-12.04-5.336-12.04-12.04 0-4.586 2.26-7.039 4.184-9.451 2.756-3.454 2.19-8.487-1.264-11.243-3.453-2.755-8.487-2.19-11.243 1.264-4.519 5.664-7.677 11.05-7.677 19.429 0 15.549 12.632 28.04 28.04 28.04h34.965c.08 5.429.122 11.534.124 18.464-10.95 68.523-1.454 109.253 13.325 218.719l-16.819 4.205c-11.198 2.799-19.662 11.428-22.511 22.172h-167.376c-4.418 0-8 3.582-8 8s3.582 8 8 8h496c4.418 0 8-3.582 8-8s-3.582-8-8-8zm-259.563-469.964c0-8.951 10.865-13.359 17.13-7.113 3.109 3.12 2.942 6.327 2.942 9.198-6.417-1.377-13.234-1.467-20.072 0zm-10.093 24.54c4.811-4.374 4.962-2.36 7.639-4.939 7.821-3.444 17.154-3.446 24.979 0 2.541 2.449 2.969.693 7.639 4.939 9.341 8.491 9.069 19.298 6.428 31.707-1.869 8.788-4.313 13.539-9.147 24.505-6.105 13.883-28.713 13.884-34.821-.007-5.733-13.003-10.661-22.564-10.661-38.933 0-6.481 2.821-12.615 7.944-17.272zm47.183 301.133c-3.671 0-6.871 2.499-7.761 6.06l-4.644 18.575c-.978 3.909-3.418 7.134-6.65 9.151v-53.859h47.128v20.073zm-27.058-121.874c5.533 3.471 7.431 2.605 37.217 2.605-.084 5.575-.126 11.867-.126 19.05 0 2.031.8 4.059 2.256 5.561.803.828-4.499-2.968 78.694 55.268 17.28 12.096 8.691 39.391-12.417 39.391h-34.493v-20.073h10.037c4.418 0 8-3.582 8-8s-3.582-8-8-8h-16.916l-62.051-17.729c-5.111-1.459-10.198 2.386-10.198 7.692v118.254h-21.802c-9.277-68.711-16.847-105.186-8.414-164.364h38.216c4.418 0 8-3.582 8-8 0-4.419-3.582-8-8.002-8h-37.109c-.019-3.968-.054-7.635-.103-11.05 30.092 0 31.765.814 37.211-2.605zm-61.856 266.165c2.018-3.232 5.243-5.672 9.152-6.649l23.765-5.941c3.954-.989 6.533-4.792 5.988-8.832l-4.688-34.723h19.642v56.145z"/><path d="m166.882 171.531c3.463 2.788 8.495 2.206 11.249-1.213l1.24-1.54c2.771-3.441 2.228-8.477-1.213-11.249-3.441-2.771-8.477-2.229-11.249 1.213l-1.24 1.54c-2.771 3.441-2.228 8.477 1.213 11.249z"/></svg>