<svg id="Layer_1" enable-background="new 0 0 512 512" height="512" viewBox="0 0 512 512" width="512" xmlns="http://www.w3.org/2000/svg"><path d="m353.699 439.027-.9 8.1c-.488 4.391 2.677 8.347 7.068 8.834 4.39.485 8.346-2.673 8.834-7.068l.9-8.1c.488-4.391-2.677-8.347-7.068-8.834-4.4-.486-8.346 2.676-8.834 7.068z"/><path d="m504 495.99h-147.752c3.392-3.908 6.155-8.416 8.096-13.395 1.604-4.117-.432-8.755-4.549-10.359-4.118-1.604-8.755.432-10.359 4.549-4.489 11.52-15.855 19.414-28.642 19.175-50.68.036-34.805.03-71.035.03-12.951-.855-25.676-8.032-32.263-21.198l-2.782-5.565c16.53-12.901 26.432-32.641 26.716-54.234l40.5-8.098c2.937-.587 5.299-2.766 6.123-5.645 13.065-45.686 12.659-44.13 12.774-44.99.091-.678-.219 9.023 6.383-216.261h22.064c24.171 154.654 21.223 145.945 23.294 149.058.021.031 2.13 3.226 6.512 11.789 4.727 9.235 9.423 20.312 8.458 30.683l-25.755 30.913h-21.783c-4.418 0-8 3.582-8 8s3.582 8 8 8h9.735l-17.191 79.132c-61.721.311-46.977.288-49.265.244-11.193-.218-11.602 16.003.221 16.003l55.54-.28c3.749-.019 6.981-2.638 7.777-6.302l18.173-83.654c39.319-47.193 20.262-24.319 31.818-38.189 6.327 7.338 7.088 18.726.443 27.028-18.722 23.407-18.658 22.647-19.003 25.741l-1.09 9.78c-.49 4.391 2.673 8.347 7.064 8.837 4.391.491 8.347-2.674 8.837-7.064l.834-7.478 15.851-19.819c12.922-16.145 10.204-39.766-6.057-52.461.65-15.564-8.776-34.91-16.797-48.163-18.132-127.937-11.942-73.553-30.37-204.236 8.121-6.46 11.358-17.577 7.345-27.691l-10.849-27.105c-5.52-13.824-18.701-22.755-33.576-22.755-4.418 0-8 3.582-8 8 0 165.937 1.68 66.55-6.508 345.956l-10.923 38.196-36.002 7.199c-5.261-10.578-16.013-17.848-28.404-17.848-45.469 0-51.382-1.695-66.062 6.526-22.744 12.736-32.298 42.661-19.976 67.485-14.043 8.421-17.592 27.321-7.732 40.467h-107.833c-4.418 0-8 3.582-8 8s3.582 8 8 8h496c4.418 0 8-3.582 8-8s-3.582-8.001-8-8.001zm-185.837-467.287c11.624 29.042 11.427 27.954 11.427 30.067 0 3.167-1.874 6.041-4.774 7.323-3.24 1.432-5.391 4.804-4.687 9.794l6.784 48.112h-19.473v-106.35c4.796 2.063 8.688 5.964 10.723 11.054zm-170.575 375.829c10.183 7.402 15.865 19.296 15.865 31.583 0 4.418 3.582 8 8 8s8-3.582 8-8c0-14.372-5.512-28.137-15.374-38.38 2.638-.31.292-.222 45.523-.222 8.736 0 15.844 7.413 15.844 16.523 0 12.649-4.252 24.339-11.549 33.587l-15.85-6.387c-4.098-1.651-8.759.332-10.41 4.431-1.651 4.098.333 8.759 4.431 10.41l8.638 3.48c-8.597 5.432-17.618 7.792-27.511 7.792-6.473-8.337-14.304-9.631-27.026-14.113-1.786-.63-4.143-1.194-6.333-1.406-9.743-15.103-6.835-35.926 7.752-47.298zm-11.28 63.214c3.242-.194 3.075.064 19.178 5.737 5.724 2.03 9.008 8.552 6.916 14.76-2.008 5.979-8.254 9.126-13.997 7.1l-14.655-5.159c-11.316-3.999-9.289-21.308 2.558-22.438zm42.678 15.383c7.61-.583 14.975-2.466 21.98-5.619 3.338 6.677 5.79 11.934 12.279 18.48h-36.718c1.848-4.089 2.661-8.443 2.459-12.861z"/></svg>