<svg id="Layer_1" enable-background="new 0 0 512.005 512.005" height="512" viewBox="0 0 512.005 512.005" width="512" xmlns="http://www.w3.org/2000/svg"><path d="m357.014 254.274c-3.125 3.124-3.125 8.189-.002 11.314l1.4 1.4c3.122 3.123 8.188 3.126 11.313.002s3.125-8.189.002-11.314l-1.4-1.4c-3.122-3.124-8.188-3.126-11.313-.002z"/><path d="m388.057 293.382c49.425.392 54.694 3.875 85.03-26.463 3.125-3.125 3.125-8.19 0-11.314-3.124-3.123-8.189-3.123-11.313 0-25.059 25.06-25.087 22.163-70.472 21.803-3.125-2.223-7.486-1.933-10.288.867-3.125 3.125-3.125 8.189 0 11.314 1.824 1.825 3.457 3.765 7.043 3.793z"/><path d="m38.912 255.603c-3.125 3.125-3.125 8.189 0 11.314 15.515 15.515 26.725 26.725 52.383 26.725 35.015-.278 33.418-.059 35.318-.749 2.364-.86-2.518 3.586 57.019-55.951 3.541-3.542 7.246-4.583 11.987-4.831.265.031 120.508.033 120.781.001 4.726.219 8.457 1.316 11.974 4.827 6.041 6.04 7.533 8.393 11.707 8.393 7.061 0 10.713-8.601 5.657-13.657-18.087-18.084-18.882-15.543-54.746-15.543 4.425-5.388 5.274-8.255 12.042-23.607 6.283-14.31 9.726-29.892 9.726-45.963 0-17.782-9.478-33.412-24.378-42.983 0-14.157 1.594-25.316-9.479-36.439-20.364-20.319-55.28-5.741-55.28 22.903v13.536c-14.899 9.568-24.378 25.203-24.378 42.983 0 15.801 3.272 31.266 9.73 45.975 6.534 14.818 7.56 18.143 12.039 23.596-2.985 0-27.412.003-25.812 0-8.646.015-16.773 3.388-22.882 9.497l-51.78 51.78c-44.912.357-45.149 3.357-70.311-21.806-3.128-3.124-8.193-3.124-11.317-.001zm200.708-165.561c0-14.57 17.726-21.808 27.96-11.597 5.646 5.672 4.8 11.676 4.8 17.991-10.618-2.932-22.125-2.936-32.76 0zm-9.729 110.279c-7.852-17.809-14.649-30.939-14.649-53.759 0-13.586 8.294-25.114 20.128-31.334 26.121-14.083 61.388 2.721 61.388 31.334 0 23.44-7.745 38.1-14.652 53.767-9.234 20.999-42.98 20.995-52.215-.008z"/><path d="m174.289 118.417c-47.371 28.187-77.374 78.965-78.268 134.997-.071 4.46 3.522 8.128 8.001 8.128 4.358 0 7.927-3.498 7.997-7.872.802-50.309 27.139-95.73 70.452-121.503 3.797-2.26 5.043-7.169 2.784-10.966-2.258-3.796-7.169-5.04-10.966-2.784z"/><path d="m158.076 380.252c7.416 0 10.874-9.309 5.154-14.122-3.442-2.896-6.788-5.992-9.943-9.204-3.095-3.151-8.16-3.196-11.313-.101-3.152 3.097-3.197 8.162-.1 11.313 3.509 3.572 7.229 7.016 11.057 10.235 1.499 1.263 3.327 1.879 5.145 1.879z"/><path d="m358.713 356.926c-3.188 3.245-6.53 6.342-9.933 9.204-3.381 2.845-3.816 7.891-.972 11.271 2.844 3.382 7.891 3.816 11.272.973 3.789-3.187 7.505-6.631 11.046-10.235 3.097-3.151 3.052-8.217-.1-11.313-3.151-3.096-8.216-3.051-11.313.1z"/><path d="m407.978 261.542c4.478 0 8.072-3.666 8.001-8.128-.893-55.999-30.87-106.794-78.268-134.997-3.798-2.261-8.707-1.014-10.966 2.784-2.259 3.797-1.013 8.706 2.784 10.966 43.313 25.772 69.649 71.194 70.452 121.503.07 4.374 3.638 7.872 7.997 7.872z"/><path d="m416.207 361.839c-4.763 7.202-10.032 14.108-15.662 20.528-2.913 3.321-2.582 8.376.74 11.289 3.313 2.906 8.369 2.59 11.29-.74 6.035-6.882 11.687-14.276 16.801-21.983.95-1.316 1.509-2.934 1.509-4.681 0-7.916-10.323-10.995-14.678-4.413z"/><path d="m214.849 60.083c-1.077-4.284-5.42-6.886-9.708-5.81-82.983 20.854-145.414 91.075-155.657 176.78-.524 4.387 2.607 8.368 6.994 8.893 4.362.529 8.366-2.591 8.893-6.994 9.364-78.351 67.101-143.919 143.669-163.16 4.285-1.078 6.885-5.424 5.809-9.709z"/><path d="m303.018 69.8c76.536 19.261 134.249 84.826 143.611 163.151.486 4.064 3.939 7.052 7.934 7.052 4.822 0 8.52-4.206 7.953-8.95-10.231-85.595-72.571-155.878-155.593-176.769-4.285-1.078-8.632 1.52-9.71 5.806-1.079 4.285 1.52 8.632 5.805 9.71z"/><path d="m105.443 395.642c6.822 0 10.545-8.105 6.011-13.274-5.629-6.42-10.899-13.326-15.662-20.528-2.438-3.686-7.4-4.695-11.086-2.26-3.685 2.438-4.697 7.4-2.26 11.086 5.161 7.804 10.873 15.29 16.978 22.251 1.583 1.803 3.795 2.725 6.019 2.725z"/><path d="m470.968 362.828c-8.612 17.302-19.347 33.578-31.908 48.378-2.859 3.369-2.445 8.417.923 11.276 3.354 2.846 8.404 2.46 11.276-.923 13.395-15.784 24.845-33.146 34.032-51.603 1.969-3.955.358-8.758-3.597-10.727-3.954-1.965-8.757-.356-10.726 3.599z"/><path d="m8.019 267.142c4.459 0 8.045-3.637 8.001-8.079-1.317-136.618 109.071-243.061 239.98-243.061 131.203 0 241.294 106.736 239.98 243.061-.044 4.441 3.542 8.079 8.001 8.079 4.381 0 7.955-3.53 7.998-7.921 1.461-144.971-115.049-259.219-255.979-259.219-140.724 0-257.442 114.055-255.979 259.219.043 4.392 3.616 7.921 7.998 7.921z"/><path d="m66.844 424.373c6.736 0 10.531-7.954 6.094-13.179-12.571-14.803-23.309-31.075-31.916-48.367-1.969-3.954-6.77-5.563-10.727-3.597-3.956 1.969-5.566 6.771-3.597 10.728 9.183 18.447 20.637 35.806 34.044 51.594 1.583 1.863 3.835 2.821 6.102 2.821z"/><path d="m504 496.002h-84.065c25.286-26.17 16.774-69.423-16.357-84.148-.714-.317 4.178 1.147-78.623-23.063.045-23.777.076-58.137 5.214-81.094l17.695 17.695c10.6 10.599 24.687 16.498 39.674 16.62 22.105.409 91.363.383 91.467.383 29.268 0 43.913-34.795 23.517-55.292-6.131-6.101-14.265-9.461-22.903-9.461-4.418 0-8 3.582-8 8s3.582 8 8 8c4.379 0 8.505 1.706 11.589 4.774 10.401 10.453 2.779 27.979-12.203 27.979-48.703 0-24.538.075-91.284-.381-10.782-.074-20.918-4.313-28.542-11.937-13.85-13.851-21.018-21.018-34.89-34.891-3.123-3.122-8.188-3.122-11.313 0-3.125 3.124-3.125 8.189 0 11.314l4.006 4.006c-6.674 24.626-7.833 44.916-8.021 92.275-114.119 0-105.924.179-105.929-.362-.116-42.415-1.116-66.469-8.009-91.913l4.006-4.006c3.125-3.125 3.125-8.19 0-11.314-3.124-3.123-8.189-3.123-11.313 0l-7.159 7.159c-25.271 23.851-32.9 39.507-56.274 39.668-66.851.457-45.818.381-91.284.381-9.3 0-16.924-7.286-16.996-16.241-.073-9.226 7.344-16.512 16.382-16.512 4.418 0 8-3.582 8-8s-3.582-8-8-8c-17.954 0-32.526 14.55-32.381 32.639.141 17.708 14.942 32.114 32.995 32.114 57.818 0 83.589-.381 91.383-.381 14.329 0 28.823-5.689 39.757-16.622l17.694-17.694c5.081 22.71 5.107 54.573 5.209 81.096-83.162 24.315-77.869 22.729-78.617 23.061-33.075 14.701-41.677 57.944-16.357 84.148h-84.068c-4.418 0-8 3.582-8 8s3.582 8 8 8h496c4.418 0 8-3.582 8-8s-3.582-8-8-8zm-308.254-20.595c-8.61 4.305-17.505 7.808-21.262 20.595h-10.04v-28.42zm26.569 4.598c.255-.131.515-.279.788-.458 12.953-8.636 15.33-11.101 21.66-11.101 7.567 0 13.269 4.706 15.307 10.837l.782 2.354c1.319 3.969 5.47 6.255 9.532 5.237l77.171-19.292v28.42h-155.215c2.993-3.403 5.139-3.082 29.975-15.997zm141.241 15.997v-32.42l6.385-1.596c4.286-1.071 6.892-5.415 5.821-9.701-1.072-4.286-5.416-6.897-9.702-5.82l-92.738 23.184c-5.399-10.458-16.226-17.201-28.281-17.201-11.976 0-17.595 4.976-27.868 11.825l-71.232-17.808c-4.291-1.072-8.63 1.535-9.702 5.82-1.071 4.286 1.535 8.63 5.821 9.701l6.385 1.596v32.42h-18.769c-20.032 0-36.329-16.297-36.329-36.329 0-14.172 8.269-27.064 21.11-32.988l81.741-23.899h119.604l81.741 23.899c12.842 5.924 21.11 18.816 21.11 32.988 0 20.032-16.297 36.329-36.329 36.329z"/></svg>