<svg id="Layer_1" enable-background="new 0 0 512.083 512.083" height="512" viewBox="0 0 512.083 512.083" width="512" xmlns="http://www.w3.org/2000/svg"><path d="m342.685 452.556 46.579-68.498h50.806c6.107 0 9.965-6.587 6.978-11.914l-22.458-40.035 54.096-79.553c2.892-4.251 1.072-10.094-3.72-11.956l-80.586-31.283 21.52-102.472c1.304-6.208-4.813-11.396-10.725-9.103l-92.02 35.723-50.107-89.321c-3.04-5.417-10.886-5.469-13.955 0l-50.107 89.321-92.02-35.723c-5.914-2.294-12.028 2.896-10.725 9.103l21.52 102.472-80.586 31.283c-4.793 1.862-6.611 7.705-3.72 11.956l54.096 79.553-22.458 40.035c-2.987 5.326.87 11.914 6.978 11.914h50.806l46.579 68.498c4.904 7.214 16.239 2.406 14.444-6.143l-13.094-62.355h170.531l-13.094 62.355c-1.794 8.536 9.532 13.367 14.442 6.143zm83.725-84.499h-26.266l14.393-21.166zm-45.614 0h-19.751l17.804-84.782 26.941 48.025zm79.004-116.181-43.957 64.642-31.997-57.038 7.202-34.293zm-87.85-13.603-14.702-26.208 18.683 7.252zm25.258-120.275-17.944 85.45-34.325-13.325-23.878-42.564zm-75.722 63.02-43.309-16.813 27.819-10.799zm-65.416-116.609 42.019 74.904-42.019 16.312-42.019-16.312zm-22.106 99.797-43.309 16.813 15.49-27.612zm-119.031-46.208 76.147 29.561-23.878 42.564-34.325 13.325zm21.277 101.32 18.683-7.252-14.702 26.208zm-83.869 32.558 68.752-26.689 7.202 34.293-31.997 57.038zm80.95 31.399 17.804 84.782h-19.751l-24.995-36.757zm-47.561 84.782 11.873-21.166 14.393 21.166zm74.191 42.024-17.696-26.023h12.231zm7.524-42.024-22.257-105.988 33.158-59.108 77.724-30.173 77.724 30.173 33.158 59.108-22.257 105.988zm202.471 16-17.696 26.023 5.465-26.023z"/><path d="m437.091 75.037c-100.042-100.042-261.985-100.056-362.041 0-100.042 100.042-100.056 261.985 0 362.041 86.691 86.691 218.678 97.629 316.943 35.956 3.742-2.35 4.872-7.287 2.523-11.029-2.348-3.74-7.285-4.872-11.029-2.523-38.125 23.929-82.185 36.576-127.417 36.576-132.336 0-240-107.664-240-240s107.664-240 240-240 240 107.664 240 240c0 60.61-22.658 118.476-63.802 162.937-4.703 5.083-1.109 13.438 5.872 13.438 2.378 0 4.514-1.039 5.979-2.688 91.649-99.158 91.837-255.843-7.028-354.708z"/><path d="m410.59 439.697c-.608.522-1.254 1.056-2.07 1.733-5.732 4.775-2.335 14.146 5.125 14.146 3.22 0 4.89-1.611 7.367-3.739 3.353-2.879 3.737-7.929.859-11.281-2.879-3.352-7.929-3.736-11.281-.859z"/></svg>