<svg id="Layer_1" enable-background="new 0 0 512 512" height="512" viewBox="0 0 512 512" width="512" xmlns="http://www.w3.org/2000/svg"><path d="m250.805 75.764c-2.34 3.748-1.198 8.683 2.55 11.022 3.772 2.354 8.697 1.174 11.022-2.55 18.255-29.24-1.142-40.304-7.491-50.473-3.275-5.247 3.343-16.384 6.865-20.659 2.814-3.396 2.349-8.431-1.042-11.253-3.396-2.827-8.439-2.365-11.267 1.03-1.913 2.298-18.388 22.921-8.129 39.354 8.712 13.956 19.155 14.848 7.492 33.529z"/><path d="m431.854 381.538c-1.673-15.001-18.69-27.949-49.488-37.565-27.101-8.462-63.206-13.908-102.364-15.488v-208.485c0-3.03-1.712-5.8-4.422-7.155l-32-16c-5.314-2.656-11.578 1.212-11.578 7.155v224.485c-39.159 1.58-75.264 7.025-102.364 15.488-30.798 9.616-47.814 22.564-49.488 37.565-22.971 38.868-11.302 89.225 27.227 113.731 17.203 10.946 37.074 16.731 57.465 16.731h182.32c14.582 0 28.758-2.909 42.134-8.648 4.061-1.741 5.939-6.445 4.197-10.506s-6.445-5.941-10.506-4.197c-11.371 4.878-23.424 7.352-35.825 7.352h-182.32c-17.344 0-34.244-4.921-48.876-14.23-27.031-17.193-37.93-50.264-27.823-79.587 48.144 50.348 287.564 50.358 335.718 0 5.048 14.646 4.911 30.405-.193 44.865-3.62 10.251 11.887 15.21 15.155 5.134 8.2-23.409 5.732-49.154-6.969-70.645zm-54.256-22.293c28.347 8.851 38.404 18.867 38.404 24.755 0 1.59-.706 3.449-2.259 5.484-24.947-15.941-74.617-26.845-133.741-29.214v-15.771c37.533 1.554 71.936 6.735 97.596 14.746zm-121.596 16.755c-4.411 0-8-3.589-8-8v-216h16v216c0 4.411-3.588 8-8 8zm8-251.055v11.055h-16v-19.056zm-129.595 234.3c25.66-8.012 60.063-13.192 97.596-14.746v15.771c-59.124 2.37-108.794 13.273-133.741 29.214-1.553-2.035-2.259-3.894-2.259-5.484-.001-5.887 10.057-15.904 38.404-24.755zm-22.25 40.652c23.986-12.567 69.853-21.646 121.298-23.671 2.453 6.702 7.815 12.01 14.547 14.398v17.376c0 4.418 3.582 8 8 8s8-3.582 8-8v-17.376c6.732-2.388 12.094-7.696 14.547-14.398 51.445 2.025 97.312 11.104 121.298 23.671-61.273 32.011-226.464 31.986-287.69 0z"/><path d="m408.645 471.451c-.421.454-.837.876-1.236 1.254-3.212 3.034-3.355 8.098-.32 11.309 3.033 3.212 8.098 3.355 11.309.32.656-.619 1.323-1.294 1.982-2.006 3.004-3.241 2.812-8.303-.429-11.306-3.242-3.003-8.302-2.811-11.306.429z"/></svg>