<svg id="Layer_1" enable-background="new 0 0 512.3 512.3" height="512" viewBox="0 0 512.3 512.3" width="512" xmlns="http://www.w3.org/2000/svg"><path d="m387.741 113.235c-8.088-12.118-13.048-26.749-14.345-42.312l-4.066-48.801c-1.033-12.389-11.186-21.849-23.617-22.004l-9.155-.114c-12.958-.242-24.279 10.276-24.302 23.961l-.029 24.184c-.037 30.896-25.225 56.068-56.137 56.068-30.864 0-56.041-25.093-56.135-55.966l-.073-23.851c-.054-13.068-10.729-23.788-23.798-23.9l-9.021-.075c-12.988 0-23.113 9.935-24.119 22.007l-4.041 48.491c-1.297 15.563-6.257 30.193-14.345 42.312-8.002 11.989-12.409 27.378-12.409 43.332 0 29.809 24 38.551 24 51.733v40c0 4.418 3.582 8 8 8h224c4.418 0 8-3.582 8-8v-40c0-13.112 24-22.011 24-51.733.001-15.954-4.406-31.343-12.408-43.332zm-27.591 127.065h-208v-24h208zm1.18-40h-210.36c-5.101-16.886-22.82-22.845-22.82-43.733 0-12.827 3.451-25.062 9.716-34.449 9.589-14.366 15.461-31.609 16.982-49.866l4.041-48.491c.344-4.126 3.839-7.336 7.973-7.336.916 0-3.332-.027 9.087.076 4.356.037 7.915 3.61 7.933 7.957l.073 23.843c.12 39.363 32.129 71.917 72.229 71.917 39.412 0 71.994-32.17 72.042-72.049.031-25.396-.763-26.732 2.413-29.863 2.861-2.82 4.833-2.314 14.873-2.188 4.144.053 7.528 3.206 7.873 7.335l4.066 48.8c1.521 18.257 7.393 35.5 16.982 49.866 6.266 9.388 9.716 21.622 9.716 34.449.001 20.864-17.734 26.899-22.819 43.732z"/><path d="m200.16 288.88c4.418 0 7.99-3.582 7.99-8s-3.591-8-8.01-8-8 3.582-8 8c0 4.388 3.544 8 8.02 8z"/><path d="m380.573 362.872c-5.43-35.371-4.423-33.446-4.423-81.992 0-4.418-3.582-8-8-8h-136.01c-4.418 0-8 3.582-8 8s3.582 8 8 8h128.01v23.998h-208v-23.998h16.01c4.418 0 8-3.582 8-8s-3.582-8-8-8h-24.01c-4.418 0-8 3.582-8 8 0 47.971 1.037 46.105-4.471 81.992-4.057 26.42-5.52 31.862.188 83.213 2.105 18.938 4.283 38.521 4.283 58.215 0 4.418 3.582 8 8 8h88c3.908 0 7.243-2.823 7.89-6.677l16.086-95.889 16.086 95.889c.646 3.854 3.982 6.677 7.89 6.677h88c4.418 0 8-3.582 8-8 0-19.693 2.177-39.275 4.283-58.213 5.682-51.107 4.309-56.371.188-83.215zm-20.363 133.428h-73.338c-17.224-102.671-14.743-87.947-15.003-89.432-3.178-17.478-28.302-17.497-31.484 0-.224 1.274.1-.596-15.003 89.432h-73.338c-.47-17.779-2.399-35.13-4.272-51.982-5.522-49.67-4.164-53.688-.276-79.018 1.779-11.587 3.751-24.435 4.42-36.42h208.425c1.274 22.842 7.413 49.539 7.766 64.19.697 29.098-6.906 65.723-7.897 103.23z"/></svg>