<svg id="Layer_1" enable-background="new 0 0 512 512" height="512" viewBox="0 0 512 512" width="512" xmlns="http://www.w3.org/2000/svg"><path d="m199.92 240h83.96v8.523l-49.714 10.653c-15.302 3.275-20.084 23.305-7.237 32.962l1.585 1.189c-13.025 11.65-13.029 30.978-4.667 45.843 8.147 14.478 19.922 17.082 36.183 23.284 4.118 1.573 8.749-.488 10.326-4.624 1.575-4.128-.496-8.751-4.624-10.325l-16.341-6.232c-10.824-4.127-15.815-15.069-15.191-26.139.394-6.978 6.62-13.205 13.599-13.598 27.629-1.559 26.802-1.936 28.358-.38 2.183 2.183.653 6.464-1.602 8.719-3.125 3.124-3.125 8.189-.001 11.313 3.124 3.126 8.189 3.125 11.313.001 14.945-14.941 5.496-38.135-13.715-37.053-27.571 1.556-25.64 1.419-27.1 1.596-9.088-6.82-9.54-6.734-9.54-8.423 0-1.193.843-2.239 2.006-2.488l56.04-12.01c3.688-.79 6.324-4.05 6.324-7.822v-14.989h10.392c4.418 0 8-3.582 8-8s-3.582-8-8-8h-110.354c-4.418 0-8 3.582-8 8s3.581 8 8 8z"/><path d="m504 248c-7.925 0-13.207-24.7-31.158-35.132 12.627-16.552 7.977-41.307 15.332-44.378 3.527-1.176 6.187-5.994 4.339-10.456-1.691-4.082-6.368-6.021-10.453-4.329-7.226 2.991-21.948-17.805-42.231-20.536 5.288-19.962-8.392-41.292-2.81-46.875 3.124-3.124 3.124-8.189 0-11.313-3.124-3.123-8.189-3.123-11.313 0-5.529 5.533-27.088-8.051-46.875-2.81-2.742-20.384-23.927-35.447-20.535-42.231 1.691-4.082-.248-8.762-4.33-10.452-4.081-1.691-8.762.248-10.453 4.329-3.026 7.307-27.881 2.756-44.382 15.342-10.432-17.957-35.131-23.238-35.131-31.159 0-4.418-3.582-8-8-8s-8 3.582-8 8c0 7.912-24.709 13.222-35.133 31.158-16.51-12.594-41.353-8.027-44.382-15.341-1.691-4.082-6.37-6.021-10.453-4.329-4.082 1.69-6.021 6.37-4.33 10.452 3.402 6.804-17.788 21.817-20.535 42.23-19.837-5.256-41.318 8.366-46.874 2.811-3.124-3.123-8.189-3.123-11.313 0-3.125 3.125-3.125 8.189 0 11.314 5.532 5.531-8.052 27.085-2.81 46.874-20.314 2.734-34.973 23.529-42.225 20.538-4.129-1.704-8.78.275-10.458 4.327-1.691 4.082.248 8.762 4.33 10.452 7.408 3.07 2.635 27.724 15.342 44.382-17.955 10.433-23.243 35.132-31.159 35.132-4.418 0-8 3.582-8 8s3.582 8 8 8c7.908 0 13.22 24.707 31.158 35.133-12.62 16.54-7.592 39.216-15.342 44.382-4.082 1.69-6.021 6.37-4.33 10.452 1.691 4.083 6.373 6.022 10.453 4.329 7.934-2.645 21.632 17.767 42.23 20.54-5.317 20.076 8.413 41.269 2.811 46.87-3.125 3.125-3.125 8.189 0 11.314 3.124 3.123 8.189 3.125 11.313 0 5.622-5.631 26.713 8.16 46.876 2.82 2.745 20.364 23.923 35.44 20.533 42.221-2.191 5.29 1.732 11.063 7.388 11.063 3.139 0 6.118-1.859 7.394-4.94 2.992-7.226 28.11-2.93 44.382-15.342 10.312 17.744 35.134 23.3 35.134 31.158 0 4.418 3.582 8 8 8s8-3.582 8-8c0-7.821 24.849-13.463 35.132-31.158 16.42 12.527 41.36 8.046 44.382 15.342 1.276 3.081 4.255 4.94 7.394 4.94 5.658 0 9.579-5.775 7.388-11.063-2.681-8.043 17.747-21.563 20.533-42.221 5.365 1.421 10.877 1.558 16.366.901 11.784-1.406 28.417-7.906 30.509-3.722 3.125 3.124 8.19 3.124 11.313 0 3.124-3.124 3.125-8.189 0-11.313 0 0 0 0 0-.001-5.667-5.667 8.172-26.627 2.812-46.87 20.544-2.765 34.913-23.556 42.23-20.539 4.083 1.693 8.762-.248 10.453-4.329 1.691-4.082-.248-8.762-4.33-10.452-7.733-5.155-2.785-27.921-15.342-44.382 17.855-10.376 23.266-35.133 31.16-35.133 4.418 0 8-3.582 8-8s-3.582-8-8-8zm-34.057-80.617c-4.996 14.178-1.822 32.985-15.717 40.891-1.368.305-2.609.961-3.616 1.882-5.014-21.296-13.444-41.284-24.673-59.364 1.375-.05 2.732-.453 3.932-1.2 15.455-4.279 26.478 11.28 40.074 17.791zm-200.33 272.108 147.297-272.499c64.875 116.874-13.845 262.634-147.297 272.499zm-174.683-272.499 11.892 22.002c2.101 3.887 6.954 5.334 10.842 3.234 3.887-2.102 5.334-6.955 3.233-10.842l-11.559-21.386h293.164l-146.582 271.176-102.962-190.48c-2.101-3.888-6.955-5.333-10.842-3.234-3.887 2.102-5.334 6.955-3.233 10.842l103.344 191.187c-133.385-9.86-212.196-155.583-147.297-272.499zm306.869-22.992h-291.758c73.928-96.065 217.951-95.908 291.758 0zm17.947-51.745c.811 15.042 10.954 31.193 1.107 43.821-1.159.827-2.057 1.936-2.631 3.196-12.62-17.497-27.994-32.878-45.483-45.508 1.245-.569 2.337-1.455 3.159-2.597 12.625-9.875 28.805.278 43.848 1.088zm-75.127-50.198c6.511 13.595 22.058 24.624 17.792 40.061-.746 1.194-1.153 2.544-1.208 3.913-18.068-11.232-38.043-19.669-59.326-24.693.887-.99 1.524-2.203 1.832-3.535 7.91-13.952 26.652-10.721 40.91-15.746zm-88.619-17.627c11.208 10.059 29.804 14.314 31.769 30.203-.226 1.35-.101 2.715.341 3.971-20.833-3.386-42.446-3.546-64.212-.028.434-1.248.557-2.603.333-3.942 1.967-15.911 20.524-20.111 31.769-30.204zm-88.618 17.627c14.207 5.005 33.01 1.818 40.909 15.746.304 1.318.932 2.517 1.805 3.502-21.27 5.005-41.237 13.419-59.301 24.626-.07-1.334-.478-2.648-1.206-3.813-4.264-15.431 11.285-26.469 17.793-40.061zm-75.127 50.198c15.059-.814 31.217-10.969 43.848-1.087.8 1.111 1.852 1.984 3.055 2.555-17.467 12.604-32.825 27.953-45.439 45.411-.575-1.204-1.454-2.261-2.571-3.058-9.852-12.631.297-28.776 1.107-43.821zm-10.127 57.336c1.156.72 2.457 1.119 3.779 1.193-11.212 18.05-19.634 38.004-24.651 59.261-.982-.859-2.173-1.476-3.48-1.769-13.916-7.913-10.704-26.663-15.72-40.895 13.59-6.508 24.628-22.066 40.072-17.79zm-57.699 106.408c10.068-11.215 14.313-29.812 30.219-31.771 1.254.207 2.439.158 3.859-.323-3.339 20.608-3.558 42.213-.002 64.176-1.229-.415-2.557-.531-3.872-.312-15.914-1.968-20.122-20.537-30.204-31.77zm17.627 88.618c5.007-14.209 1.814-33.011 15.751-40.911 1.294-.3 2.471-.915 3.446-1.765 5.016 21.259 13.438 41.214 24.649 59.266-1.325.074-2.629.481-3.786 1.204-15.445 4.269-26.466-11.286-40.06-17.794zm50.198 75.128c-.811-15.045-10.955-31.189-1.107-43.821 1.117-.797 1.996-1.854 2.572-3.058 12.613 17.457 27.968 32.804 45.433 45.406-1.212.575-2.274 1.458-3.075 2.58-12.624 9.848-28.781-.297-43.823-1.107zm75.127 50.198c-6.51-13.596-22.057-24.626-17.792-40.062.728-1.165 1.136-2.479 1.206-3.813 18.064 11.207 38.031 19.621 59.301 24.626-.873.985-1.5 2.185-1.805 3.502-7.893 13.924-26.708 10.742-40.91 15.747zm88.619 17.627c-11.201-10.053-29.803-14.313-31.769-30.203.224-1.34.102-2.694-.333-3.942 20.835 3.367 42.449 3.509 64.212-.028-.442 1.256-.567 2.621-.341 3.971-1.967 15.909-20.524 20.109-31.769 30.202zm88.618-17.627c-14.207-5.005-33.01-1.818-40.909-15.746-.308-1.332-.944-2.544-1.832-3.534 21.283-5.024 41.259-13.46 59.326-24.693.055 1.368.462 2.719 1.208 3.913 4.271 15.458-11.265 26.426-17.793 40.06zm75.127-50.198c-15.045.813-31.191 10.955-43.819 1.109-.823-1.154-1.924-2.051-3.177-2.625 17.486-12.628 32.857-28.007 45.474-45.501.573 1.261 1.472 2.369 2.631 3.196 9.839 12.617-.299 28.794-1.109 43.821zm10.138-57.333c-1.203-.751-2.564-1.158-3.943-1.208 11.23-18.083 19.661-38.075 24.674-59.375.999.911 2.226 1.565 3.579 1.879 13.95 7.906 10.726 26.657 15.75 40.912-13.589 6.507-24.621 22.058-40.06 17.792zm27.488-74.643c-1.377-.231-2.769-.097-4.046.366 3.349-20.647 3.568-42.288-.003-64.291 1.485.54 2.751.596 4.029.384 15.909 1.958 20.144 20.548 30.22 31.772-10.067 11.215-14.306 29.799-30.2 31.769z"/><path d="m223.119 203.286c11.227 7.368 18.323 13.382 31.978 13.382s20.811-6.054 31.977-13.382c3.694-2.424 4.723-7.384 2.299-11.078-2.425-3.694-7.384-4.722-11.078-2.299-10.468 6.87-14.746 10.759-23.199 10.759-8.648 0-13.076-4.116-23.199-10.759-3.692-2.422-8.653-1.394-11.078 2.299-2.423 3.694-1.394 8.654 2.3 11.078z"/><path d="m258.16 187.64c4.022-1.678 6.039-6.316 4.32-10.45-2.743-6.571-12.043-6.548-14.77 0-2.672 6.412 3.702 13.208 10.45 10.45z"/><path d="m137.979 212.988-1.95-3.61c-2.1-3.888-6.953-5.335-10.841-3.237-3.887 2.101-5.336 6.954-3.236 10.841l1.95 3.61c2.103 3.894 6.955 5.334 10.841 3.237 3.886-2.1 5.336-6.954 3.236-10.841z"/></svg>