<svg id="Layer_1" enable-background="new 0 0 512 512" height="512" viewBox="0 0 512 512" width="512" xmlns="http://www.w3.org/2000/svg"><path d="m218.948 161.304c13.699 6.553 21.636 11.496 37.052 11.496 15.409 0 23.465-4.997 37.052-11.496 3.985-1.906 5.671-6.683 3.765-10.669-1.906-3.985-6.683-5.669-10.669-3.765-12.597 6.025-18.556 9.93-30.147 9.93-11.403 0-16.563-3.432-30.147-9.93-3.988-1.909-8.762-.222-10.669 3.765-1.908 3.986-.222 8.762 3.763 10.669z"/><circle cx="256" cy="131.2" r="8"/><path d="m474.773 373.072c-23.782-13.73 16.251-79.753-28.829-117.072 45.098-37.333 4.99-103.305 28.83-117.072 3.814-2.201 5.144-7.093 2.928-10.928-2.208-3.825-7.099-5.139-10.928-2.928-23.593 13.621-61.384-53.781-115.802-33.569-9.726-57.379-86.972-56.168-86.972-83.503 0-4.418-3.582-8-8-8s-8 3.582-8 8c0 27.281-77.263 26.224-86.972 83.502-54.547-20.264-92.134 47.237-115.802 33.569-3.826-2.208-8.719-.898-10.929 2.929-2.199 3.813-.913 8.71 2.929 10.929 23.8 13.738-16.257 79.745 28.83 117.071-45.102 37.34-4.988 103.308-28.83 117.073-3.814 2.201-5.144 7.093-2.928 10.928 2.208 3.825 7.1 5.139 10.928 2.928 23.613-13.622 61.373 53.793 115.787 33.595 9.707 57.188 86.986 56.231 86.986 83.478h.001c0 4.418 3.582 8 8 8s8-3.582 8-8c0-27.543 77.227-25.974 86.987-83.477 54.379 20.184 92.187-47.213 115.786-33.596 3.824 2.208 8.719.897 10.928-2.928 2.22-3.842.881-8.731-2.928-10.929zm-21.793-230.799c-9.87 30.329 16.127 78.615-21.229 104.392-3.037-57.824-34.116-108.335-79.855-138.172 41.042-19.545 69.861 27.161 101.084 33.78zm-196.98-113.727c21.308 23.689 76.168 25.357 79.794 70.607-50.325-25.706-109.901-25.348-159.581-.096 3.697-45.183 58.459-46.801 79.787-70.511zm-196.98 113.726c31.18-6.614 60.01-53.235 100.974-33.834-20.27 13.203-37.916 30.652-51.598 51.666-3.411 5.239.283 12.371 6.704 12.371 2.869 0 5.386-1.513 6.798-3.784 29.706-45.521 79.825-72.691 134.102-72.691 88.225 0 160 71.775 160 160s-71.775 160-160 160c-100.498 0-176.536-92.054-156.961-191.19.855-4.335-1.965-8.543-6.299-9.398-4.341-.861-8.542 1.964-9.398 6.299-1.619 8.198-2.648 16.559-3.089 24.958-37.376-25.785-11.357-74.049-21.233-104.397zm0 227.455c9.865-30.322-16.12-78.619 21.228-104.393 3.036 57.828 34.119 108.341 79.863 138.179-41.044 19.548-69.865-27.167-101.091-33.786zm196.98 113.726c-21.319-23.697-76.182-25.36-79.802-70.61 50.019 25.553 109.578 25.557 159.604 0-3.622 45.273-58.46 46.884-79.802 70.61zm95.889-79.94c45.744-29.837 76.826-80.351 79.863-138.178 37.359 25.78 11.356 74.052 21.228 104.392-31.189 6.615-60.078 53.328-101.091 33.786z"/><path d="m97.494 200.071c4.111 1.592 8.75-.447 10.347-4.575.087-.225.256-.629.3-.729 4.051-9.69-10.781-16.605-15.222-5.042-1.595 4.12.454 8.753 4.575 10.346z"/><path d="m256 400c79.087 0 142.472-63.393 143.969-141.167.148-7.805-9.882-11.171-14.471-4.856-63.87 87.885-195.09 87.935-258.996 0-4.59-6.316-14.619-2.945-14.471 4.856 1.498 77.83 64.94 141.167 143.969 141.167zm124.884-116.012c-12.903 57.022-64.376 100.012-124.884 100.012s-111.981-42.99-124.884-100.012c68.922 69.347 180.827 69.366 249.768 0z"/><path d="m247.04 242.24c4.418 0 8-3.582 8-8s-3.582-8-8-8c-24.583 0-43.84 13.353-43.84 30.399 0 26.736 44.251 39.096 71.68 23.65v7.711c0 4.418 3.582 8 8 8s8-3.582 8-8v-81.6h9.92c4.418 0 8-3.582 8-8s-3.582-8-8-8h-89.6c-4.418 0-8 3.582-8 8s3.582 8 8 8h63.68v50.239c0 6.798-11.906 14.4-27.84 14.4s-27.84-7.603-27.84-14.4c0-6.796 11.906-14.399 27.84-14.399z"/></svg>