<svg id="Layer_1" enable-background="new 0 0 512 512" height="512" viewBox="0 0 512 512" width="512" xmlns="http://www.w3.org/2000/svg"><path d="m504 248c-15.461 0-25.114-19.942-35.257-44.033-1.714-4.071-6.405-5.986-10.477-4.27-4.072 1.714-5.984 6.405-4.27 10.477 6.55 15.56 14.759 35.057 28.066 45.798-29.887 24.247-36.885 98.458-71.54 111.139-9.699 3.551-21.29 2.072-35.328-4.498 54.425-60.785 54.406-152.461 0-213.225 26.641-12.46 39.89-4.358 48.492 4.293 3.113 3.13 8.177 3.151 11.313.032 3.133-3.115 3.147-8.181.032-11.313-14.269-14.352-31.908-18.624-52.601-12.79 23.661-82.424-118.43-79.951-118.43-121.61 0-4.418-3.582-8-8-8s-8 3.582-8 8c0 41.579-142.004 39.244-118.447 121.553-82.424-23.593-79.875 118.447-121.553 118.447-4.418 0-8 3.582-8 8s3.582 8 8 8c41.852 0 39.035 142.067 121.552 118.45-23.588 82.424 118.448 79.872 118.448 121.55 0 4.418 3.582 8 8 8s8-3.582 8-8c0-41.603 142.005-39.235 118.448-121.549 82.592 23.64 79.7-118.451 121.552-118.451 4.418 0 8-3.582 8-8s-3.582-8-8-8zm-344-88h192v192h-192zm5.601-16c52.741-42.652 127.977-42.716 180.797 0zm-21.601 21.602v180.797c-42.651-52.74-42.716-127.977 0-180.797zm202.399 202.398c-52.741 42.652-127.977 42.716-180.797 0zm21.601-21.602v-180.796c42.651 52.739 42.716 127.976 0 180.796zm-223.11-244.921c12.674-34.637 86.83-41.643 111.11-71.505 24.245 29.818 98.444 36.892 111.11 71.505 3.55 9.699 2.073 21.289-4.498 35.329-60.784-54.425-152.462-54.406-213.225 0-6.57-14.041-8.047-25.631-4.497-35.329zm-43.413 265.633c-34.637-12.674-41.643-86.83-71.505-111.11 29.818-24.244 36.892-98.444 71.505-111.11 9.7-3.552 21.289-2.072 35.328 4.498-54.425 60.784-54.406 152.462 0 213.225-14.04 6.571-25.629 8.048-35.328 4.497zm265.633 43.413c-12.674 34.637-86.83 41.642-111.11 71.505-24.244-29.818-98.444-36.892-111.11-71.505-3.55-9.699-2.073-21.289 4.498-35.329 60.784 54.426 152.462 54.406 213.225 0 6.57 14.041 8.047 25.631 4.497 35.329z"/><path d="m448.696 185.771c5.841 0 9.778-6.141 7.197-11.483-.467-.962-1.04-2.161-1.707-3.493-1.975-3.953-6.784-5.559-10.731-3.581-3.952 1.975-5.556 6.779-3.581 10.731 1.603 3.212 3.114 7.826 8.822 7.826z"/><circle cx="280" cy="184" r="8"/><path d="m288 232.021v-16.021h32c4.418 0 8-3.582 8-8s-3.582-8-8-8h-128c-4.418 0-8 3.582-8 8s3.582 8 8 8h80v17.721c-6.768 1.612-13.192 4.347-19.057 8.104-11.949-10.218-23.512-9.825-32.503-9.825-23.037 0-41.07 18.658-41.07 41.08 0 10.788 2.915 15.233 13.277 39.407 1.74 4.061 6.442 5.943 10.504 4.201 4.062-1.74 5.942-6.443 4.201-10.504l-9.958-23.233c-7-16.346 4.828-34.951 23.046-34.951 6.792 0 13.05-.568 20.327 4.597-3.803 8.086 6.578 15.368 12.89 9.06 8.272-8.274 19.866-13.657 32.97-13.657 23.028 0 36.457 24.474 25.529 43.603l-23.103 40.429c-3.079 5.39.904 11.97 6.938 11.97 2.777 0 5.478-1.448 6.954-4.032l23.103-40.429c16.924-29.619-3.885-66.671-38.048-67.52z"/><path d="m288 272h-64c-6.118 0-9.999 6.625-6.946 11.969l32 56c3.066 5.365 10.823 5.371 13.893 0l32-56c3.03-5.306-.785-11.969-6.947-11.969zm-32 47.875-18.215-31.875h36.43z"/></svg>