<svg id="Layer_1" enable-background="new 0 0 512.005 512.005" height="512" viewBox="0 0 512.005 512.005" width="512" xmlns="http://www.w3.org/2000/svg"><path d="m88.002 288.005h-24v-40c0-4.418-3.582-8-8-8s-8 3.582-8 8v40h-24c-13.234 0-24 10.767-24 24 0 10.429 6.689 19.321 16 22.624v137.376c0 22.056 17.944 40 40 40s40-17.944 40-40v-137.376c9.311-3.303 16-12.195 16-22.624 0-13.234-10.766-24-24-24zm-8 184c0 13.233-10.767 24-24 24s-24-10.767-24-24v-136h48zm8-152h-64c-4.411 0-8-3.589-8-8s3.589-8 8-8h64c4.411 0 8 3.589 8 8s-3.588 8-8 8z"/><path d="m512.002 312.005c0-13.233-10.767-24-24-24h-24v-80c0-55.568-21.637-107.802-60.923-147.076-122.137-122.174-333.06-49.998-353.601 122.188-.523 4.387 2.609 8.367 6.996 8.891 4.38.535 8.368-2.609 8.892-6.996 6.238-52.29 33.235-97.595 72.151-128.102-79.038 98.283-9.73 247.095 118.485 247.095 127.852 0 197.741-148.603 118.455-247.131 45.829 36.072 73.545 90.671 73.545 151.131v80h-24c-13.233 0-24 10.767-24 24 0 10.429 6.689 19.321 16 22.624v137.376c0 22.056 17.944 40 40 40s40-17.944 40-40v-137.376c9.312-3.303 16-12.195 16-22.624zm-168-208c0 48.523-39.477 88-88 88s-88-39.477-88-88 39.477-88 88-88 88 39.476 88 88zm-88 184c-74.991 0-136-61.01-136-136 0-41.607 18.787-78.902 48.317-103.87-43.914 68.679 5.53 159.87 87.683 159.87 82.186 0 131.585-91.21 87.684-159.869 29.529 24.967 48.316 62.263 48.316 103.869 0 74.99-61.009 136-136 136zm224 184c0 13.233-10.767 24-24 24s-24-10.767-24-24v-136h48zm8-152h-64c-4.411 0-8-3.589-8-8s3.589-8 8-8h64c4.411 0 8 3.589 8 8s-3.588 8-8 8z"/><path d="m56.002 225.005c4.418 0 8-3.582 8-8v-1c0-4.418-3.582-8-8-8s-8 3.582-8 8v1c0 4.418 3.582 8 8 8z"/></svg>