<svg id="Layer_1" enable-background="new 0 0 512 512" height="512" viewBox="0 0 512 512" width="512" xmlns="http://www.w3.org/2000/svg"><path d="m368 0h-224c-30.878 0-56 25.121-56 56v168c0 4.418 3.582 8 8 8s8-3.582 8-8v-168c0-22.056 17.944-40 40-40h224c22.056 0 40 17.944 40 40v400c0 22.056-17.944 40-40 40h-224c-22.056 0-40-17.944-40-40v-168c0-4.418-3.582-8-8-8s-8 3.582-8 8v168c0 30.879 25.122 56 56 56h224c30.878 0 56-25.121 56-56v-400c0-30.879-25.122-56-56-56z"/><path d="m96 264c4.418 0 8-3.582 8-8v-1c0-4.418-3.582-8-8-8s-8 3.582-8 8v1c0 4.418 3.582 8 8 8z"/><path d="m368 472c13.234 0 24-10.767 24-24v-392c0-13.233-10.766-24-24-24h-43.351c-11.015 0-20.755 7.021-24.238 17.47-1.302 3.906-4.943 6.53-9.06 6.53h-70.702c-4.117 0-7.758-2.624-9.06-6.53-3.483-10.449-13.223-17.47-24.238-17.47h-43.351c-13.234 0-24 10.767-24 24v392c0 13.233 10.766 24 24 24zm-232-24v-392c0-4.411 3.589-8 8-8h43.351c4.117 0 7.758 2.624 9.06 6.53 3.483 10.449 13.223 17.47 24.238 17.47h70.702c11.015 0 20.755-7.021 24.238-17.47 1.302-3.906 4.943-6.53 9.06-6.53h43.351c4.411 0 8 3.589 8 8v392c0 4.411-3.589 8-8 8h-224c-4.411 0-8-3.589-8-8z"/><path d="m204.785 328c6.706 0 14.517.597 22.635 1.813-9.648 5.063-16.802 11.015-21.292 17.749-3.575 5.364.361 12.438 6.649 12.438 9.546 0 3.793-12.447 41.746-23.769 13.712 4.64 25.674 11.309 31.606 20.206 2.457 3.686 7.426 4.664 11.094 2.219 3.676-2.45 4.67-7.418 2.219-11.094-19.45-29.173-74.923-35.562-94.657-35.562-22.131 0-21.998-15.954 50.466-31.661 22.343 4.702 55.025 14.035 62.308 21.318 1.962 1.962 2.916 4.715 2.217 6.401-.753 1.818-4.495 3.941-12.56 3.941-4.418 0-8 3.582-8 8s3.582 8 8 8c30.01 0 35.482-23.833 21.657-37.656-12.382-12.383-54.128-22.204-69.122-25.408-.626-.333-1.298-.577-1.997-.735 7.958.665 17.123 1.04 25.371.851 15.756-.363 34.159-2.461 36.63-15.57 3.247-17.231-26.94-32.841-43.646-41.05 6.903-6.193 11.891-16.554 11.891-32.431 0-32-21.613-32-32-32s-32 0-32 32c0 15.847 4.969 26.2 11.853 32.397-16.086 7.897-46.987 23.723-43.715 41.084 2.471 13.109 20.874 15.207 36.63 15.57 7.571.174 15.791-.125 23.281-.686-6.199 1.934-54.934 11.989-68.922 25.977-6.581 6.581-8.866 16.161-5.686 23.839 2.139 5.162 8.534 13.819 27.344 13.819zm51.215-168c11.381 0 16 .613 16 16 0 8.963-2.079 24-16 24s-16-15.037-16-24c0-15.387 4.619-16 16-16zm-47.646 85.988c6.084-10.066 36.174-24.286 47.593-29.266 11.364 4.953 41.507 19.196 47.591 29.266-8.274 3.986-30.315 3.214-39.538 2.629v-8.617c0-4.418-3.582-8-8-8s-8 3.582-8 8v8.605c-9.218.584-31.326 1.391-39.646-2.617z"/></svg>